<svg width="120" height="118" viewBox="0 0 120 118" fill="none" xmlns="http://www.w3.org/2000/svg">
<g clip-path="url(#clip0_136_275)">
<path d="M72.5162 117.855L32.5303 117.669C30.2208 117.659 28.0101 116.731 26.3843 115.091C24.7584 113.451 23.8506 111.232 23.8604 108.922L24.2844 8.67719C24.2892 7.53306 24.5194 6.40108 24.9619 5.34594C25.4043 4.2908 26.0503 3.33318 26.863 2.52777C27.6756 1.72237 28.639 1.08496 29.6981 0.651976C30.7571 0.218992 31.8911 -0.00108714 33.0353 0.00430828L73.0211 0.189282C75.3305 0.200131 77.5411 1.12761 79.1669 2.76783C80.7926 4.40805 81.7005 6.62674 81.691 8.93616L81.267 109.182C81.262 110.326 81.0317 111.458 80.5892 112.513C80.1467 113.568 79.5007 114.526 78.6881 115.331C77.8755 116.137 76.9122 116.774 75.8532 117.207C74.7942 117.64 73.6603 117.86 72.5162 117.855Z" fill="#263238"/>
<path d="M72.9642 3.64983L65.2112 3.61383C64.7007 3.62329 64.2148 3.835 63.8603 4.20246C63.5058 4.56991 63.3116 5.06306 63.3204 5.57358L63.3144 6.9794C63.3233 7.48982 63.1291 7.98286 62.7745 8.35015C62.42 8.71745 61.9341 8.92894 61.4237 8.93814L46.3126 8.86815C45.802 8.85428 45.3178 8.63831 44.9662 8.26768C44.6147 7.89704 44.4247 7.40205 44.4379 6.8914L44.4439 5.48559C44.457 4.97494 44.267 4.47995 43.9155 4.10932C43.564 3.73868 43.0797 3.52272 42.5691 3.50884L39.8425 3.49685L33.0573 3.46485C32.256 3.46104 31.4618 3.61515 30.7201 3.91839C29.9784 4.22163 29.3037 4.66806 28.7346 5.23216C28.1655 5.79625 27.7131 6.46696 27.4033 7.20596C27.0935 7.94496 26.9324 8.73777 26.9291 9.53907L26.5162 107.386C26.5126 108.187 26.6669 108.981 26.9701 109.723C27.2733 110.464 27.7196 111.138 28.2835 111.707C28.8474 112.276 29.5177 112.728 30.2564 113.038C30.995 113.348 31.7874 113.509 32.5884 113.513L72.4942 113.697C73.2955 113.7 74.0897 113.546 74.8315 113.243C75.5732 112.94 76.2479 112.493 76.817 111.929C77.3861 111.365 77.8384 110.695 78.1482 109.956C78.458 109.217 78.6192 108.424 78.6225 107.622L79.0364 9.77503C79.0433 8.15759 78.4075 6.60363 77.2687 5.45496C76.13 4.30629 74.5816 3.65697 72.9642 3.64983Z" fill="#FAFAFA"/>
<path d="M50.3793 104.328C50.404 104.496 50.3766 104.668 50.3008 104.82C50.225 104.972 50.1045 105.098 49.9553 105.18C49.8062 105.261 49.6356 105.295 49.4665 105.277C49.2974 105.259 49.1379 105.19 49.0094 105.078C48.8809 104.967 48.7896 104.819 48.7478 104.654C48.7059 104.489 48.7155 104.315 48.7753 104.156C48.8351 103.997 48.9421 103.86 49.0821 103.763C49.2221 103.667 49.3883 103.615 49.5583 103.616C49.7614 103.602 49.9616 103.67 50.1153 103.803C50.2691 103.936 50.364 104.125 50.3793 104.328Z" fill="#455A64"/>
<path d="M52.9306 104.34C52.9553 104.508 52.9279 104.68 52.8521 104.832C52.7762 104.985 52.6556 105.11 52.5064 105.192C52.3571 105.273 52.1865 105.307 52.0174 105.289C51.8482 105.271 51.6887 105.201 51.5603 105.09C51.4319 104.978 51.3406 104.83 51.2989 104.665C51.2572 104.5 51.2669 104.327 51.3268 104.167C51.3868 104.008 51.494 103.871 51.6341 103.775C51.7742 103.678 51.9405 103.627 52.1106 103.628C52.3135 103.615 52.5134 103.682 52.667 103.815C52.8205 103.949 52.9152 104.137 52.9306 104.34Z" fill="#455A64"/>
<path d="M55.4817 104.352C55.5066 104.52 55.4794 104.692 55.4038 104.844C55.3281 104.997 55.2077 105.122 55.0586 105.204C54.9094 105.286 54.7389 105.32 54.5697 105.302C54.4006 105.284 54.241 105.215 54.1124 105.104C53.9838 104.992 53.8924 104.844 53.8504 104.679C53.8085 104.515 53.818 104.341 53.8777 104.182C53.9374 104.022 54.0445 103.885 54.1844 103.788C54.3244 103.692 54.4906 103.64 54.6607 103.641C54.8636 103.627 55.0637 103.695 55.2174 103.828C55.3711 103.961 55.4661 104.149 55.4817 104.352Z" fill="#455A64"/>
<path d="M116.65 21.0436H38.6024C37.7928 21.0436 37.0164 21.3652 36.4439 21.9377C35.8714 22.5101 35.5498 23.2866 35.5498 24.0962V48.3061C35.5498 49.1157 35.8714 49.8921 36.4439 50.4646C37.0164 51.0371 37.7928 51.3587 38.6024 51.3587H44.4167C44.8846 53.8863 45.4335 57.0769 45.4335 57.0769L50.6969 51.3587H116.651C117.461 51.3584 118.237 51.0367 118.809 50.4642C119.381 49.8918 119.703 49.1155 119.703 48.3061V24.0962C119.703 23.2866 119.381 22.5101 118.809 21.9377C118.236 21.3652 117.46 21.0436 116.65 21.0436Z" fill="#F47D31"/>
<path d="M84.4487 34.1759C84.4487 34.2259 75.1599 34.2659 63.7034 34.2659C52.2469 34.2659 42.9561 34.2259 42.9561 34.1759C42.9561 34.1259 52.2439 34.0859 63.7034 34.0859C75.1629 34.0859 84.4487 34.1259 84.4487 34.1759Z" fill="#F5F5F5" stroke="white" stroke-width="0.499935"/>
<path d="M84.4487 30.4544C84.4487 30.5044 75.1599 30.5444 63.7034 30.5444C52.2469 30.5444 42.9561 30.5034 42.9561 30.4544C42.9561 30.4054 52.2439 30.3644 63.7034 30.3644C75.1629 30.3644 84.4487 30.4044 84.4487 30.4544Z" fill="#F5F5F5" stroke="white" stroke-width="0.499935"/>
<path d="M84.4487 37.8564C84.4487 37.9064 75.1599 37.9464 63.7034 37.9464C52.2469 37.9464 42.9561 37.9054 42.9561 37.8564C42.9561 37.8074 52.2439 37.7664 63.7034 37.7664C75.1629 37.7664 84.4487 37.8064 84.4487 37.8564Z" fill="#F5F5F5" stroke="white" stroke-width="0.499935"/>
<path d="M70.1345 41.6709C70.1345 41.7209 64.0503 41.7609 56.5463 41.7609C49.0423 41.7609 42.9561 41.7209 42.9561 41.6709C42.9561 41.6209 49.0393 41.5809 56.5463 41.5809C64.0533 41.5809 70.1345 41.6199 70.1345 41.6709Z" fill="#F5F5F5" stroke="white" stroke-width="0.499935"/>
<path d="M81.3871 64.569H2.69725C2.13082 64.569 1.58759 64.794 1.18706 65.1945C0.786535 65.595 0.561523 66.1383 0.561523 66.7047V92.3184C0.561523 92.5988 0.616762 92.8766 0.724092 93.1357C0.831423 93.3948 0.98874 93.6302 1.18706 93.8286C1.38538 94.0269 1.62082 94.1842 1.87994 94.2915C2.13906 94.3989 2.41678 94.4541 2.69725 94.4541H59.8469L65.0462 100.106C65.0462 100.106 65.5921 96.9298 66.0511 94.4541H81.3821C81.6626 94.4541 81.9403 94.3989 82.1994 94.2915C82.4585 94.1842 82.694 94.0269 82.8923 93.8286C83.0906 93.6302 83.2479 93.3948 83.3553 93.1357C83.4626 92.8766 83.5178 92.5988 83.5178 92.3184V66.7047C83.5178 66.1391 83.2935 65.5967 82.8941 65.1963C82.4946 64.7959 81.9527 64.5703 81.3871 64.569Z" fill="#504C99"/>
<path d="M78.2993 77.7792C78.2993 77.8292 69.0095 77.8693 57.554 77.8693C46.0984 77.8693 36.8066 77.8292 36.8066 77.7792C36.8066 77.7292 46.0934 77.6893 57.554 77.6893C69.0145 77.6893 78.2993 77.7272 78.2993 77.7792Z" fill="#F5F5F5" stroke="white" stroke-width="0.499935"/>
<path d="M78.2993 74.0557C78.2993 74.1047 69.0095 74.1457 57.554 74.1457C46.0984 74.1457 36.8066 74.1047 36.8066 74.0557C36.8066 74.0068 46.0934 73.9658 57.554 73.9658C69.0145 73.9658 78.2993 74.0078 78.2993 74.0557Z" fill="#F5F5F5" stroke="white" stroke-width="0.499935"/>
<path d="M78.2993 81.4578C78.2993 81.5077 69.0095 81.5478 57.554 81.5478C46.0984 81.5478 36.8066 81.5077 36.8066 81.4578C36.8066 81.4078 46.0934 81.3678 57.554 81.3678C69.0145 81.3678 78.2993 81.4078 78.2993 81.4578Z" fill="#F5F5F5" stroke="white" stroke-width="0.499935"/>
<path d="M63.9851 85.2703C63.9851 85.3203 57.8999 85.3603 50.3969 85.3603C42.8939 85.3603 36.8066 85.3193 36.8066 85.2703C36.8066 85.2213 42.8899 85.1803 50.3969 85.1803C57.9039 85.1803 63.9851 85.2213 63.9851 85.2703Z" fill="#F5F5F5" stroke="white" stroke-width="0.499935"/>
<mask id="mask0_136_275" style="mask-type:luminance" maskUnits="userSpaceOnUse" x="5" y="66" width="27" height="26">
<path d="M25.2558 89.7819C31.272 85.915 33.1375 78.0949 29.4226 72.3152C25.7076 66.5355 17.819 64.9848 11.8029 68.8517C5.78673 72.7186 3.92121 80.5387 7.63613 86.3185C11.3511 92.0982 19.2397 93.6488 25.2558 89.7819Z" fill="white"/>
</mask>
<g mask="url(#mask0_136_275)">
<g style="mix-blend-mode:multiply">
<path d="M20.0534 91.5851C26.8983 90.7239 31.7405 84.4098 30.8689 77.4823C29.9973 70.5547 23.7419 65.6369 16.8971 66.4981C10.0523 67.3593 5.20998 73.6733 6.08158 80.6009C6.95317 87.5285 13.2086 92.4463 20.0534 91.5851Z" fill="#C2D4EA"/>
</g>
<path fill-rule="evenodd" clip-rule="evenodd" d="M17.3855 82.1096L21.5886 82.1653L21.6085 82.4535L19.5122 85.5401L17.3478 82.3658L17.3855 82.1096Z" fill="#A2A7AF"/>
<path fill-rule="evenodd" clip-rule="evenodd" d="M17.4175 81.3308L17.3618 83.0854L14.3602 84.6751L14.281 90.6486L19.2985 90.7187L24.3161 90.7887L24.3957 84.8161L21.6443 83.0479L21.5173 81.2939L17.4175 81.3308Z" fill="#FCAA83"/>
<path fill-rule="evenodd" clip-rule="evenodd" d="M16.1121 76.1883C16.0848 76.1334 16.0467 76.0845 16.0001 76.0446C15.9535 76.0048 15.8994 75.9747 15.8409 75.9562C15.7824 75.9378 15.7208 75.9313 15.6598 75.9372C15.5987 75.9431 15.5395 75.9612 15.4856 75.9906C15.0241 76.1706 15.4789 78.0317 15.6512 78.2928C15.8236 78.5539 16.1088 78.3933 16.2112 78.3834C16.3413 79.4923 16.3447 80.2546 16.7804 80.7275C17.3489 81.3448 17.9728 81.9087 18.6442 82.4122C18.9188 82.4788 19.1981 82.5241 19.4797 82.5475C19.7623 82.5308 20.0431 82.4921 20.3197 82.4317C21.0039 81.9471 21.6424 81.4009 22.227 80.7999C22.6766 80.3395 22.7004 79.5795 22.8599 78.4734C22.9625 78.4857 23.2395 78.6546 23.4213 78.3964C23.6031 78.1382 24.1038 76.2907 23.6472 76.0979C23.5941 76.067 23.5353 76.0471 23.4744 76.0395C23.4134 76.0318 23.3515 76.0366 23.2924 76.0535C23.2333 76.0704 23.1783 76.099 23.1306 76.1377C23.0828 76.1764 23.0434 76.2244 23.0147 76.2787C23.2793 75.3086 23.1668 74.2743 22.7 73.3838C22.3595 72.8853 21.8992 72.4804 21.3615 72.206C20.8238 71.9317 20.2258 71.7967 19.6224 71.8135C19.0195 71.7809 18.418 71.9001 17.8731 72.1604C17.3282 72.4206 16.8574 72.8135 16.5038 73.3029C16.0138 74.1804 15.8741 75.2108 16.1127 76.1871L16.1121 76.1883Z" fill="#FFBA99"/>
<path fill-rule="evenodd" clip-rule="evenodd" d="M15.8946 83.582L16.6122 83.3106L17.1941 82.8015L19.2035 84.3684L19.7092 84.3751L21.7603 82.8598L23.0379 83.6773L25.2266 87.5121L23.7862 94.7876L15.16 94.6731L12.9141 87.6528L15.8946 83.582Z" fill="#38B8C7"/>
<path fill-rule="evenodd" clip-rule="evenodd" d="M22.3948 83.1872L21.5928 82.1635L19.7102 84.3749L21.2774 86.1621L22.3948 83.1872Z" fill="#38B6D0"/>
<path fill-rule="evenodd" clip-rule="evenodd" d="M16.5507 83.0919L17.3845 82.1099L19.2039 84.3686L17.5309 86.0922L16.5507 83.0919Z" fill="#38B6D0"/>
<path fill-rule="evenodd" clip-rule="evenodd" d="M16.5507 83.0909L11.094 84.7858C10.988 84.821 10.8936 84.8846 10.8211 84.9695C10.7486 85.0545 10.7007 85.1577 10.6826 85.2679L8.97629 93.3403C9.44383 93.7953 9.94031 94.2195 10.4626 94.6104L12.9995 94.6442L13.4134 93.3554C13.4183 93.3415 13.4278 93.3298 13.4403 93.3222C13.4528 93.3145 13.4676 93.3114 13.4821 93.3133C13.4967 93.3153 13.5101 93.3221 13.5202 93.3328C13.5303 93.3434 13.5364 93.3572 13.5375 93.3718L13.5688 94.6512L18.9146 94.7224L16.5507 83.0909Z" fill="white"/>
<path fill-rule="evenodd" clip-rule="evenodd" d="M16.5506 83.0918L15.9226 83.2763L14.2398 86.0669L16.32 86.1596L15.0322 86.8696L18.4743 94.7163L18.9129 94.725L16.5506 83.0918Z" fill="#ECF0F3"/>
<path fill-rule="evenodd" clip-rule="evenodd" d="M22.3935 83.1866L27.8056 85.0073C27.9114 85.0454 28.0047 85.112 28.0752 85.1996C28.1456 85.2873 28.1906 85.3927 28.2051 85.5042L29.6932 93.6188C29.2142 94.0601 28.7071 94.47 28.1752 94.8458L25.6382 94.812L25.2593 93.5149C25.2559 93.4998 25.2471 93.4865 25.2345 93.4775C25.222 93.4685 25.2065 93.4644 25.1912 93.466C25.1758 93.4677 25.1616 93.4749 25.1512 93.4863C25.1408 93.4978 25.135 93.5127 25.1348 93.5281L25.0697 94.8068L19.7242 94.7334L22.3935 83.1866Z" fill="#ECF0F3"/>
<path fill-rule="evenodd" clip-rule="evenodd" d="M22.3945 83.1872L22.739 83.297L24.6271 86.2254L22.544 86.2595L23.8124 87.004L20.1682 94.7401L19.7252 94.734L22.3945 83.1872Z" fill="white"/>
<path fill-rule="evenodd" clip-rule="evenodd" d="M22.6152 76.7092L22.9314 76.7061L23.0388 76.3423L23.3439 76.0459C23.5628 74.5503 23.652 72.2206 22.1648 72.2685C22.1648 72.2685 22.0528 70.5674 19.3677 70.8649C16.6826 71.1624 15.4505 72.8725 15.5761 74.3182C15.6586 74.8545 15.6802 75.3983 15.6404 75.9394L15.9378 76.2441L15.9754 76.6605L16.2384 76.6472C16.2802 76.377 16.3386 76.1097 16.4133 75.8467C16.4679 75.6052 16.4893 75.3573 16.4768 75.11C16.4768 75.11 19.6413 75.3539 20.5119 74.2768C21.0495 73.6116 22.2783 72.4631 22.3192 74.0775C22.3306 74.5558 22.1432 75.2707 22.4769 75.7977C22.5748 75.9258 22.6383 76.0768 22.6614 76.2363C22.6845 76.3958 22.6664 76.5586 22.6089 76.7092L22.6152 76.7092Z" fill="#454192"/>
<path fill-rule="evenodd" clip-rule="evenodd" d="M19.724 94.7334L20.2035 92.6648L19.724 84.8872L20.0427 84.7563L19.7095 84.3751L19.2038 84.3684L18.8507 84.7311L19.1747 84.8796L18.5046 92.7031L18.9154 94.7253L19.724 94.7334Z" fill="#1E8394"/>
</g>
<g style="mix-blend-mode:multiply">
<path d="M105.247 49.748C111.857 48.915 116.533 42.8157 115.69 36.125C114.847 29.4342 108.804 24.6855 102.194 25.5186C95.5827 26.3516 90.9071 32.4508 91.7502 39.1416C92.5933 45.8324 98.6359 50.581 105.247 49.748Z" fill="#C2D4EA"/>
</g>
<path d="M108.422 46.7678C114.232 43.0302 116.031 35.4753 112.441 29.8936C108.85 24.3118 101.229 22.8168 95.4188 26.5545C89.6086 30.2921 87.8092 37.847 91.3999 43.4287C94.9905 49.0105 102.611 50.5055 108.422 46.7678Z" fill="#DDE6F5"/>
<mask id="mask1_136_275" style="mask-type:luminance" maskUnits="userSpaceOnUse" x="89" y="24" width="26" height="25">
<path d="M108.422 46.7678C114.232 43.0302 116.031 35.4753 112.441 29.8936C108.85 24.3118 101.229 22.8168 95.4188 26.5545C89.6086 30.2921 87.8092 37.847 91.3999 43.4287C94.9905 49.0105 102.611 50.5055 108.422 46.7678Z" fill="white"/>
</mask>
<g mask="url(#mask1_136_275)">
<path d="M103.404 43.0325C102.966 43.3155 101.717 43.1405 101.304 43.3735C100.595 43.6049 99.8421 43.6713 99.1035 43.5675C99.1775 41.5585 100.189 39.5255 100.275 37.6775C101.036 39.3775 101.934 38.4435 102.815 37.2775C102.724 39.0875 103.451 41.2145 103.404 43.0325Z" fill="#FFC2B0"/>
<path d="M100.178 39.1145C100.244 39.3139 100.336 39.5038 100.451 39.6795C100.664 40.0112 100.995 40.2506 101.376 40.3505C101.607 40.3913 101.845 40.3769 102.069 40.3084C102.294 40.24 102.499 40.1194 102.668 39.9565C102.785 39.8565 102.898 39.7565 103.008 39.6565C102.862 38.8736 102.795 38.0779 102.808 37.2815C101.927 38.4445 101.029 39.3815 100.268 37.6815C100.285 37.8494 100.27 38.019 100.225 38.1815C100.202 38.3645 100.163 38.5455 100.137 38.7275C100.123 38.858 100.137 38.9899 100.178 39.1145Z" fill="#F4B7A8"/>
<path d="M107.891 51.3307C107.824 50.6378 107.756 49.9449 107.681 49.253C107.62 48.6924 107.553 48.1331 107.481 47.5752C107.408 47.0022 107.34 46.4163 107.263 45.8254C107.135 44.0498 106.78 42.298 106.205 40.6131C106.186 40.5684 106.171 40.5218 106.161 40.4741C105.127 40.089 104.066 39.7783 102.988 39.5442C102.988 40.0921 102.506 41.382 101.415 41.371C100.734 41.365 99.9491 40.3811 99.9491 39.5442C98.8402 39.7603 97.7533 40.0766 96.7015 40.4891C96.1616 40.6011 95.7017 43.7037 95.6187 44.1056C95.2777 45.8494 94.9048 47.5572 94.6108 49.305L94.6018 49.3559C94.4911 50.0152 94.3835 50.6745 94.2788 51.3337L107.891 51.3307Z" fill="#504C99"/>
<path d="M96.7037 40.4891L96.7327 40.4831C95.9376 40.8181 95.1689 41.2125 94.433 41.663C93.4295 42.2425 92.587 43.0641 91.9823 44.0527C91.3933 44.9907 90.9231 45.9983 90.5825 47.0523C90.8651 47.5781 91.2676 48.0299 91.7574 48.3711C92.4805 48.7988 93.2416 49.1586 94.031 49.446C94.375 48.846 94.6859 48.4761 94.8259 48.1521C95.0669 46.8803 95.3729 45.3835 95.6259 44.1027C95.6999 43.7017 96.1638 40.6001 96.7037 40.4891Z" fill="#504C99"/>
<path d="M110.698 43.9167C110.172 42.9195 109.387 42.0825 108.425 41.494C107.805 41.137 106.126 40.4651 106.164 40.4731C106.174 40.5201 107.051 44.1726 107.264 45.8254C107.341 46.4154 107.336 46.4254 107.409 47.0023C107.638 47.9122 108.033 48.7721 108.574 49.5389C109.33 49.2749 110.053 48.9257 110.729 48.4981C111.181 48.2321 111.565 47.8636 111.849 47.4222C111.599 46.214 111.213 45.0379 110.698 43.9167Z" fill="#504C99"/>
<path d="M98.4873 35.5278C98.5502 36.4033 98.814 37.2525 99.2582 38.0095C99.4874 38.3862 99.803 38.703 100.179 38.9335C100.555 39.1641 100.98 39.3018 101.42 39.3353C101.993 39.3081 102.549 39.1273 103.028 38.8117C103.507 38.4961 103.893 38.0574 104.145 37.5415C104.624 36.5196 104.892 35.4111 104.931 34.2829C105.102 33.3476 105.008 32.3828 104.659 31.4983C104.508 31.1895 104.281 30.9249 103.998 30.7304C103.789 30.6 103.562 30.5022 103.325 30.4404C102.287 30.1436 101.174 30.2652 100.225 30.7794C98.3844 31.8132 98.2793 33.72 98.4873 35.5278Z" fill="#FFC2B0"/>
<path d="M105.641 31.7392C105.578 31.4312 105.494 31.1278 105.389 30.8313C105.029 29.8871 104.378 29.0818 103.53 28.5317C102.531 28.0874 101.404 28.0252 100.362 28.3567C100.12 28.4487 99.8765 28.5317 99.6386 28.6377C99.5652 28.6723 99.4941 28.7113 99.4256 28.7546C99.2837 28.9063 99.1723 29.0838 99.0976 29.2775C99.0758 29.3382 99.0584 29.4004 99.0456 29.4635C98.5395 29.7786 98.119 30.2138 97.8214 30.7305C97.5238 31.2471 97.3584 31.8292 97.3398 32.4251C97.5318 32.9831 97.6398 33.587 97.7758 34.1369C97.8938 34.6019 98.0068 35.0628 98.1008 35.5257C98.152 35.5289 98.2032 35.5218 98.2515 35.5046C98.2998 35.4874 98.3441 35.4606 98.3817 35.4258C98.5161 35.2679 98.5832 35.0636 98.5687 34.8568L98.6627 33.0571C98.66 32.9443 98.6844 32.8326 98.7337 32.7311C98.745 32.7163 98.7574 32.7023 98.7707 32.6891C98.8141 32.5345 98.8783 32.3865 98.9616 32.2492C99.1701 31.8468 99.4875 31.5111 99.8775 31.2803C99.9223 31.177 99.9857 31.0827 100.065 31.0023C100.946 30.1025 102.364 30.4724 103.347 30.9873C103.888 31.2415 104.318 31.6846 104.555 32.2332C104.727 32.7855 104.71 33.3794 104.507 33.921C104.514 34.2276 104.522 34.5339 104.529 34.8399C104.536 35.1468 104.595 35.5247 104.892 35.6127C104.971 35.6302 105.053 35.6281 105.132 35.6067C105.21 35.5852 105.282 35.5451 105.341 35.4897C105.326 34.8898 105.311 34.2979 105.347 33.705C105.403 33.0441 105.501 32.3875 105.641 31.7392Z" fill="#915151"/>
<path d="M98.7028 35.9009C98.6838 35.4369 98.5908 34.9459 98.6028 34.4799C98.5426 34.4429 98.4735 34.4228 98.4028 34.4219C98.3242 34.4099 98.2439 34.4236 98.1738 34.4609C98.0584 34.5526 97.9825 34.685 97.9617 34.8309C97.8307 35.2914 97.819 35.7776 97.9278 36.2439C97.9777 36.4644 98.0785 36.6702 98.2221 36.8449C98.3656 37.0196 98.5481 37.1583 98.7548 37.2499C98.7991 37.2722 98.85 37.2771 98.8978 37.2639C98.7842 36.8179 98.7189 36.3609 98.7028 35.9009Z" fill="#F4B7A8"/>
<path d="M105.447 34.8339C105.442 34.7631 105.424 34.6937 105.392 34.6302C105.361 34.5666 105.317 34.5101 105.263 34.4639C105.193 34.4262 105.113 34.4125 105.036 34.4249C104.852 34.4505 104.684 34.5422 104.563 34.6829C104.544 34.6894 104.526 34.6985 104.51 34.7099C104.51 34.9819 104.498 35.2549 104.488 35.5329C104.49 36.0019 104.452 36.4702 104.376 36.9329C104.346 37.0626 104.311 37.1908 104.269 37.3169C104.338 37.3099 104.406 37.2902 104.469 37.2589C104.683 37.1665 104.874 37.0286 105.029 36.8549C105.185 36.6812 105.3 36.4758 105.369 36.2529C105.515 35.7943 105.542 35.3058 105.447 34.8339Z" fill="#F4B7A8"/>
</g>
</g>
<defs>
<clipPath id="clip0_136_275">
<rect width="119.141" height="117.851" fill="white" transform="translate(0.5625 0.00430298)"/>
</clipPath>
</defs>
</svg>
