<svg width="145" height="93" viewBox="0 0 145 93" fill="none" xmlns="http://www.w3.org/2000/svg">
<g clip-path="url(#clip0_136_64)">
<path d="M103.575 88.6224C103.575 90.7382 89.6586 92.4531 72.4911 92.4531C55.3235 92.4531 41.4067 90.7382 41.4067 88.6224C41.4067 86.5066 55.3235 84.7927 72.4911 84.7927C89.6586 84.7927 103.575 86.5046 103.575 88.6224Z" fill="#EAEAEA"/>
<path d="M82.6973 36.5159C81.6274 51.0737 94.5263 63.8846 111.511 65.1305C128.495 66.3763 143.121 55.5823 144.188 41.0235C145.255 26.4648 132.355 13.6549 115.374 12.41C98.3939 11.1651 83.7642 21.9572 82.6973 36.5159Z" fill="#F47D31"/>
<path d="M90.2377 41.7325C91.1986 27.7567 104.786 17.4256 120.587 18.6575C124.754 18.932 128.821 20.06 132.534 21.9715C136.248 23.883 139.528 26.5372 142.173 29.7695C137.962 20.3703 127.753 13.3189 115.376 12.412C98.395 11.1671 83.7653 21.9612 82.6974 36.5189C81.9114 47.25 88.7138 57.0301 99.1449 61.9297C93.2045 56.7962 89.7017 49.5188 90.2377 41.7325Z" fill="#FFA368"/>
<path d="M114.877 63.3156C114.877 63.3156 106.425 77.2884 93.6343 70.061C101.099 71.1329 101.949 61.8767 100.269 56.3002L114.877 63.3156Z" fill="#F47D31"/>
<path d="M112.275 64.6855L112.032 64.4806C112.26 64.2116 112.427 64.0005 112.532 63.8695L112.582 63.8046H112.664C112.931 63.8159 113.195 63.8242 113.455 63.8296L113.449 64.1476C113.211 64.1429 112.973 64.1355 112.733 64.1255C112.625 64.2615 112.472 64.4525 112.275 64.6855Z" fill="#F7F7F7"/>
<path d="M100.787 71.1524C100.593 71.1524 100.397 71.1464 100.199 71.1344L100.218 70.8164C100.793 70.8511 101.369 70.8337 101.94 70.7644L101.978 71.0804C101.583 71.128 101.185 71.1521 100.787 71.1524ZM103.718 70.7224L103.629 70.4174C104.183 70.2552 104.726 70.0547 105.252 69.8174L105.382 70.1074C104.843 70.3505 104.287 70.556 103.719 70.7224H103.718ZM106.951 69.2884L106.788 69.0154C107.27 68.7274 107.757 68.4034 108.234 68.0514L108.423 68.3074C107.942 68.6644 107.442 68.9944 106.952 69.2884H106.951ZM109.8 67.2004L109.591 66.9604C110.021 66.5854 110.447 66.1824 110.858 65.7604L111.084 65.9834C110.668 66.4114 110.236 66.8194 109.8 67.2004Z" fill="#F7F7F7"/>
<path d="M98.4364 70.865C98.1764 70.8 97.9164 70.723 97.6614 70.637L97.1064 70.449L97.6805 70.331C97.9282 70.2792 98.1694 70.1997 98.3994 70.094L98.5314 70.384C98.4444 70.423 98.3564 70.46 98.2684 70.492C98.3504 70.515 98.4315 70.537 98.5125 70.557L98.4364 70.865Z" fill="#F7F7F7"/>
<path d="M99.9952 69.2965L99.7632 69.0785C100.155 68.6546 100.493 68.1844 100.77 67.6785L101.048 67.8335C100.758 68.3624 100.405 68.8537 99.9952 69.2965ZM101.778 66.1905L101.478 66.0905C101.669 65.5401 101.821 64.9767 101.931 64.4045L102.244 64.4645C102.13 65.0503 101.974 65.6271 101.777 66.1905H101.778Z" fill="#F7F7F7"/>
<path d="M102.458 62.6778L102.14 62.6638C102.15 62.4338 102.153 62.2068 102.149 61.9868C101.933 61.9048 101.718 61.8207 101.505 61.7347L101.624 61.4348C101.868 61.5334 102.114 61.6294 102.361 61.7227L102.461 61.7607V61.8678C102.472 62.1308 102.47 62.4018 102.458 62.6778Z" fill="#F7F7F7"/>
<path d="M115.101 64.1427L115.092 63.8247C115.621 63.8097 116.153 63.7817 116.674 63.7427L116.698 64.0597C116.172 64.0997 115.635 64.1277 115.101 64.1427ZM118.289 63.8997L118.25 63.5847C118.771 63.5197 119.297 63.4408 119.816 63.3508L119.871 63.6637C119.347 63.7557 118.816 63.8347 118.289 63.9007V63.8997ZM121.439 63.3498L121.369 63.0398C121.886 62.9228 122.402 62.7928 122.905 62.6528L122.99 62.9588C122.483 63.1018 121.961 63.2338 121.439 63.3508V63.3498ZM124.52 62.4918L124.42 62.1919C124.92 62.0259 125.42 61.8449 125.909 61.6519L126.025 61.9519C125.53 62.1419 125.024 62.3248 124.52 62.4928V62.4918ZM127.498 61.3239L127.366 61.0349C127.846 60.817 128.325 60.584 128.79 60.343L128.937 60.625C128.466 60.87 127.984 61.1059 127.499 61.3259L127.498 61.3239ZM100.035 61.0959C99.5542 60.873 99.0712 60.634 98.6013 60.386L98.7492 60.105C99.2142 60.35 99.6912 60.587 100.168 60.805L100.035 61.0959ZM130.333 59.8481L130.171 59.5741C130.625 59.3061 131.07 59.0221 131.51 58.7311L131.687 58.9961C131.251 59.2921 130.795 59.5821 130.338 59.8501L130.333 59.8481ZM97.2024 59.6041C96.7444 59.3311 96.2885 59.0431 95.8495 58.7502L96.0265 58.4852C96.4614 58.7762 96.9114 59.0601 97.3654 59.3301L97.2024 59.6041ZM132.991 58.0672L132.799 57.8132C133.22 57.4953 133.635 57.1623 134.033 56.8233L134.239 57.0653C133.841 57.4103 133.421 57.7472 132.996 58.0692L132.991 58.0672ZM94.5436 57.8242C94.1176 57.5053 93.6957 57.1703 93.2897 56.8243L93.4897 56.5813C93.8897 56.9183 94.3086 57.2493 94.7296 57.5652L94.5436 57.8242ZM135.426 55.9904L135.206 55.7614C135.587 55.3944 135.958 55.0135 136.306 54.6295L136.54 54.8445C136.193 55.2345 135.817 55.6204 135.431 55.9924L135.426 55.9904ZM92.0938 55.7664C91.7069 55.4024 91.3259 55.0225 90.9599 54.6365L91.1909 54.4175C91.5519 54.7985 91.9288 55.1745 92.3118 55.5344L92.0938 55.7664ZM137.59 53.6316L137.342 53.4316C137.672 53.0227 137.991 52.5977 138.291 52.1697L138.551 52.3517C138.25 52.7887 137.926 53.2186 137.592 53.6336L137.59 53.6316ZM89.894 53.4416C89.551 53.0326 89.2171 52.6097 88.9011 52.1847L89.1561 51.9957C89.468 52.4167 89.798 52.8337 90.137 53.2376L89.894 53.4416ZM139.424 51.0128L139.152 50.8478C139.425 50.3949 139.684 49.9309 139.921 49.4689L140.204 49.6139C139.965 50.0829 139.705 50.5549 139.428 51.0148L139.424 51.0128ZM87.9882 50.8678C87.6982 50.4199 87.4202 49.9579 87.1612 49.4949L87.4392 49.34C87.6942 49.7969 87.9692 50.2519 88.2562 50.6949L87.9882 50.8678ZM140.884 48.1681L140.591 48.0431C140.797 47.5591 140.991 47.0632 141.158 46.5682L141.458 46.6682C141.291 47.1711 141.098 47.6751 140.888 48.1661L140.884 48.1681ZM86.4253 48.0751C86.1963 47.5921 85.9824 47.0972 85.7884 46.6042L86.0883 46.4882C86.2793 46.9742 86.4883 47.4621 86.7173 47.9391L86.4253 48.0751ZM141.921 45.1353L141.614 45.0543C141.747 44.5474 141.863 44.0294 141.958 43.5135L142.271 43.5715C142.179 44.0924 142.065 44.6184 141.927 45.1333L141.921 45.1353ZM85.2534 45.0933C85.0944 44.5854 84.9534 44.0654 84.8294 43.5485L85.1384 43.4755C85.2594 43.9854 85.4004 44.4984 85.5574 44.9993L85.2534 45.0933ZM142.502 41.9866L142.187 41.9526C142.215 41.6959 142.238 41.438 142.258 41.1787C142.277 40.9194 142.291 40.6527 142.301 40.3787L142.619 40.3897C142.609 40.6597 142.595 40.9307 142.575 41.2027C142.556 41.4746 142.534 41.7349 142.508 41.9836L142.502 41.9866ZM84.5175 41.9766C84.4335 41.4516 84.3675 40.9167 84.3175 40.3867L84.6345 40.3597C84.6795 40.8827 84.7445 41.4096 84.8275 41.9266L84.5175 41.9766ZM142.301 38.7969C142.281 38.2739 142.242 37.744 142.183 37.222L142.498 37.187C142.557 37.716 142.598 38.2539 142.618 38.7869L142.301 38.7969ZM84.2495 38.7839V38.5259C84.2495 38.0799 84.2635 37.626 84.2915 37.181L84.6085 37.201C84.5815 37.641 84.5675 38.0869 84.5675 38.5259V38.7799L84.2495 38.7839ZM141.957 35.6621C141.857 35.1502 141.745 34.6322 141.611 34.1233L141.918 34.0423C142.054 34.5592 142.172 35.0842 142.268 35.6041L141.957 35.6621ZM84.7615 35.6301L84.4465 35.5871C84.5185 35.0582 84.6105 34.5272 84.7204 34.0083L85.0314 34.0743C84.9224 34.5842 84.8314 35.1072 84.7605 35.6281L84.7615 35.6301ZM141.157 32.6114C140.988 32.1114 140.799 31.6185 140.595 31.1345L140.888 31.0115C141.094 31.5025 141.288 32.0114 141.458 32.5114L141.157 32.6114ZM85.4174 32.5434L85.1114 32.4554C85.2594 31.9455 85.4284 31.4335 85.6114 30.9325L85.9114 31.0435C85.7264 31.5345 85.5594 32.0395 85.4144 32.5414L85.4174 32.5434ZM139.933 29.6987C139.698 29.2327 139.443 28.7647 139.175 28.3098L139.449 28.1478C139.721 28.6087 139.979 29.0827 140.217 29.5557L139.933 29.6987ZM86.5163 29.5827L86.2273 29.4507C86.4473 28.9687 86.6873 28.4868 86.9433 28.0178L87.2222 28.1698C86.9693 28.6297 86.7293 29.1057 86.5133 29.5847L86.5163 29.5827ZM138.327 26.9719C138.035 26.5419 137.727 26.111 137.398 25.692L137.649 25.497C137.977 25.921 138.294 26.3569 138.59 26.7969L138.327 26.9719ZM88.0252 26.8099L87.7572 26.6389C88.0422 26.192 88.3462 25.749 88.6621 25.32L88.9181 25.509C88.6031 25.929 88.3022 26.3669 88.0212 26.8079L88.0252 26.8099ZM136.392 24.4721C136.046 24.0781 135.684 23.6882 135.314 23.3132L135.541 23.0902C135.915 23.4692 136.281 23.8642 136.631 24.2621L136.392 24.4721ZM89.896 24.2721L89.653 24.0671C89.993 23.6672 90.353 23.2672 90.723 22.8762L90.9529 23.0962C90.5839 23.4712 90.229 23.8672 89.892 24.2661L89.896 24.2721ZM134.171 22.2223C133.783 21.8723 133.378 21.5224 132.971 21.1944L133.171 20.9474C133.586 21.2824 133.996 21.6323 134.388 21.9873L134.171 22.2223ZM92.0818 21.9883L91.8668 21.7543C92.2548 21.3954 92.6668 21.0424 93.0757 20.7044L93.2757 20.9504C92.8687 21.2794 92.4618 21.6284 92.0778 21.9853L92.0818 21.9883ZM131.709 20.2345C131.284 19.9275 130.843 19.6275 130.401 19.3435L130.573 19.0766C131.02 19.3645 131.465 19.6675 131.895 19.9765L131.709 20.2345ZM94.5296 19.9865L94.3436 19.7285C94.7706 19.4195 95.2156 19.1156 95.6665 18.8286L95.8375 19.0956C95.3885 19.3745 94.9486 19.6745 94.5266 19.9805L94.5296 19.9865ZM129.047 18.5226C128.592 18.2626 128.123 18.0107 127.647 17.7727L127.79 17.4887C128.266 17.7287 128.74 17.9837 129.199 18.2456L129.047 18.5226ZM97.1934 18.2776L97.0374 18.0007C97.4994 17.7397 97.9753 17.4877 98.4513 17.2507L98.5923 17.5357C98.1173 17.7637 97.6473 18.0127 97.1894 18.2716L97.1934 18.2776ZM126.22 17.0947C125.743 16.8828 125.25 16.6798 124.757 16.4898L124.871 16.1898C125.371 16.3818 125.871 16.5898 126.349 16.8008L126.22 17.0947ZM100.028 16.8708L99.9022 16.5788C100.387 16.3688 100.886 16.1688 101.387 15.9788L101.497 16.2788C100.999 16.4588 100.504 16.6568 100.024 16.8648L100.028 16.8708ZM123.266 15.9518C122.766 15.7879 122.257 15.6329 121.75 15.4939L121.834 15.1879C122.346 15.3289 122.861 15.4879 123.365 15.6509L123.266 15.9518ZM102.997 15.7619L102.902 15.4619C103.409 15.3029 103.926 15.1549 104.439 15.0209L104.519 15.3279C104.007 15.4579 103.494 15.6039 102.992 15.7619H102.997ZM120.213 15.1089C119.7 14.9939 119.178 14.8889 118.66 14.7979L118.715 14.485C119.237 14.577 119.764 14.685 120.282 14.7989L120.213 15.1089ZM106.062 14.9659L105.997 14.655C106.515 14.548 107.044 14.455 107.57 14.369L107.619 14.683C107.095 14.7639 106.568 14.8599 106.058 14.9659H106.062ZM117.094 14.561C116.574 14.495 116.044 14.439 115.518 14.397L115.543 14.08C116.073 14.123 116.609 14.18 117.134 14.246L117.094 14.561ZM109.194 14.476L109.16 14.16C109.688 14.103 110.224 14.06 110.754 14.027L110.773 14.345C110.24 14.375 109.708 14.419 109.186 14.475L109.194 14.476ZM113.94 14.306C113.407 14.288 112.879 14.282 112.356 14.288V13.97C112.889 13.9627 113.423 13.9687 113.956 13.988L113.94 14.306Z" fill="#F7F7F7"/>
<g style="mix-blend-mode:multiply">
<path d="M108.517 42.5754C107.838 33.3082 102.853 25.2359 95.3401 19.6664C88.1727 24.002 83.2972 30.9894 82.6972 39.1647C82.6882 39.2927 82.6852 39.4207 82.6782 39.5487C83.2782 49.6568 90.5356 58.541 100.945 62.7097C100.882 63.5458 100.742 64.3743 100.526 65.1845L100.626 65.2275C103.381 62.1659 105.498 58.5857 106.853 54.6962C108.208 50.8068 108.774 46.6861 108.517 42.5754Z" fill="#504C99"/>
</g>
<path d="M69.1782 74.8777C90.8628 73.2887 107.337 56.9292 105.975 38.3377C104.613 19.7463 85.9293 5.96303 64.2448 7.55202C42.5602 9.14101 26.0858 25.5005 27.4482 44.092C28.8105 62.6834 47.4937 76.4667 69.1782 74.8777Z" fill="#504C99"/>
<path d="M39.5963 49.561C38.4464 33.8624 52.5422 20.0406 71.0816 18.6807C87.9181 17.4468 102.629 26.92 106.05 40.4268C106.05 39.7339 106.025 39.0369 105.974 38.336C104.611 19.7446 85.9273 5.96177 64.2442 7.55064C42.5611 9.1395 26.0855 25.5001 27.4474 44.0915C28.7292 61.567 45.3078 74.7918 65.3061 74.9978C51.3133 72.441 40.5342 62.3549 39.5963 49.561Z" fill="#463989"/>
<path d="M64.8789 72.5618C64.8789 72.5618 75.673 90.4063 92.0066 81.1751C82.4734 82.545 81.3885 70.724 83.5333 63.6026L64.8789 72.5618Z" fill="#504C99"/>
<path d="M68.0958 74.1118C67.9048 73.8808 67.7538 73.6918 67.6458 73.5538C67.4072 73.5638 67.1688 73.5718 66.9308 73.5778L66.9229 73.2598C67.1862 73.2531 67.4502 73.2441 67.7148 73.2328H67.7968L67.8468 73.2978C67.9538 73.4368 68.1198 73.6468 68.3398 73.9128L68.0958 74.1118Z" fill="#F7F7F7"/>
<path d="M82.9057 82.5239V82.206C83.4267 82.2045 83.9471 82.1691 84.4636 82.1L84.5056 82.415C83.9752 82.4861 83.4408 82.5225 82.9057 82.5239ZM81.3058 82.424C80.7756 82.3575 80.2498 82.2599 79.731 82.132L79.807 81.823C80.3136 81.948 80.8271 82.0431 81.3448 82.108L81.3058 82.424ZM78.2011 81.668C77.7121 81.492 77.2152 81.285 76.7262 81.0551L76.8612 80.7681C77.3422 80.9941 77.8291 81.1971 78.3091 81.368L78.2011 81.668ZM75.3104 80.3151C74.8614 80.0572 74.4104 79.7722 73.9575 79.4692L74.1354 79.2062C74.5784 79.5062 75.0264 79.7852 75.4683 80.0402L75.3104 80.3151ZM72.6656 78.5343C72.2526 78.2143 71.8376 77.8733 71.4347 77.5214L71.6437 77.2814C72.0436 77.6294 72.4526 77.9663 72.8606 78.2813L72.6656 78.5343ZM70.2658 76.4424C69.8848 76.0735 69.5108 75.6895 69.1509 75.3045L69.3839 75.0876C69.7398 75.4696 70.1108 75.8495 70.4838 76.2145L70.2658 76.4424Z" fill="#F7F7F7"/>
<path d="M86.0814 82.0971L85.9984 81.7901L86.2354 81.7241C86.1504 81.6951 86.0654 81.6641 85.9824 81.6311L86.1014 81.3311C86.3383 81.4267 86.5833 81.501 86.8334 81.5531L87.4074 81.6711L86.8524 81.8591C86.6004 81.9481 86.3414 82.0271 86.0814 82.0971Z" fill="#F7F7F7"/>
<path d="M84.5129 80.7338C84.0778 80.3628 83.6857 79.9442 83.3439 79.4858L83.5979 79.2938C83.9245 79.7346 84.2999 80.1372 84.7169 80.4938L84.5129 80.7338ZM82.4379 78.0448C82.1756 77.5429 81.9454 77.0249 81.7489 76.4938L82.0489 76.3828C82.2406 76.9012 82.4651 77.4068 82.7209 77.8968L82.4379 78.0448ZM81.2479 74.8748C81.1103 74.3265 81.0014 73.7714 80.9219 73.2118L81.2369 73.1668C81.3148 73.7154 81.4216 74.2595 81.5569 74.7968L81.2479 74.8748Z" fill="#F7F7F7"/>
<path d="M80.7765 71.521C80.7685 71.248 80.7685 70.977 80.7765 70.721V70.614L80.8765 70.576C81.1245 70.4827 81.3708 70.3874 81.6155 70.29L81.7325 70.59C81.5192 70.6754 81.3045 70.7587 81.0885 70.84C81.0885 71.061 81.0885 71.289 81.0885 71.519L80.7765 71.521Z" fill="#F7F7F7"/>
<path d="M65.279 73.5877C64.745 73.5807 64.2091 73.5637 63.6862 73.5377L63.7021 73.2208C64.2211 73.2458 64.7531 73.2628 65.284 73.2698L65.279 73.5877ZM62.0953 73.4287C61.5683 73.3838 61.0354 73.3288 60.5104 73.2608L60.5494 72.9458C61.0704 73.0108 61.5993 73.0668 62.1223 73.1128L62.0953 73.4287ZM58.9325 73.0288C58.4106 72.9438 57.8826 72.8468 57.3647 72.7418L57.4277 72.4298C57.9416 72.5298 58.4656 72.6298 58.9836 72.7158L58.9325 73.0288ZM55.8088 72.3938C55.2899 72.2669 54.7709 72.1299 54.268 71.9859L54.355 71.6799C54.8549 71.8219 55.3689 71.9589 55.8848 72.0799L55.8088 72.3938ZM52.7431 71.5179C52.2381 71.3519 51.7312 71.1739 51.2432 70.99L51.3552 70.69C51.8442 70.873 52.3461 71.049 52.8471 71.2149L52.7431 71.5179ZM49.7573 70.401C49.2694 70.195 48.7784 69.977 48.3005 69.7521L48.4355 69.4651C48.9094 69.6881 49.3954 69.9041 49.8803 70.108L49.7573 70.401ZM83.2055 69.9601L83.0765 69.6691C83.5574 69.4561 84.0394 69.2301 84.5094 68.9981L84.6493 69.2831C84.1754 69.5221 83.6894 69.7491 83.2055 69.964V69.9601ZM46.8726 69.0431C46.4046 68.7991 45.9347 68.5432 45.4727 68.2752L45.6317 68.0002C46.0877 68.2632 46.5536 68.5202 47.0176 68.7611L46.8726 69.0431ZM86.0692 68.5512L85.9182 68.2722C86.3792 68.0212 86.8421 67.7582 87.2931 67.4893L87.4561 67.7622C86.9951 68.0382 86.5302 68.3042 86.0652 68.5562L86.0692 68.5512ZM44.1148 67.4513C43.6679 67.1663 43.2219 66.8683 42.7889 66.5643L42.9709 66.3044C43.3999 66.6043 43.8418 66.9043 44.2848 67.1833L44.1148 67.4513ZM88.811 66.9223L88.637 66.6563C89.0759 66.3704 89.5149 66.0694 89.9419 65.7644L90.1269 66.0224C89.6899 66.3304 89.2459 66.6333 88.804 66.9223H88.811ZM41.5071 65.6224C41.0861 65.2985 40.6691 64.9605 40.2662 64.6225L40.4721 64.3795C40.8721 64.7175 41.2851 65.0515 41.701 65.3734L41.5071 65.6224ZM91.4028 65.0705L91.2028 64.8195C91.6147 64.4985 92.0267 64.1615 92.4277 63.8196L92.6337 64.0616C92.2297 64.4045 91.8137 64.7435 91.3948 65.0675L91.4028 65.0705ZM39.0713 63.5606C38.6813 63.1976 38.2973 62.8217 37.9304 62.4457L38.1583 62.2237C38.5223 62.5967 38.9023 62.9687 39.2882 63.3236L39.0713 63.5606ZM93.8285 63.0006L93.6116 62.7677C93.9945 62.4107 94.3755 62.0397 94.7435 61.6678L94.9704 61.8907C94.5945 62.2627 94.2105 62.6377 93.8245 62.9977L93.8285 63.0006ZM36.8445 61.2768C36.4935 60.8768 36.1445 60.4689 35.8206 60.0569L36.0695 59.8569C36.3945 60.2639 36.7355 60.6708 37.0834 61.0638L36.8445 61.2768ZM96.0633 60.7208L95.8264 60.5089C96.1753 60.1179 96.5263 59.7089 96.8533 59.309L97.1003 59.509C96.7603 59.9149 96.4113 60.3239 96.0594 60.7179L96.0633 60.7208ZM34.8556 58.779C34.5457 58.346 34.2447 57.9021 33.9617 57.4601L34.2297 57.2881C34.5097 57.7251 34.8066 58.1651 35.1136 58.594L34.8556 58.779ZM98.0732 58.2341L97.8172 58.0451C98.1292 57.6211 98.4341 57.1851 98.7231 56.7452L98.9881 56.9212C98.6941 57.3701 98.3892 57.8101 98.0732 58.2391V58.2341ZM33.1398 56.0933C32.8788 55.6313 32.6268 55.1573 32.3928 54.6844L32.6778 54.5434C32.9098 55.0113 33.1588 55.4803 33.4178 55.9363L33.1398 56.0933ZM99.834 55.5713L99.561 55.4093C99.828 54.9583 100.088 54.4934 100.332 54.0294L100.613 54.1774C100.37 54.6514 100.108 55.1203 99.838 55.5793L99.834 55.5713ZM31.7199 53.2355C31.5109 52.7465 31.3129 52.2466 31.133 51.7506L31.4329 51.6426C31.6109 52.1336 31.8059 52.6275 32.0129 53.1115L31.7199 53.2355ZM101.314 52.7445L101.025 52.6115C101.244 52.1346 101.453 51.6456 101.646 51.1587L101.946 51.2757C101.755 51.7726 101.544 52.2666 101.322 52.7485L101.314 52.7445ZM30.627 50.2327C30.475 49.7228 30.335 49.2028 30.213 48.6879L30.522 48.6149C30.643 49.1238 30.78 49.6378 30.931 50.1418L30.627 50.2327ZM102.494 49.7798L102.194 49.6798C102.36 49.1798 102.514 48.6799 102.652 48.1689L102.959 48.2529C102.821 48.7649 102.665 49.2798 102.494 49.7798ZM29.9001 47.129C29.8081 46.6081 29.7291 46.0771 29.6671 45.5502L29.983 45.5132C30.045 46.0341 30.122 46.5591 30.213 47.074L29.9001 47.129ZM103.341 46.7021L103.03 46.6361C103.139 46.1251 103.235 45.6031 103.315 45.0842L103.629 45.1332C103.546 45.6572 103.449 46.1851 103.338 46.7021H103.341ZM29.5261 43.9593C29.4941 43.4293 29.4771 42.8924 29.4751 42.3594H29.7931C29.7931 42.8824 29.8111 43.4133 29.8431 43.9373L29.5261 43.9593ZM103.828 43.5503L103.511 43.5193C103.562 43.0004 103.597 42.4704 103.617 41.9445L103.935 41.9565C103.911 42.4894 103.876 43.0254 103.825 43.5503H103.828ZM29.8341 40.7836L29.5171 40.7666C29.5461 40.2366 29.5901 39.7017 29.6501 39.1757L29.9661 39.2117C29.9001 39.7307 29.8591 40.2606 29.8301 40.7806L29.8341 40.7836ZM103.628 40.3666C103.618 39.8776 103.596 39.3797 103.56 38.8877L103.552 38.7877L103.869 38.7637L103.877 38.8637C103.913 39.3637 103.936 39.8636 103.946 40.3636L103.628 40.3666ZM30.183 37.6488L29.8701 37.5948C29.9591 37.0739 30.065 36.5489 30.183 36.032L30.493 36.104C30.376 36.6149 30.271 37.1339 30.183 37.6488ZM103.387 37.2199C103.317 36.7039 103.231 36.18 103.131 35.663L103.443 35.603C103.543 36.126 103.631 36.6559 103.701 37.1779L103.387 37.2199ZM30.893 34.5781L30.588 34.4891C30.736 33.9802 30.9 33.4692 31.075 32.9702L31.3749 33.0752C31.1999 33.5692 31.036 34.0751 30.89 34.5811L30.893 34.5781ZM102.787 34.1231C102.658 33.6142 102.512 33.1032 102.353 32.6033L102.653 32.5033C102.814 33.0092 102.961 33.5262 103.092 34.0412L102.787 34.1231ZM31.9369 31.6004L31.6429 31.4784C31.8429 30.9904 32.0639 30.4995 32.2928 30.0195L32.5798 30.1565C32.3528 30.6314 32.1369 31.1174 31.9369 31.6004ZM101.831 31.1114C101.645 30.6224 101.442 30.1315 101.231 29.6525L101.521 29.5225C101.738 30.0075 101.943 30.5035 102.132 30.9984L101.831 31.1114ZM33.2998 28.7476L33.0208 28.5956C33.2718 28.1327 33.5417 27.6667 33.8207 27.2107L34.0917 27.3767C33.8147 27.8297 33.5477 28.2906 33.2998 28.7476ZM100.546 28.2297C100.307 27.7657 100.051 27.3007 99.785 26.8478L100.059 26.6868C100.328 27.1447 100.586 27.6147 100.828 28.0867L100.546 28.2297ZM34.9516 26.0478L34.6886 25.8689C34.9886 25.4339 35.2996 24.9989 35.6206 24.574L35.8735 24.7659C35.5556 25.1819 35.2456 25.6179 34.9516 26.0488V26.0478ZM98.9461 25.5089C98.6571 25.0719 98.3532 24.638 98.0462 24.217L98.3022 24.028C98.6161 24.453 98.9241 24.8919 99.2151 25.3339L98.9461 25.5089ZM36.8515 23.5291L36.6075 23.3291C36.9464 22.9231 37.3004 22.5191 37.6584 22.1292L37.8924 22.3442C37.5444 22.7271 37.1944 23.1281 36.8585 23.53L36.8515 23.5291ZM97.0713 22.9731C96.7393 22.5731 96.3913 22.1662 96.0384 21.7732L96.2733 21.5592C96.6303 21.9522 96.9813 22.3592 97.3162 22.7661L97.0713 22.9731ZM38.9993 21.2013L38.7753 20.9763C39.1493 20.6043 39.5372 20.2353 39.9312 19.8764L40.1452 20.1114C39.7502 20.4663 39.3652 20.8333 38.9993 21.2013ZM94.9584 20.6353C94.5905 20.2673 94.2045 19.9014 93.8135 19.5464L94.0275 19.3104C94.4225 19.6684 94.8115 20.0384 95.1834 20.4103L94.9584 20.6353ZM41.3371 19.0744L41.1371 18.8305C41.5421 18.4935 41.962 18.1585 42.385 17.8365L42.578 18.0895C42.152 18.4085 41.735 18.7395 41.3331 19.0744H41.3371ZM92.6176 18.5135C92.2177 18.1805 91.7957 17.8515 91.3757 17.5356L91.5657 17.2816C91.9897 17.6006 92.4117 17.9315 92.8196 18.2685L92.6176 18.5135ZM43.8518 17.1586L43.6699 16.8976C44.1018 16.5976 44.5478 16.2977 44.9968 16.0127L45.1677 16.2807C44.7188 16.5636 44.2768 16.8586 43.8479 17.1576L43.8518 17.1586ZM90.0899 16.6166C89.6559 16.3167 89.2099 16.0297 88.765 15.7537L88.933 15.4837C89.3819 15.7617 89.8329 16.0547 90.2699 16.3537L90.0899 16.6166ZM46.5186 15.4588L46.3586 15.1838C46.8156 14.9188 47.2846 14.6578 47.7535 14.4108L47.9015 14.6918C47.4335 14.9368 46.9686 15.1948 46.5146 15.4577L46.5186 15.4588ZM87.4041 14.9498C86.9451 14.6918 86.4762 14.4418 86.0042 14.2039L86.1482 13.9209C86.6192 14.1599 87.0921 14.4128 87.5551 14.6728L87.4041 14.9498ZM49.3154 13.9809L49.1784 13.6939C49.6564 13.4649 50.1453 13.2429 50.6303 13.034L50.7563 13.3259C50.2693 13.5329 49.7853 13.7529 49.3104 13.9829L49.3154 13.9809ZM84.5843 13.5179C84.1064 13.2999 83.6174 13.0889 83.1325 12.891L83.2525 12.597C83.7424 12.797 84.2344 13.009 84.7163 13.2289L84.5843 13.5179ZM52.2201 12.728L52.1061 12.428C52.6001 12.238 53.1061 12.054 53.606 11.8831L53.706 12.183C53.2061 12.357 52.7051 12.539 52.2151 12.728H52.2201ZM81.6566 12.328C81.1636 12.15 80.6567 11.9801 80.1567 11.8211L80.2567 11.5211C80.7617 11.6811 81.2696 11.8531 81.7666 12.033L81.6566 12.328ZM55.2139 11.7081L55.1229 11.4081C55.6308 11.2561 56.1468 11.1081 56.6578 10.9791L56.7377 11.2871C56.2248 11.4101 55.7118 11.5531 55.2089 11.7041L55.2139 11.7081ZM78.6409 11.3731C78.1409 11.2351 77.6209 11.1051 77.107 10.9851L77.179 10.6762C77.6959 10.7961 78.2159 10.9271 78.7238 11.0671L78.6409 11.3731ZM58.2756 10.9131L58.2076 10.6032C58.7256 10.4892 59.2515 10.3842 59.7705 10.2902L59.8275 10.6032C59.3065 10.6922 58.7846 10.7972 58.2706 10.9091L58.2756 10.9131ZM75.5601 10.6572C75.0462 10.5572 74.5212 10.4682 74.0013 10.3882L74.0493 10.0742C74.5742 10.1542 75.1022 10.2452 75.6201 10.3452L75.5601 10.6572ZM61.3883 10.3492L61.3434 10.0342C61.8643 9.95922 62.3963 9.89322 62.9252 9.83423L62.9592 10.1502C62.4293 10.2052 61.8973 10.2712 61.3833 10.3452L61.3883 10.3492ZM72.4324 10.1802C71.9104 10.1212 71.3805 10.0702 70.8575 10.0302L70.8815 9.71325C71.4085 9.75324 71.9424 9.80424 72.4684 9.86423L72.4324 10.1802ZM64.5331 10.0132L64.5101 9.69625C65.038 9.65925 65.573 9.63125 66.1019 9.61326L66.1129 9.93123C65.585 9.94523 65.053 9.97323 64.5301 10.0092L64.5331 10.0132ZM69.2767 9.93822C68.7527 9.91822 68.2207 9.90723 67.6948 9.90523V9.58325C68.2247 9.58325 68.7607 9.59526 69.2887 9.61625L69.2767 9.93822Z" fill="#F7F7F7"/>
<path d="M66.5075 20.7143C68.1333 20.654 69.754 20.93 71.2682 21.5252C72.7823 22.1204 74.1572 23.0218 75.3068 24.173C76.3883 25.213 77.2479 26.4613 77.8336 27.8427C78.4193 29.2241 78.719 30.7099 78.7145 32.2103C78.7283 33.5976 78.4603 34.9733 77.9265 36.254C77.4953 37.3481 76.8462 38.3431 76.0187 39.1787C75.323 39.851 74.565 40.4557 73.7549 40.9846C73.1522 41.3895 72.5136 41.7382 71.8471 42.0265L71.0331 42.2804C71.0331 42.8574 71.0071 49.5938 70.9561 49.8988C70.8805 50.2598 70.7239 50.599 70.4982 50.8907C70.1781 51.2878 69.7273 51.5582 69.2263 51.6536C68.4502 51.8252 67.6561 51.9021 66.8615 51.8826C66.065 51.9047 65.2692 51.8189 64.4957 51.6276C63.9825 51.5159 63.5344 51.2052 63.2498 50.7637C63.0399 50.4287 62.8935 50.0579 62.8178 49.6698C62.7668 49.3478 62.7419 42.5524 62.7419 41.8705C62.7449 41.8105 62.7533 41.751 62.7669 41.6925C62.7826 41.6172 62.791 41.5405 62.7919 41.4635C62.758 40.833 62.8508 40.2021 63.0648 39.6081C63.2788 39.0141 63.6096 38.4689 64.0377 38.0048C64.7787 37.2121 65.7185 36.6323 66.7595 36.326C67.7482 36.052 68.6729 35.5851 69.4803 34.9521C69.8775 34.66 70.1983 34.2762 70.4154 33.8335C70.6325 33.3908 70.7394 32.9022 70.7272 32.4093C70.7598 31.9275 70.6931 31.4442 70.5313 30.9892C70.3694 30.5343 70.1158 30.1174 69.7863 29.7645C68.8475 29.056 67.6755 28.7288 66.5055 28.8486C65.6933 28.8125 64.8883 29.0159 64.1907 29.4336C63.7038 29.702 63.3192 30.1238 63.0968 30.6334L62.9438 31.2434C62.7202 31.9754 62.3576 32.6574 61.8759 33.2522C61.6556 33.4865 61.3864 33.6695 61.0875 33.7882C60.7885 33.9069 60.4671 33.9585 60.1461 33.9392C59.4464 33.9059 58.7579 33.7513 58.1112 33.4822C57.1406 33.1541 56.2372 32.6534 55.4445 32.0043C55.2185 31.8074 55.0361 31.5654 54.909 31.2938C54.7819 31.0223 54.713 30.7272 54.7065 30.4275C54.7706 29.8201 54.9072 29.2225 55.1135 28.6476L55.2135 28.3936C55.2802 28.1897 55.3818 27.9097 55.5185 27.5537C55.8238 26.9017 56.1901 26.28 56.6124 25.6969C57.1872 24.8393 57.8735 24.0619 58.6532 23.3851C59.6235 22.6039 60.7143 21.9855 61.8829 21.5542C63.356 20.9792 64.9263 20.694 66.5075 20.7143ZM66.7615 53.7445C68.592 53.7445 69.8636 54.1004 70.5762 54.8124C71.1861 55.423 71.4911 56.6775 71.4911 58.576C71.5024 59.1796 71.4689 59.7832 71.3911 60.3819C71.2967 60.8801 71.125 61.3606 70.8822 61.8058C70.7291 62.0809 70.5216 62.322 70.2724 62.5144C70.0231 62.7068 69.7373 62.8464 69.4323 62.9247C68.5466 63.1702 67.6292 63.2817 66.7105 63.2556C65.3347 63.383 63.9598 63.0028 62.8448 62.1867C62.1839 61.3534 61.874 60.2952 61.9809 59.237V58.4231C61.9721 57.8285 61.9974 57.2339 62.0569 56.6422C62.1357 56.1512 62.2991 55.6775 62.5399 55.2423C62.8522 54.6835 63.3738 54.2717 63.9898 54.0974C64.8891 53.8334 65.8247 53.7143 66.7615 53.7445Z" fill="white"/>
<path d="M114.727 22.8571C115.943 22.812 117.155 23.0186 118.288 23.4639C119.421 23.9092 120.449 24.5836 121.309 25.4448C122.118 26.2227 122.761 27.1564 123.199 28.1897C123.637 29.2229 123.861 30.3341 123.858 31.4563C123.868 32.4941 123.668 33.5231 123.269 34.4811C122.946 35.2996 122.46 36.044 121.841 36.6689C121.321 37.1718 120.754 37.6241 120.148 38.0198C119.697 38.3229 119.22 38.5839 118.721 38.7997L118.112 38.9897C118.112 39.4216 118.093 44.4602 118.054 44.6892C117.998 44.9592 117.881 45.2129 117.712 45.4311C117.473 45.728 117.136 45.9303 116.761 46.0021C116.181 46.1302 115.586 46.1876 114.992 46.1731C114.396 46.1899 113.801 46.126 113.223 45.9831C112.839 45.8993 112.504 45.6671 112.291 45.3371C112.134 45.0865 112.025 44.8093 111.968 44.5192C111.93 44.2782 111.911 39.1947 111.911 38.6867C111.913 38.6419 111.92 38.5974 111.93 38.5537C111.942 38.4975 111.948 38.4402 111.949 38.3827C111.924 37.911 111.993 37.439 112.153 36.9946C112.313 36.5502 112.561 36.1423 112.881 35.795C113.435 35.2019 114.138 34.7682 114.917 34.5391C115.656 34.334 116.348 33.9847 116.951 33.5112C117.248 33.293 117.488 33.0063 117.651 32.6755C117.813 32.3448 117.893 31.9797 117.884 31.6113C117.909 31.2511 117.86 30.8897 117.74 30.5493C117.619 30.2089 117.43 29.8969 117.184 29.6325C116.482 29.1026 115.606 28.8579 114.731 28.9476C114.123 28.9201 113.521 29.0721 112.999 29.3845C112.635 29.5845 112.348 29.8987 112.181 30.2784L112.067 30.7354C111.899 31.282 111.627 31.7912 111.267 32.2353C111.102 32.4105 110.901 32.5474 110.677 32.6362C110.454 32.725 110.213 32.7636 109.973 32.7492C109.45 32.7243 108.935 32.6086 108.451 32.4073C107.724 32.1639 107.046 31.7913 106.451 31.3073C106.282 31.1599 106.146 30.9789 106.051 30.7757C105.956 30.5725 105.904 30.3517 105.899 30.1274C105.946 29.6731 106.046 29.2259 106.199 28.7956L106.275 28.6056C106.326 28.4529 106.402 28.2436 106.503 27.9776C106.732 27.4899 107.005 27.0249 107.321 26.5888C107.75 25.9469 108.261 25.3649 108.843 24.8579C109.569 24.2733 110.385 23.8106 111.26 23.488C112.364 23.056 113.541 22.8418 114.727 22.8571ZM114.917 47.5649C115.935 47.4563 116.957 47.7426 117.77 48.3649C118.333 49.1894 118.576 50.19 118.455 51.1806C118.463 51.6322 118.438 52.0837 118.379 52.5315C118.309 52.9045 118.18 53.2641 117.998 53.5974C117.884 53.8033 117.729 53.9837 117.542 54.1276C117.356 54.2715 117.142 54.3759 116.913 54.4344C116.251 54.6186 115.565 54.7022 114.878 54.6823C113.848 54.7776 112.82 54.4931 111.986 53.8824C111.491 53.2591 111.259 52.4674 111.339 51.6756V51.0666C111.332 50.622 111.351 50.1773 111.396 49.7348C111.455 49.3675 111.577 49.0132 111.758 48.6879C111.873 48.4808 112.028 48.2987 112.214 48.1518C112.4 48.0049 112.614 47.8962 112.842 47.8319C113.514 47.6334 114.214 47.5433 114.915 47.5649H114.917Z" fill="white"/>
<g style="mix-blend-mode:multiply">
<path d="M27.397 43.2174C27.4096 43.5087 27.4266 43.8006 27.448 44.0933C27.618 46.417 28.0651 48.7121 28.7798 50.9297C31.5456 53.6155 36.4312 56.5922 42.6477 53.0795C38.848 53.6255 37.2681 50.6967 37.0081 47.406C45.8344 43.8713 51.7279 35.944 51.0869 27.1977C50.7307 22.7903 48.8028 18.6576 45.6544 15.5527C34.9683 21.5802 27.8629 31.8183 27.397 43.2174Z" fill="#77DBDB"/>
</g>
<path d="M48.2263 22.8231C49.0493 34.0561 39.0961 43.9403 25.9953 44.9002C12.8944 45.8601 1.60536 37.5328 0.78243 26.3018C-0.0404992 15.0708 9.91264 5.18562 23.0135 4.22471C36.1144 3.26379 47.4034 11.5901 48.2263 22.8231Z" fill="#F47D31"/>
<path d="M7.9498 29.5115C7.17087 18.8824 15.8311 9.58424 27.2941 8.74431C36.3504 8.08137 44.4407 12.8969 47.8254 20.1903C45.5786 10.3212 35.0665 3.34077 23.0135 4.2237C9.91463 5.18361 -0.0405079 15.0678 0.782421 26.3008C1.40837 34.8451 8.09079 41.6995 17.019 44.0763C14.46 42.5424 12.3028 40.4216 10.7258 37.8889C9.14881 35.3563 8.19725 32.4847 7.9498 29.5115Z" fill="#FFA368"/>
<path d="M23.3965 43.5013C23.3965 43.5013 29.9189 54.2824 39.7871 48.7009C34.0276 49.5278 33.3716 42.3864 34.6675 38.0838L23.3965 43.5013Z" fill="#F47D31"/>
<path d="M25.4963 44.7203C25.2963 44.4873 25.1423 44.2973 25.0383 44.1653C24.7983 44.1746 24.559 44.181 24.3203 44.1843V43.8663C24.5823 43.863 24.8456 43.8556 25.1103 43.8443H25.1933L25.2433 43.9103C25.3433 44.0383 25.5093 44.2483 25.7433 44.5173L25.4963 44.7203Z" fill="#F7F7F7"/>
<path d="M34.1975 49.5842C33.6231 49.577 33.0512 49.5083 32.4915 49.3792L32.5625 49.0692C33.0997 49.1944 33.6489 49.2614 34.2005 49.2691L34.1975 49.5842ZM30.8645 48.8432C30.3408 48.6163 29.8341 48.3519 29.3485 48.0522L29.5155 47.7812C29.9876 48.0727 30.4802 48.3297 30.9895 48.5502L30.8645 48.8432ZM27.9515 47.0742C27.5175 46.7322 27.0855 46.3551 26.6685 45.9541L26.8885 45.7252C27.2985 46.1192 27.7225 46.4891 28.1485 46.8251L27.9515 47.0742Z" fill="#F7F7F7"/>
<path d="M35.9118 49.4009L35.8418 49.0909C35.9268 49.0719 36.0118 49.0509 36.0968 49.0279C36.0033 48.9895 35.9119 48.9465 35.8228 48.8989L35.9728 48.6189C36.1926 48.7376 36.4283 48.8241 36.6728 48.8759L37.2468 48.9939L36.6918 49.1819C36.4357 49.2684 36.1754 49.3415 35.9118 49.4009Z" fill="#F7F7F7"/>
<path d="M34.7778 48.0583C34.4847 47.7257 34.23 47.361 34.0188 46.9713L34.2968 46.8173C34.4966 47.1859 34.7374 47.5308 35.0148 47.8453L34.7778 48.0583ZM33.4828 45.7673C33.3371 45.3538 33.2198 44.9308 33.1318 44.5013L33.4438 44.4373C33.5289 44.8525 33.6422 45.2614 33.7828 45.6613L33.4828 45.7673Z" fill="#F7F7F7"/>
<path d="M32.9538 43.1955C32.9358 42.9215 32.9308 42.6495 32.9388 42.3865V42.2795L33.0387 42.2415C33.2861 42.1488 33.5311 42.0521 33.7738 41.9515L33.8948 42.2455C33.6814 42.3335 33.4668 42.4185 33.2508 42.5005C33.2508 42.7205 33.2508 42.9465 33.2678 43.1735L32.9538 43.1955Z" fill="#F7F7F7"/>
<path d="M22.6848 44.1554C22.1578 44.1294 21.6268 44.0874 21.1059 44.0294L21.1409 43.7134C21.6548 43.7704 22.1798 43.8134 22.6998 43.8384L22.6848 44.1554ZM19.538 43.8064C19.0191 43.7164 18.4971 43.6064 17.9872 43.4854L18.0612 43.1765C18.5611 43.2974 19.0801 43.4044 19.592 43.4934L19.538 43.8064ZM16.4593 43.0665C15.9593 42.9105 15.4514 42.7365 14.9594 42.5485L15.0734 42.2485C15.5564 42.4335 16.0533 42.6055 16.5513 42.7595L16.4593 43.0665ZM13.5015 41.9336C13.0226 41.7116 12.5456 41.4716 12.0867 41.2196L12.2397 40.9407C12.6926 41.1896 13.1626 41.4256 13.6395 41.6406L13.5015 41.9336ZM35.3437 41.5946L35.2037 41.3086C35.6726 41.0786 36.1366 40.8317 36.5836 40.5747L36.7425 40.8507C36.2886 41.1106 35.8186 41.3616 35.3437 41.5946ZM10.7238 40.4097C10.2788 40.1227 9.84086 39.8177 9.4239 39.5028L9.61488 39.2488C10.0268 39.5588 10.4578 39.8598 10.8968 40.1417L10.7238 40.4097ZM38.0884 40.0097L37.9124 39.7457C38.3444 39.4568 38.7714 39.1458 39.1813 38.8328L39.3753 39.0838C38.9603 39.4098 38.5274 39.7208 38.0884 40.0137V40.0097ZM8.191 38.4979C7.79104 38.1479 7.40607 37.7799 7.0421 37.405L7.27009 37.183C7.62905 37.5519 8.01002 37.9149 8.40199 38.2589L8.191 38.4979ZM40.5882 38.0709L40.3762 37.8339C40.7662 37.485 41.1452 37.121 41.5021 36.75L41.7311 36.971C41.3741 37.351 40.9902 37.7209 40.5942 38.0749L40.5882 38.0709ZM5.98419 36.2271C5.64722 35.8181 5.32525 35.3921 5.02728 34.9622L5.28825 34.7812C5.58123 35.2041 5.8972 35.6231 6.22918 36.0251L5.98419 36.2271ZM42.794 35.7921L42.549 35.5921C42.882 35.1921 43.201 34.7732 43.497 34.3502L43.7569 34.5332C43.457 34.9602 43.131 35.3871 42.794 35.7921ZM4.18335 33.6183C3.92137 33.1573 3.67839 32.6824 3.46141 32.2044L3.75039 32.0734C3.96337 32.5424 4.20135 33.0093 4.45933 33.4613L4.18335 33.6183ZM44.6169 33.1963L44.3429 33.0353C44.6059 32.5864 44.8528 32.1224 45.0748 31.6564L45.3618 31.7934C45.1318 32.2674 44.8848 32.7394 44.6169 33.1963ZM2.87246 30.7305C2.69948 30.2306 2.54749 29.7176 2.4225 29.2067L2.73148 29.1317C2.85347 29.6316 3.00245 30.1316 3.17244 30.6265L2.87246 30.7305ZM45.9817 30.3306L45.6818 30.2196C45.8638 29.7336 46.0237 29.2337 46.1597 28.7357L46.4667 28.8187C46.3317 29.3287 46.1667 29.8366 45.9817 30.3326V30.3306ZM2.11853 27.6478C2.06053 27.2478 2.01854 26.8409 1.98654 26.4389C1.97654 26.3149 1.96954 26.1909 1.96354 26.0679L2.28151 26.0519C2.28751 26.1733 2.29518 26.2946 2.30451 26.4159C2.33351 26.8159 2.37751 27.2098 2.4345 27.6018L2.11853 27.6478ZM46.8147 27.2718L46.5017 27.2168C46.5907 26.7059 46.6567 26.1859 46.7017 25.671L47.0187 25.696C46.9737 26.2209 46.9057 26.7509 46.8147 27.2718ZM2.27451 24.4881L1.95654 24.4741C1.97954 23.9471 2.02754 23.4152 2.09953 22.8932L2.4145 22.9362C2.34351 23.4542 2.29651 23.9761 2.27451 24.4881ZM46.7467 24.1081C46.7417 23.7931 46.7277 23.4732 46.7047 23.1562C46.69 22.9562 46.6717 22.7562 46.6497 22.5562L46.9657 22.5212C46.9877 22.7252 47.0063 22.9302 47.0217 23.1362C47.0457 23.4592 47.0597 23.7861 47.0647 24.1061L46.7467 24.1081ZM2.70048 21.4083L2.3915 21.3353C2.51149 20.8234 2.65848 20.3094 2.82647 19.8085L3.12644 19.9085C2.96246 20.4034 2.81847 20.9084 2.70048 21.4103V21.4083ZM46.4057 21.0174C46.3057 20.5114 46.1707 20.0035 46.0187 19.5085L46.3187 19.4155C46.4737 19.9155 46.6067 20.4374 46.7137 20.9534L46.4057 21.0174ZM3.68739 18.4546L3.39642 18.3276C3.6064 17.8476 3.84138 17.3677 4.09636 16.9017L4.37533 17.0537C4.12536 17.5137 3.89337 17.9886 3.68739 18.4566V18.4546ZM45.4908 18.0416C45.2908 17.5647 45.0718 17.0897 44.8298 16.6297L45.1118 16.4818C45.3578 16.9507 45.5838 17.4347 45.7848 17.9196L45.4908 18.0416ZM5.17726 15.7148L4.91129 15.5398C5.19926 15.1029 5.51124 14.6689 5.83621 14.251L6.08719 14.4509C5.76621 14.8599 5.46024 15.2889 5.17726 15.7168V15.7148ZM44.0449 15.2839C43.7659 14.8509 43.463 14.4219 43.145 14.011L43.396 13.817C43.7199 14.236 44.0279 14.6719 44.3119 15.1169L44.0449 15.2839ZM7.0941 13.253L6.85912 13.0391C7.21209 12.6511 7.58606 12.2711 7.97002 11.9082L8.18801 12.1391C7.81004 12.4981 7.44207 12.8731 7.0941 13.255V13.253ZM42.1421 12.8171C41.7941 12.4361 41.4241 12.0631 41.0422 11.7082L41.2592 11.4752C41.6461 11.8362 42.0221 12.2151 42.3761 12.6021L42.1421 12.8171ZM9.3629 11.1072L9.16292 10.8612C9.56789 10.5303 9.99185 10.2073 10.4248 9.90233L10.6078 10.1613C10.1798 10.4643 9.76087 10.7833 9.3619 11.1092L9.3629 11.1072ZM39.8603 10.6873C39.4603 10.3653 39.0343 10.0533 38.6044 9.75834L38.7834 9.49636C39.2203 9.79634 39.6493 10.1123 40.0583 10.4393L39.8603 10.6873ZM11.9117 9.30238L11.7457 9.0314C12.1917 8.75942 12.6556 8.49745 13.1256 8.25247L13.2726 8.53444C12.8106 8.77842 12.3526 9.0374 11.9127 9.30538L11.9117 9.30238ZM37.2835 8.92341C36.8385 8.66343 36.3756 8.41445 35.9066 8.18347L36.0476 7.8985C36.5226 8.13348 36.9925 8.38546 37.4475 8.64944L37.2835 8.92341ZM14.6854 7.85551L14.5565 7.56453C15.0364 7.35255 15.5314 7.15257 16.0253 6.97058L16.1343 7.27055C15.6444 7.45154 15.1564 7.64852 14.6824 7.85851L14.6854 7.85551ZM34.4837 7.53953C34.0058 7.33955 33.5138 7.15856 33.0189 6.99258L33.1189 6.69261C33.6188 6.86159 34.1188 7.04758 34.6027 7.24756L34.4837 7.53953ZM17.6172 6.7756L17.5262 6.47562C18.0262 6.32563 18.5441 6.18965 19.0571 6.07066L19.1291 6.38063C18.6211 6.49662 18.1132 6.63161 17.6162 6.7796L17.6172 6.7756ZM31.522 6.54162C31.022 6.40863 30.5101 6.28964 29.9981 6.18764L30.0601 5.87567C30.5781 5.97567 31.097 6.09966 31.603 6.23365L31.522 6.54162ZM20.6639 6.06866L20.6109 5.75568C21.1269 5.66869 21.6548 5.5957 22.1788 5.53871L22.2128 5.85467C21.6938 5.91467 21.1729 5.98966 20.6629 6.07266L20.6639 6.06866ZM28.4563 5.93067C27.9413 5.86168 27.4183 5.80768 26.9004 5.76968L26.9234 5.45271C27.4473 5.49071 27.9783 5.5447 28.4993 5.61569L28.4563 5.93067ZM23.7737 5.73069L23.7587 5.41272C24.1926 5.39172 24.6326 5.38271 25.0655 5.38171H25.3415V5.69969H25.0416C24.6146 5.70669 24.1906 5.71669 23.7717 5.73669L23.7737 5.73069Z" fill="#F7F7F7"/>
<path d="M24.3856 12.206C25.3301 12.171 26.2716 12.3315 27.1512 12.6773C28.0308 13.0231 28.8295 13.5469 29.4972 14.2158C30.1255 14.8197 30.6249 15.5446 30.9652 16.3468C31.3054 17.1491 31.4796 18.012 31.477 18.8834C31.4853 19.6892 31.3299 20.4883 31.02 21.2322C30.7697 21.868 30.3928 22.4463 29.9121 22.9321C29.5081 23.3226 29.0678 23.6738 28.5973 23.981C28.2473 24.2165 27.8764 24.4193 27.4893 24.5869L27.0174 24.7349C27.0174 25.0699 27.0024 28.9825 26.9724 29.1605C26.9287 29.3703 26.8377 29.5672 26.7064 29.7365C26.5205 29.9674 26.2586 30.1247 25.9675 30.1804C25.5166 30.28 25.0552 30.3246 24.5936 30.3134C24.1301 30.3242 23.6672 30.272 23.2177 30.1584C22.9198 30.094 22.6595 29.9143 22.4938 29.6585C22.3715 29.4638 22.2864 29.2482 22.2428 29.0226C22.2128 28.8356 22.1978 24.8879 22.1978 24.4939C22.1999 24.4602 22.2049 24.4268 22.2128 24.3939C22.2222 24.3502 22.2272 24.3057 22.2278 24.261C22.2082 23.8946 22.2621 23.528 22.3865 23.1828C22.5108 22.8376 22.703 22.5208 22.9517 22.2511C23.3822 21.7908 23.928 21.4542 24.5326 21.2762C25.1069 21.1165 25.6438 20.8446 26.1125 20.4763C26.3431 20.3066 26.5293 20.0837 26.6554 19.8265C26.7814 19.5694 26.8435 19.2857 26.8364 18.9994C26.8553 18.7194 26.8166 18.4386 26.7225 18.1742C26.6284 17.9098 26.481 17.6676 26.2895 17.4626C25.7441 17.051 25.0633 16.8609 24.3836 16.9306C23.9117 16.9095 23.444 17.0278 23.0387 17.2706C22.7566 17.4259 22.5335 17.6697 22.4038 17.9645L22.3148 18.3185C22.185 18.7436 21.9745 19.1398 21.6948 19.4854C21.5674 19.6209 21.4119 19.7269 21.2392 19.796C21.0664 19.8651 20.8807 19.8956 20.6949 19.8853C20.2885 19.8659 19.8886 19.7759 19.513 19.6194C18.9487 19.4295 18.4233 19.1392 17.9622 18.7624C17.8308 18.648 17.7249 18.5075 17.651 18.3498C17.5771 18.192 17.537 18.0206 17.5332 17.8465C17.5704 17.4937 17.6496 17.1466 17.7692 16.8126L17.8282 16.6646C17.8672 16.5456 17.9282 16.3836 18.0052 16.1767C18.1822 15.7981 18.3948 15.4371 18.6401 15.0988C18.9719 14.6024 19.368 14.1522 19.818 13.7599C20.3819 13.3059 21.0158 12.9466 21.6948 12.696C22.5518 12.3608 23.4655 12.1944 24.3856 12.206ZM24.5336 31.3923C25.3244 31.3071 26.1177 31.529 26.7494 32.0123C27.186 32.6523 27.375 33.4291 27.2814 34.1981C27.2876 34.5487 27.2678 34.8993 27.2224 35.247C27.1661 35.5366 27.0649 35.8156 26.9224 36.0739C26.8333 36.2338 26.7127 36.3738 26.5677 36.4856C26.4228 36.5973 26.2567 36.6784 26.0795 36.7239C25.5651 36.8667 25.0322 36.9314 24.4986 36.9159C23.6993 36.9898 22.9006 36.769 22.2528 36.2949C21.8697 35.8104 21.6903 35.1956 21.7528 34.5811V34.1091C21.7477 33.7639 21.7623 33.4187 21.7968 33.0752C21.8429 32.7901 21.938 32.515 22.0778 32.2623C22.1676 32.1017 22.2882 31.9604 22.4327 31.8465C22.5772 31.7326 22.7427 31.6482 22.9197 31.5983C23.4433 31.4442 23.9881 31.3747 24.5336 31.3923Z" fill="white"/>
<path d="M63.991 4.10174C65.2389 4.00975 66.5018 3.96376 67.7457 3.96376C83.9533 3.96376 98.1881 11.8561 105.307 23.4931L105.871 23.0851C103.559 19.3182 100.605 15.9855 97.1431 13.238C88.7472 6.70417 78.3838 3.21056 67.7457 3.32781C66.4868 3.32781 65.2079 3.3748 63.946 3.4678C56.7719 3.9677 49.7919 6.01983 43.4888 9.48228L43.9517 9.95224C50.1344 6.58705 56.9689 4.59172 63.991 4.10174Z" fill="#F47D31"/>
<path d="M98.4951 9.74625C91.2387 4.06486 82.4541 0.674242 73.2623 0.00708008L73.1963 0.646025C82.6361 1.35082 91.6223 4.97658 98.9081 11.0201L99.357 10.4672C99.0721 10.2202 98.7891 9.97723 98.4951 9.74625Z" fill="#F47D31"/>
<path d="M30.3789 62.2017L29.855 62.6887C31.733 65.1006 33.8895 67.2822 36.2794 69.1881C41.5101 73.3243 47.593 76.2489 54.0899 77.7514L54.2749 77.1144C44.8564 74.9791 36.4357 69.724 30.3789 62.2017Z" fill="#F47D31"/>
<path d="M23.7224 58.783L23.1055 59.157C24.0822 60.818 25.179 62.4054 26.3872 63.9066C28.7679 66.8574 31.5244 69.4841 34.5865 71.7199L35.0144 71.17C30.4571 67.8408 26.6168 63.6281 23.7224 58.783Z" fill="#F47D31"/>
</g>
<defs>
<clipPath id="clip0_136_64">
<rect width="143.516" height="92.449" fill="white" transform="translate(0.734375 0.0020752)"/>
</clipPath>
</defs>
</svg>
