<svg width="130" height="105" viewBox="0 0 130 105" fill="none" xmlns="http://www.w3.org/2000/svg">
<g clip-path="url(#clip0_136_223)">
<path opacity="0.4" d="M113.881 43.1297C116.668 47.0931 118.82 52.4863 117.327 57.4645C115.839 62.4268 111.08 65.4874 109 70.2007C107.825 72.8653 107.794 75.7938 107.749 78.6544C107.691 82.3979 108.422 86.3733 105.892 89.5368C104.285 91.3346 102.185 92.621 99.8538 93.2363C95.2675 94.6951 90.4632 95.38 86.3898 98.1356C79.6977 102.662 71.4789 104.245 63.5031 103.756C59.4546 103.495 55.4507 102.759 51.5738 101.564C47.0745 100.19 43.0751 97.7586 38.5398 96.4558C30.685 94.1981 19.9425 94.1672 15.3432 86.2203C12.2437 80.8701 11.1768 74.2561 13.5835 68.423C14.7283 65.6514 16.913 63.5337 18.1578 60.8121C19.9246 57.0523 20.293 52.7857 19.1966 48.7788C19.1487 48.6148 19.0989 48.4512 19.0476 48.2879C17.8478 44.5535 15.4312 41.3429 14.4323 37.5415C12.3696 29.6937 16.9319 21.3948 22.9191 16.3506C25.3522 14.2251 28.1689 12.5839 31.2178 11.5153C39.5746 8.77171 48.8592 11.9473 57.242 9.29365C63.6721 7.25795 68.9513 1.96669 75.5034 0.436917C78.0455 -0.110072 80.6748 -0.111919 83.2177 0.431486C85.7607 0.974891 88.1596 2.05122 90.2562 3.58947C94.6071 6.84974 97.7118 11.5002 99.0549 16.7686C100.366 21.6768 100.325 27.067 102.654 31.5254C104.643 35.3398 108.329 37.3975 111.323 40.1651C112.277 41.0609 113.134 42.0546 113.881 43.1297Z" fill="#F59253"/>
<path d="M40.8933 80.4803C42.6923 81.1555 44.6193 81.421 46.5338 81.2575C48.4484 81.0941 50.3023 80.5057 51.9608 79.5354C55.1373 77.4977 58.0318 76.0259 61.9403 76.0969C65.4327 76.1609 68.3212 78.0486 71.7037 78.4506C73.0539 78.5591 74.4118 78.3713 75.6819 77.9004C76.952 77.4294 78.1036 76.6865 79.0566 75.7239C80.9563 73.8922 82.2152 71.1006 81.3893 68.5959C80.9574 67.2841 80.0125 66.2024 79.4736 64.9306C78.2307 61.998 81.5043 60.2312 80.6894 57.1427C79.9975 54.518 77.1169 52.6433 77.1599 49.9307C77.1919 47.944 78.7298 46.4033 79.2717 44.5655C79.5605 43.6389 79.6618 42.6639 79.5692 41.6977C79.4767 40.7314 79.1922 39.7933 78.7327 38.9383C78.0103 37.6793 76.8998 36.6881 75.5672 36.1128C74.3833 35.6129 73.0597 35.5988 72.1438 34.564C70.5121 32.7202 69.9132 30.7206 67.6745 29.3728C65.7748 28.231 63.275 28.159 61.1003 28.358C58.667 28.5659 56.3093 29.3057 54.1933 30.5251C52.0774 31.7445 50.2551 33.4138 48.8553 35.4149C47.8471 36.755 47.2602 38.3647 47.1695 40.0392C47.1435 41.9099 47.1434 43.7917 45.9975 45.3824C44.9372 46.6541 43.5365 47.5971 41.9593 48.101C40.3895 48.5996 38.8848 49.2844 37.4778 50.1408C36.7779 50.5781 36.2028 51.1885 35.8076 51.9131C35.4125 52.6377 35.2109 53.4519 35.2223 54.2771C35.3532 55.6489 36.3021 56.8397 36.4291 58.2115C36.6581 60.7061 34.2554 62.5179 32.7746 64.5376C31.7523 65.97 31.1334 67.6508 30.9827 69.4042C30.8319 71.1575 31.1548 72.9192 31.9176 74.5051C33.7173 78.1206 36.9799 78.9364 40.4024 80.2972C40.5654 80.3602 40.7293 80.4223 40.8933 80.4803Z" fill="#0B2D4E"/>
<path d="M49.6199 63.9087C49.494 66.9742 50.204 69.2759 53.0076 70.7917C55.3023 71.9097 57.825 72.4796 60.3774 72.4565C64.5098 72.5565 69.1142 71.4925 72.2057 68.5899C72.8181 68.111 73.2255 67.4174 73.3455 66.6493C73.3824 65.9494 72.9976 65.2926 72.9647 64.5937C72.9077 63.4158 73.8236 62.439 74.2335 61.3332C74.6426 59.8165 74.5324 58.2066 73.9206 56.7598C73.3091 55.3236 72.9632 53.788 72.8997 52.2283C72.9947 50.2096 74.2073 48.4469 75.1792 46.6742C76.151 44.9014 76.9149 42.7458 76.085 40.903C75.7872 40.2852 75.3402 39.7513 74.7842 39.3498C74.2282 38.9483 73.5808 38.6917 72.9007 38.6033C71.4929 38.4474 70.2269 40.0562 69.3251 40.9431C68.11 42.1372 66.7609 43.1866 65.3046 44.0706C63.2929 45.2914 61.0833 46.1922 59.1906 47.591C57.9393 48.4345 56.9321 49.5926 56.2701 50.9487C55.6542 52.4685 56.733 53.9392 55.4282 55.337C54.5863 56.2368 53.2944 56.5458 52.2765 57.2427C50.0969 58.7375 49.7199 61.4891 49.6199 63.9087Z" fill="#061F33"/>
<path d="M72.4447 81.0589C69.5451 76.5885 67.7373 71.1005 70.259 66.0523C70.4508 65.5076 70.8476 65.0592 71.3649 64.8025C72.6535 64.5118 74.0047 64.736 75.1303 65.4274C78.6508 67.4931 80.8054 71.3794 82.7821 74.8379C84.8368 78.4303 86.6216 82.1709 88.6863 85.7584C89.5836 87.1766 90.2991 88.702 90.816 90.2987C91.2481 91.7457 91.2132 93.292 90.716 94.718C88.3984 100.704 82.0243 93.3712 80.0845 91.1565C77.3003 87.9772 74.7471 84.6027 72.4447 81.0589Z" fill="#F59253"/>
<path d="M46.1876 76.0587C45.3537 72.5273 44.9208 68.9138 46.8115 66.5091C47.8163 65.4452 49.0551 64.63 50.4299 64.1284C52.8565 63.0795 55.3382 61.6687 57.9368 61.2118C60.7393 60.5963 63.6388 60.5658 66.4536 61.122C68.1762 61.6091 69.8263 62.323 71.3609 63.2447C72.7067 64.0036 74.3603 64.6565 75.0103 66.0683C76.6022 69.508 77.9891 73.039 79.1637 76.6426C80.1385 79.6422 81.2084 82.7858 79.6726 85.8244C79.1727 86.8092 78.4518 87.6519 77.8819 88.5938C77.2939 89.5758 76.9658 90.6915 76.9282 91.8355C76.7382 94.5941 76.812 97.3615 76.82 100.123C76.8803 100.92 76.7583 101.72 76.4632 102.463C75.7763 103.875 73.9086 103.894 72.5638 103.892L59.2657 103.869C57.5874 103.877 55.9151 104.072 54.2794 104.448C53.592 104.585 52.8783 104.482 52.2577 104.156C51.6372 103.829 51.1476 103.3 50.871 102.656C50.313 101.319 50.0461 99.8779 50.0881 98.4295C49.8114 92.812 49.0159 87.2319 47.7123 81.7608C47.3373 80.211 46.6905 78.1864 46.1876 76.0587Z" fill="#F47D31"/>
<mask id="mask0_136_223" style="mask-type:luminance" maskUnits="userSpaceOnUse" x="45" y="60" width="36" height="45">
<path d="M46.1876 76.0587C45.3537 72.5273 44.9208 68.9138 46.8115 66.5091C47.8163 65.4452 49.0551 64.63 50.4299 64.1284C52.8565 63.0795 55.3382 61.6687 57.9368 61.2118C60.7393 60.5963 63.6388 60.5658 66.4536 61.122C68.1762 61.6091 69.8263 62.323 71.3609 63.2447C72.7067 64.0036 74.3603 64.6565 75.0103 66.0683C76.6022 69.508 77.9891 73.039 79.1637 76.6426C80.1385 79.6422 81.2084 82.7858 79.6726 85.8244C79.1727 86.8092 78.4518 87.6519 77.8819 88.5938C77.2939 89.5758 76.9658 90.6915 76.9282 91.8355C76.7382 94.5941 76.812 97.3615 76.82 100.123C76.8803 100.92 76.7583 101.72 76.4632 102.463C75.7763 103.875 73.9086 103.894 72.5638 103.892L59.2657 103.869C57.5874 103.877 55.9151 104.072 54.2794 104.448C53.592 104.585 52.8783 104.482 52.2577 104.156C51.6372 103.829 51.1476 103.3 50.871 102.656C50.313 101.319 50.0461 99.8779 50.0881 98.4295C49.8114 92.812 49.0159 87.2319 47.7123 81.7608C47.3373 80.211 46.6905 78.1864 46.1876 76.0587Z" fill="white"/>
</mask>
<g mask="url(#mask0_136_223)">
<path d="M56.4582 65.7851C55.8825 64.9531 55.5813 63.962 55.5968 62.9504C55.6122 61.9387 55.9433 60.9573 56.5441 60.1432C56.9012 59.8134 57.325 59.5643 57.7869 59.4128C58.2487 59.2613 58.7377 59.2109 59.2207 59.2651C61.0843 59.2305 62.945 59.4278 64.76 59.8522C66.4877 60.2521 68.2495 60.94 68.9974 62.6848C69.2572 63.3298 69.3592 64.0275 69.2947 64.7199C69.2302 65.4123 69.0009 66.0792 68.6263 66.6651C67.9477 67.7513 66.8711 68.5289 65.6268 68.8318C63.5649 69.341 61.3966 69.206 59.4138 68.4449C58.1747 67.8893 57.141 66.959 56.4582 65.7851Z" fill="#F59253"/>
<path d="M44.617 92.2485C44.631 89.5409 44.6447 86.8329 44.658 84.1247C44.658 83.1818 44.051 77.4437 45.5168 77.5097C45.6751 77.5273 45.8252 77.5903 45.9489 77.6908C46.6284 78.2838 47.1292 79.0544 47.3947 79.9163C48.4635 82.5159 49.3613 86.6814 51.585 88.5022C53.8467 90.3529 57.3242 91.1337 60.1348 91.5777C63.4163 92.0966 66.7528 92.1346 70.0693 92.3366C72.215 92.4676 74.5815 92.7755 75.9903 94.3983C76.9118 95.7104 77.6068 97.1677 78.0462 98.7097C78.5161 99.9475 78.8899 101.416 77.9371 102.537C77.505 102.995 76.9804 103.357 76.3982 103.597C74.2967 104.511 72.0798 105.131 69.8094 105.442C63.4787 106.446 57.0589 106.772 50.6591 106.413C49.2811 106.493 47.9176 106.095 46.7996 105.286C46.0983 104.538 45.6275 103.604 45.4438 102.596C44.7306 99.1959 44.4528 95.7187 44.617 92.2485Z" fill="#F47D31"/>
</g>
<path d="M74.8591 46.0032C77.2788 48.4928 75.0841 54.576 71.2256 53.6951C67.0792 52.7493 67.7032 46.2873 71.4526 45.2264C72.0359 45.0214 72.6653 44.9854 73.2681 45.1229C73.8708 45.2604 74.4224 45.5656 74.8591 46.0032Z" fill="#9B87FF"/>
<path d="M41.8311 80.0713C39.3991 80.4585 36.9069 80.0969 34.6852 79.0344C33.3909 78.3537 32.3121 77.3254 31.5702 76.0651C30.8283 74.8048 30.4529 73.3625 30.4859 71.9005C30.3469 69.6801 30.9509 67.4765 32.2027 65.6373C33.6505 63.7256 36.076 62.5498 36.9759 60.3261C37.297 59.5838 37.4009 58.7657 37.2754 57.9667C37.1499 57.1678 36.8003 56.4209 36.267 55.8129C35.878 55.5087 35.5656 55.1176 35.3548 54.6711C35.144 54.2245 35.0407 53.7349 35.0531 53.2412C35.1768 52.4447 35.4693 51.6838 35.9109 51.0094C36.3525 50.335 36.9331 49.7627 37.6138 49.3308C39.5705 48.1991 41.7583 47.5257 44.0127 47.3611C45.4975 47.1721 46.9774 46.7551 47.4363 45.1554C47.6187 44.281 47.701 43.3887 47.6814 42.4957C47.7813 40.605 47.9183 38.7133 48.2013 36.8405C48.6598 34.6263 49.8133 32.6164 51.4938 31.1035C51.7184 30.8895 51.9517 30.6849 52.1936 30.4896C56.226 27.223 63.692 26.0652 68.1383 29.0897C68.8918 29.5975 69.5374 30.2494 70.0379 31.0077C70.5385 31.766 70.8841 32.6158 71.0549 33.5082C71.2808 34.715 71.6077 34.9748 72.7866 35.3408C74.9292 36.0057 77.36 36.4776 79.0608 38.0484C79.7084 38.672 80.2042 39.436 80.5103 40.2813C80.8164 41.1267 80.9246 42.031 80.8264 42.9247C80.6004 45.2044 79.0067 46.2952 77.8649 48.102C76.7001 49.9457 77.6158 52.2673 78.9646 53.7891C80.0064 54.9609 81.4853 55.8178 82.0743 57.2716C82.2935 57.9606 82.3648 58.6881 82.2837 59.4066C82.2025 60.125 81.9708 60.8182 81.6034 61.4409C81.3384 61.9619 81.0264 62.4598 80.7925 62.9958C80.4408 63.8159 80.2758 64.704 80.3094 65.5957C80.3429 66.4875 80.574 67.3606 80.9863 68.152" stroke="#0B2D4E" stroke-width="14.9978" stroke-miterlimit="10"/>
<path d="M34.9532 83.6037C34.2113 84.9415 33.4782 86.2837 32.7536 87.6302C31.2848 90.3668 28.5541 96.4489 32.9235 97.9517C35.1232 98.7086 36.3821 97.9685 37.8368 96.3657C43.3467 90.2908 48.0255 83.5114 51.7508 76.2049C53.1346 73.4903 56.8089 66.4163 52.3506 64.8005C51.6425 64.5488 50.8899 64.447 50.1405 64.5018C49.391 64.5565 48.6611 64.7664 47.9972 65.1184C47.4015 65.4583 46.8479 65.8671 46.3476 66.3362C43.2527 69.3206 40.6972 72.8177 38.7937 76.6728C37.5249 78.9985 36.233 81.295 34.9532 83.6037Z" fill="#F59253"/>
<path d="M60.2393 66.6802C59.5927 66.518 58.996 66.1991 58.5018 65.7516C58.0076 65.3042 57.6312 64.742 57.4058 64.1147C57.0338 62.9228 57.6208 61.5829 57.7248 60.3801C57.8254 59.2276 57.8382 58.0692 57.7629 56.9148C57.6431 55.8377 57.6403 54.7507 57.7548 53.6731C57.8478 53.0652 58.1818 53.1733 58.7967 52.9283C59.4334 52.7256 60.1024 52.6435 60.7693 52.6864C62.1371 52.6864 65.7026 52.5863 66.5485 53.7861C66.8779 54.3625 67.0299 55.0235 66.9854 55.686C67.0074 56.4779 67.1484 57.5036 67.2773 58.6084C67.3353 59.1003 67.2994 59.5904 67.3774 60.0794C67.4869 60.6258 67.6454 61.1611 67.8512 61.679C68.0448 62.1284 68.1438 62.6128 68.142 63.1021C68.1401 63.5914 68.0372 64.0751 67.8403 64.523C67.6433 64.971 67.3562 65.3734 66.9969 65.7055C66.6375 66.0376 66.2137 66.2923 65.7517 66.4534C63.9912 67.1424 62.0505 67.2221 60.2393 66.6802Z" fill="#FFBA99"/>
<path d="M57.7611 53.6743C57.8541 53.0664 58.188 53.1743 58.8029 52.9293C59.4397 52.7265 60.1086 52.6445 60.7755 52.6874C62.1433 52.6874 65.7088 52.5873 66.5547 53.7871C66.884 54.3636 67.036 55.0245 66.9916 55.6869C67.0136 56.4788 67.1546 57.5045 67.2836 58.6094C67.3416 59.1013 67.3057 59.5914 67.3837 60.0803C67.4595 60.4967 67.574 60.905 67.7257 61.3001C66.3804 61.8021 64.9164 61.8933 63.5193 61.5621C61.1474 60.9502 59.0991 59.4545 57.794 57.3815C57.787 57.2245 57.783 57.0686 57.773 56.9116C57.652 55.836 57.6481 54.7507 57.7611 53.6743Z" fill="#FCAA83"/>
<path d="M55.776 45.8653C55.7657 44.1714 56.0129 42.4857 56.509 40.866C58.5368 34.659 66.2794 33.125 70.9427 37.5804C76.142 42.5497 74.1524 54.431 68.6752 58.6044C67.9364 59.1584 67.0821 59.5388 66.1761 59.7173C65.2701 59.8957 64.3356 59.8677 63.4419 59.6353C58.0617 58.1905 55.742 51.5715 55.776 45.8653Z" fill="#FFBA99"/>
<path d="M55.763 41.124C57.8977 34.5879 66.0507 32.9742 70.961 37.6655C72.0502 38.7413 72.8685 40.0601 73.3486 41.5138C73.2343 41.6921 73.1075 41.8622 72.9695 42.0228C72.2549 42.7704 71.3897 43.3575 70.431 43.7454C67.6686 44.9521 64.7671 45.8119 61.7932 46.3051C61.5752 46.3461 61.3562 46.3861 61.1372 46.4291C60.3205 46.5558 59.5312 46.8198 58.8026 47.21C56.7919 48.3958 57.6569 51.0035 56.1831 52.1463C56.0625 52.2402 55.9273 52.3138 55.7831 52.3643C55.2473 50.4175 54.9824 48.4062 54.9953 46.3871C54.9831 44.6039 55.2419 42.8294 55.763 41.124Z" fill="#FCAA83"/>
<path d="M60.9257 45.6782C60.1396 45.9335 59.4021 46.3199 58.7449 46.8211C56.9451 48.3129 58.2179 50.7485 56.9451 52.1113C55.8172 53.3191 54.1056 51.7234 53.6577 50.6115C52.9742 48.4979 52.7302 46.267 52.9408 44.0556C52.9197 42.8192 53.0651 41.5854 53.3736 40.3879C53.8012 39.1046 54.5121 37.9341 55.4533 36.9627C56.7986 35.5556 58.4356 34.4601 60.2493 33.7529C62.0629 33.0458 64.0092 32.7442 65.9518 32.8693C68.9724 33.0592 74.2727 35.5978 71.9041 39.4442C71.3177 40.296 70.5568 41.0133 69.6722 41.5489C67.137 43.179 64.4098 44.4886 61.5525 45.4482C61.3456 45.5302 61.1347 45.6042 60.9257 45.6782Z" fill="#0B2D4E"/>
<path d="M129.62 98.5845H0.645264V104.516H129.62V98.5845Z" fill="white"/>
<path d="M89.515 95.008H71.1587V98.6015H89.515V95.008Z" fill="#9B87FF"/>
<path d="M86.3643 95.3569L90.9966 71.7725C91.0558 71.471 91.2177 71.1992 91.4547 71.0036C91.6917 70.808 91.9891 70.7006 92.2964 70.6997H123.092C123.301 70.6999 123.506 70.7497 123.692 70.8449C123.878 70.9402 124.038 71.078 124.16 71.2474L125.582 72.9293L124.32 72.6523L119.758 95.873C119.699 96.1745 119.537 96.446 119.3 96.6417C119.063 96.8373 118.766 96.9449 118.459 96.9458H87.6631C87.4669 96.9454 87.2731 96.9014 87.0959 96.8172C86.9187 96.7329 86.7624 96.6103 86.6382 96.4583C86.514 96.3064 86.425 96.1288 86.3776 95.9384C86.3303 95.748 86.3257 95.5493 86.3643 95.3569Z" fill="#9B87FF"/>
<path d="M119.872 98.6016H89.0766C88.8808 98.601 88.6875 98.557 88.5106 98.473C88.3337 98.3889 88.1775 98.2668 88.0533 98.1154C87.9291 97.9639 87.8399 97.787 87.7921 97.5971C87.7443 97.4072 87.7391 97.2088 87.7768 97.0166L92.4092 73.4322C92.4682 73.1306 92.63 72.8587 92.867 72.663C93.104 72.4674 93.4016 72.3601 93.709 72.3594H124.504C124.7 72.36 124.894 72.404 125.07 72.488C125.247 72.5721 125.404 72.694 125.528 72.8454C125.652 72.9968 125.741 73.1739 125.789 73.3639C125.837 73.5538 125.842 73.7519 125.804 73.9441L121.172 97.5288C121.113 97.8303 120.951 98.1018 120.714 98.2975C120.477 98.4931 120.179 98.6007 119.872 98.6016Z" fill="#201C66"/>
<path d="M110.187 84.8971C110.026 85.6893 109.603 86.4043 108.986 86.9269C108.369 87.4495 107.595 87.7492 106.787 87.778C106.428 87.7915 106.07 87.721 105.743 87.5722C105.416 87.4233 105.128 87.2 104.902 86.9203C104.676 86.6406 104.519 86.3121 104.442 85.9608C104.366 85.6096 104.373 85.2454 104.462 84.8971C104.629 84.1078 105.053 83.3964 105.669 82.8749C106.284 82.3533 107.056 82.0511 107.862 82.016C108.22 82.0066 108.575 82.0799 108.9 82.2301C109.225 82.3803 109.511 82.6033 109.736 82.882C109.961 83.1606 110.119 83.4873 110.197 83.8368C110.275 84.1863 110.272 84.5492 110.187 84.8971Z" fill="#9B87FF"/>
<path d="M32.5406 14.8078H17.8128C11.5254 14.8078 6.42847 19.9048 6.42847 26.1922C6.42847 32.4795 11.5254 37.5765 17.8128 37.5765H32.5406C38.828 37.5765 43.9249 32.4795 43.9249 26.1922C43.9249 19.9048 38.828 14.8078 32.5406 14.8078Z" fill="#F47D31"/>
<path d="M38.9895 43.5705V33.1072L30.7908 37.5765L38.9895 43.5705Z" fill="#F47D31"/>
<path d="M37.221 25.2313H20.6445C20.0961 25.2313 19.6516 25.6758 19.6516 26.2241V26.2251C19.6516 26.7735 20.0961 27.218 20.6445 27.218H37.221C37.7694 27.218 38.2139 26.7735 38.2139 26.2251V26.2241C38.2139 25.6758 37.7694 25.2313 37.221 25.2313Z" fill="white"/>
<path d="M17.2316 25.2313H13.1326C12.5842 25.2313 12.1396 25.6759 12.1396 26.2243V26.2253C12.1396 26.7737 12.5842 27.2183 13.1326 27.2183H17.2316C17.7801 27.2183 18.2246 26.7737 18.2246 26.2253V26.2243C18.2246 25.6759 17.7801 25.2313 17.2316 25.2313Z" fill="white"/>
<path d="M29.7088 20.7199H13.1327C12.8697 20.7215 12.6176 20.8266 12.4316 21.0125C12.2456 21.1983 12.1405 21.4499 12.1387 21.7128C12.1402 21.9759 12.2456 22.2278 12.4316 22.4139C12.6176 22.5999 12.8696 22.7051 13.1327 22.7067H29.7088C29.9718 22.7048 30.2236 22.5995 30.4094 22.4135C30.5952 22.2275 30.7003 21.9757 30.7019 21.7128C30.7 21.4501 30.5947 21.1986 30.4089 21.0128C30.2231 20.827 29.9716 20.7217 29.7088 20.7199Z" fill="white"/>
<path d="M37.2207 20.7199H33.1208C32.8581 20.7217 32.6065 20.8271 32.4207 21.0129C32.2348 21.1987 32.1295 21.4502 32.1277 21.713C32.1293 21.9759 32.2343 22.2277 32.4202 22.4138C32.606 22.5998 32.8579 22.7051 33.1208 22.707H37.2207C37.4837 22.7051 37.7353 22.5998 37.9211 22.4138C38.107 22.2277 38.2121 21.9759 38.2136 21.713C38.2118 21.4502 38.1067 21.1987 37.9209 21.0129C37.7351 20.8271 37.4835 20.7217 37.2207 20.7199Z" fill="white"/>
<path d="M26.1695 31.3424H37.2199C37.4827 31.3406 37.734 31.2354 37.9198 31.0496C38.1056 30.8638 38.2108 30.6124 38.2127 30.3496C38.2108 30.0869 38.1056 29.8353 37.9198 29.6495C37.734 29.4637 37.4827 29.3586 37.2199 29.3567H26.1695C25.9068 29.3586 25.6552 29.4637 25.4694 29.6495C25.2836 29.8353 25.1783 30.0869 25.1765 30.3496C25.1783 30.6124 25.2836 30.8638 25.4694 31.0496C25.6552 31.2354 25.9068 31.3406 26.1695 31.3424Z" fill="white"/>
<path d="M56.4342 93.1563C56.0589 93.0896 55.6827 93.0276 55.3054 92.9702C53.4737 92.683 51.6498 92.3421 49.8341 91.9474C46.2515 91.1309 42.6232 90.5301 38.9687 90.1479C38.5808 90.1106 38.1928 90.0771 37.8048 90.0478C36.159 89.7952 34.4754 90.0097 32.9457 90.6674C32.1473 91.0739 31.4946 91.7184 31.0776 92.5113C30.6605 93.3042 30.4995 94.2067 30.6169 95.0949C30.761 95.6896 31.043 96.242 31.4401 96.7075C31.8371 97.173 32.3382 97.5387 32.9027 97.7747C33.9894 98.1861 35.1402 98.4015 36.3021 98.4113L47.5065 99.1651C49.3556 99.2884 51.2045 99.4155 53.0536 99.5454C54.8193 99.6684 56.6121 99.917 58.3829 99.915C59.1718 99.9535 59.9512 99.7284 60.5976 99.2745C61.4914 98.3891 62.0215 97.2014 62.0842 95.9449C62.1306 95.6397 62.1068 95.328 62.0144 95.0334C61.9221 94.7389 61.7636 94.4691 61.5513 94.245C61.2953 94.0696 60.9994 93.9614 60.6906 93.9301C59.2668 93.6711 57.855 93.3982 56.4342 93.1563Z" fill="#F59253"/>
<path d="M60.6245 98.8462C61.5244 99.0322 62.2334 99.8252 63.1322 100.091C63.7789 100.255 64.4613 100.205 65.077 99.9481C65.6439 99.7361 66.2197 99.6224 66.8016 99.4355C67.285 99.1997 67.8166 99.0798 68.3544 99.0854C69.6592 99.5162 70.9047 100.109 72.0618 100.85C72.3083 101.011 72.6004 101.086 72.8937 101.065C73.1807 101.01 73.4197 100.665 73.2567 100.42C73.5897 100.731 74.0306 101.353 74.5676 101.112C74.6225 101.088 74.6721 101.054 74.7135 101.011C74.755 100.968 74.7876 100.916 74.809 100.861C74.8304 100.805 74.8402 100.745 74.8383 100.685C74.8363 100.625 74.8225 100.566 74.7975 100.512C74.9672 100.728 75.1841 100.904 75.4314 101.024C75.5564 101.081 75.6967 101.095 75.8306 101.064C75.9644 101.033 76.0843 100.959 76.1713 100.852C76.2367 100.74 76.271 100.612 76.2712 100.482C76.2754 100.036 76.1727 99.5953 75.9714 99.1972C75.0605 97.2085 72.9988 95.7328 71.245 94.548C70.945 94.3227 70.613 94.1432 70.2601 94.0159C69.934 93.9304 69.5971 93.8935 69.2602 93.906C67.0805 93.8967 64.9143 94.2468 62.8483 94.942C62.39 95.0385 61.9145 95.0175 61.4665 94.881C61.1417 94.7935 60.8008 94.7837 60.4715 94.8522C60.1168 94.9825 59.8153 95.2263 59.6137 95.5459C59.1748 96.1193 58.9413 96.8236 58.9507 97.5456C58.9877 98.0785 59.0279 98.6546 59.6508 98.7666C59.9048 98.8116 60.1667 98.7836 60.4236 98.8106C60.4912 98.8189 60.5583 98.8306 60.6245 98.8462Z" fill="#FFBA99"/>
</g>
<defs>
<clipPath id="clip0_136_223">
<rect width="128.975" height="104.516" fill="white" transform="translate(0.645264)"/>
</clipPath>
</defs>
</svg>
