<svg width="154" height="95" viewBox="0 0 154 95" fill="none" xmlns="http://www.w3.org/2000/svg">
<g clip-path="url(#clip0_136_355)">
<path d="M60.8932 31.8714C58.1832 34.6594 60.6412 41.4714 64.9632 40.4874C69.6072 39.4284 68.9093 32.1874 64.7093 31.0024C64.056 30.7726 63.351 30.7322 62.6758 30.8859C62.0006 31.0397 61.3825 31.3814 60.8932 31.8714Z" fill="#2F275C"/>
<path d="M82.4272 40.8598C81.4282 41.8838 80.1648 42.6107 78.7775 42.9596C76.0717 43.5786 73.5299 42.3877 71.2731 41.0148C68.8613 39.5489 66.4554 38.063 64.1806 36.3891C62.4618 35.289 60.9946 33.8386 59.8749 32.1325C58.8396 29.9971 58.4904 27.5937 58.875 25.252C59.039 23.6711 58.3012 22.2523 57.9752 20.7464C57.3432 17.8126 57.9902 14.3469 60.7259 12.666C61.3797 12.2839 62.1197 12.0743 62.8768 12.0568C63.6338 12.0393 64.3829 12.2145 65.0536 12.5661C66.139 13.1349 67.2598 13.6332 68.4093 14.0579C70.9191 14.7708 73.6429 13.7889 76.1017 13.283C77.9009 12.8156 79.791 12.8256 81.5852 13.312C83.5401 13.9659 84.47 15.3958 85.5369 17.0507C86.5778 18.3785 87.7141 19.6287 88.9367 20.7914C89.6443 21.5987 90.1442 22.5664 90.3932 23.6107C90.6422 24.6549 90.6327 25.7442 90.3655 26.7839C89.6356 29.9727 87.8018 32.7134 86.2089 35.5112C85.2017 37.4603 83.929 39.2603 82.4272 40.8598Z" fill="#0B2D4E"/>
<path d="M62.2879 71.1362C65.5377 66.1286 67.5595 59.982 64.7357 54.3285C64.5211 53.7185 64.0769 53.2163 63.4978 52.9286C62.0544 52.6032 60.541 52.8543 59.2801 53.6285C55.3374 55.9423 52.9246 60.295 50.7088 64.1687C48.409 68.1924 46.4092 72.382 44.0964 76.3997C43.0915 77.9883 42.2903 79.6969 41.7116 81.4853C41.2277 83.1059 41.2668 84.8379 41.8235 86.4349C44.4233 93.1344 51.5578 84.927 53.7306 82.4462C56.8494 78.8853 59.7092 75.1056 62.2879 71.1362Z" fill="#2F275C"/>
<path d="M78.4825 40.7757C78.1363 41.15 77.7254 41.4589 77.2696 41.6876C76.0484 42.2304 74.6671 42.2911 73.403 41.8576C72.1522 41.4219 70.9784 40.7908 69.9252 39.9877C67.0055 37.9249 63.3947 35.1951 61.6569 32.0244C60.5859 30.0695 59.7911 27.7617 60.816 25.6249C61.2488 24.7059 61.9094 23.913 62.7351 23.3214C63.5609 22.7298 64.5243 22.3594 65.5336 22.2452C65.7017 22.2162 65.8745 22.2335 66.0336 22.2952C66.1976 22.3939 66.3298 22.5375 66.4145 22.7091C67.0739 23.972 67.8193 25.1881 68.6453 26.3488C69.6428 27.5129 70.8339 28.4959 72.166 29.2546C74.3069 30.5545 76.6567 31.5114 78.6655 33.0003C80.1194 34.0752 80.1575 36.494 79.8035 38.1719C79.6058 39.143 79.1494 40.0426 78.4825 40.7757Z" fill="#061F33"/>
<path d="M94.8154 64.7249C95.8443 60.9682 96.3772 57.1255 94.0464 54.5657C92.7602 53.4071 91.237 52.5429 89.5828 52.0329C86.588 50.917 83.5273 49.4161 80.3216 48.9331C76.8532 48.277 73.2957 48.2431 69.8155 48.8332C67.715 49.3423 65.6827 50.1003 63.7619 51.091C61.1941 52.3399 59.3623 53.1788 58.5413 55.7466C57.6509 58.5836 57.0551 61.5048 56.7634 64.4639C55.8575 73.0752 57.0554 81.7085 57.0274 90.3239C56.9543 91.1776 57.106 92.0356 57.4674 92.8126C58.3154 94.3125 60.6191 94.3345 62.2789 94.3325L78.6897 94.3075C80.7552 94.3163 82.815 94.5226 84.8412 94.9235C85.6528 95.0871 86.4953 94.9909 87.2491 94.6486C88.003 94.3064 88.6299 93.7353 89.0408 93.0166C89.7246 91.6179 90.0563 90.0732 90.0068 88.517C90.3518 82.5189 91.3341 76.5745 92.9375 70.7844C93.3975 69.1435 94.1955 66.9897 94.8154 64.7249Z" fill="#504C99"/>
<mask id="mask0_136_355" style="mask-type:luminance" maskUnits="userSpaceOnUse" x="56" y="48" width="40" height="48">
<path d="M94.8154 64.7249C95.8443 60.9682 96.3772 57.1255 94.0464 54.5657C92.7602 53.4071 91.237 52.5429 89.5828 52.0329C86.588 50.917 83.5273 49.4161 80.3216 48.9331C76.8532 48.277 73.2957 48.2431 69.8155 48.8332C67.715 49.3423 65.6827 50.1003 63.7619 51.091C61.1941 52.3399 59.3623 53.1788 58.5413 55.7466C57.6509 58.5836 57.0551 61.5048 56.7634 64.4639C55.8575 73.0752 57.0554 81.7085 57.0274 90.3239C56.9543 91.1776 57.106 92.0356 57.4674 92.8126C58.3154 94.3125 60.6191 94.3345 62.2789 94.3325L78.6897 94.3075C80.7552 94.3163 82.815 94.5226 84.8412 94.9235C85.6528 95.0871 86.4953 94.9909 87.2491 94.6486C88.003 94.3064 88.6299 93.7353 89.0408 93.0166C89.7246 91.6179 90.0563 90.0732 90.0068 88.517C90.3518 82.5189 91.3341 76.5745 92.9375 70.7844C93.3975 69.1435 94.1955 66.9897 94.8154 64.7249Z" fill="white"/>
</mask>
<g mask="url(#mask0_136_355)">
<path d="M81.5805 53.7978C82.2166 52.9221 82.5508 51.8634 82.5328 50.7813C82.5147 49.6991 82.1455 48.6522 81.4805 47.7982C81.0776 47.4449 80.6056 47.1794 80.0945 47.0186C79.5834 46.8578 79.0443 46.8053 78.5117 46.8643C76.446 46.8276 74.3832 47.0374 72.3672 47.4893C70.4504 47.9192 68.4966 48.6471 67.6676 50.503C67.3795 51.1875 67.2661 51.9331 67.3378 52.6723C67.4096 53.4116 67.6641 54.1213 68.0785 54.7377C68.8492 55.9064 70.0413 56.7323 71.4062 57.0435C73.6943 57.5855 76.0913 57.4426 78.2987 56.6325C79.6611 56.0523 80.8084 55.0614 81.5805 53.7978Z" fill="#2F275C"/>
<path d="M60.0961 94.0225C62.3317 94.9948 64.6901 95.6552 67.1054 95.9854C73.8401 97.0538 80.6696 97.4004 87.4778 97.0193C88.9438 97.1047 90.3943 96.6808 91.5836 95.8194C92.3298 95.0242 92.8303 94.0304 93.0253 92.9576C93.7841 89.34 94.0798 85.6406 93.9053 81.9484L93.8613 73.3062C93.8613 72.3063 94.5072 66.1988 92.9473 66.2688C92.7791 66.2875 92.6199 66.3541 92.4884 66.4607C91.7657 67.0913 91.2331 67.911 90.9506 68.8275C89.8136 71.5943 88.8587 76.027 86.4919 77.9618C84.0061 79.9967 81.1433 80.9436 78.1305 81.9195C72.907 83.6114 67.0795 84.3462 62.6549 87.829C61.9179 88.4089 61.2159 89.0519 60.533 89.6959C59.806 90.2393 59.1874 90.9143 58.7091 91.6857C58.1352 92.9506 59.0352 93.5226 60.0961 94.0225Z" fill="#2F275C"/>
</g>
<path d="M106.597 73.673C107.428 75.1716 108.25 76.6748 109.064 78.1827C110.71 81.2484 113.764 88.0599 108.874 89.7428C106.41 90.5907 105 89.7618 103.374 87.9669C97.2055 81.1652 91.9666 73.5748 87.7947 65.3947C86.2448 62.3549 82.1302 54.4316 87.1278 52.6217C87.9207 52.3399 88.7636 52.2259 89.6029 52.2872C90.4423 52.3485 91.2597 52.5837 92.0034 52.9777C92.6706 53.3584 93.2908 53.8162 93.8512 54.3416C97.4579 57.5584 100.027 61.709 102.311 65.9186C103.72 68.5244 105.166 71.0972 106.597 73.673Z" fill="#4F4B99"/>
<path d="M81.6805 84.6719C82.1112 84.5992 82.5421 84.5293 82.9734 84.4619C85.0732 84.136 87.1634 83.7503 89.2439 83.3051C93.3513 82.3839 97.5091 81.7041 101.696 81.2692C102.14 81.2272 102.584 81.1895 103.029 81.1562C104.912 80.8693 106.838 81.1064 108.595 81.8412C109.503 82.2836 110.248 83.0003 110.725 83.8897C111.202 84.7791 111.387 85.7962 111.254 86.7967C111.083 87.4687 110.757 88.0911 110.301 88.6133C109.845 89.1356 109.272 89.543 108.629 89.8026C107.383 90.2655 106.067 90.509 104.738 90.5225L91.8997 91.3894C89.7805 91.5314 87.6617 91.6767 85.5432 91.8254C83.5203 91.9664 81.4665 92.2494 79.4377 92.2504C78.5371 92.2958 77.6465 92.0449 76.9019 91.5363C75.8824 90.5551 75.2747 89.2228 75.2021 87.8097C75.1501 87.4662 75.1784 87.1153 75.2849 86.7846C75.3915 86.4539 75.5732 86.1524 75.8159 85.9038C76.1104 85.7066 76.4492 85.585 76.8019 85.5499C78.4338 85.2539 80.0527 84.9469 81.6805 84.6719Z" fill="#504C99"/>
<path d="M65.1097 86.1902H44.8184V90.1629H65.1097V86.1902Z" fill="#B8D1CE"/>
<path d="M48.3018 86.5801L43.1803 60.5082C43.1149 60.1741 42.9354 59.8732 42.6725 59.6569C42.4097 59.4405 42.0798 59.3222 41.7394 59.3223H7.69509C7.46449 59.3226 7.23732 59.3778 7.03218 59.4832C6.82705 59.5885 6.64988 59.7411 6.51525 59.9283L4.94336 61.7872L6.33827 61.4812L11.3799 87.1501C11.4454 87.4841 11.6249 87.785 11.8877 88.0013C12.1506 88.2176 12.4803 88.336 12.8207 88.3361H46.8649C47.0819 88.3357 47.2962 88.2872 47.4922 88.1941C47.6882 88.1011 47.8611 87.9657 47.9985 87.7978C48.1359 87.6299 48.2344 87.4336 48.2868 87.223C48.3393 87.0125 48.3444 86.7929 48.3018 86.5801Z" fill="#B8D1CE"/>
<path d="M11.259 90.163H45.3032C45.52 90.1631 45.7341 90.1152 45.9301 90.0227C46.1262 89.9301 46.2994 89.7953 46.4372 89.6279C46.575 89.4605 46.6739 89.2647 46.727 89.0545C46.78 88.8443 46.7858 88.6249 46.744 88.4122L41.6225 62.3403C41.5567 62.0065 41.377 61.7058 41.1143 61.4897C40.8515 61.2736 40.5218 61.1554 40.1816 61.1553H6.13732C5.92042 61.1552 5.7062 61.2033 5.51005 61.2958C5.3139 61.3884 5.14067 61.5233 5.00289 61.6908C4.8651 61.8583 4.76623 62.0543 4.71324 62.2646C4.66025 62.475 4.65443 62.6944 4.69639 62.9072L9.81708 88.9792C9.88291 89.3131 10.0627 89.6136 10.3257 89.8296C10.5887 90.0455 10.9187 90.1634 11.259 90.163Z" fill="#F47D31"/>
<path d="M21.9671 75.0134C22.144 75.8886 22.6104 76.679 23.2913 77.2568C23.9721 77.8346 24.8277 78.1662 25.7201 78.1984C26.1173 78.2135 26.5124 78.1357 26.8742 77.9711C27.2359 77.8065 27.5543 77.5597 27.8039 77.2504C28.0534 76.9411 28.2274 76.5779 28.3118 76.1895C28.3962 75.8011 28.3887 75.3983 28.2901 75.0134C28.1059 74.1416 27.6373 73.3558 26.958 72.7793C26.2787 72.2028 25.4272 71.8683 24.5371 71.8284C24.1414 71.8179 23.7484 71.8988 23.3889 72.0647C23.0295 72.2307 22.7132 72.4773 22.4646 72.7854C22.216 73.0936 22.0417 73.455 21.9555 73.8414C21.8692 74.2278 21.8731 74.6287 21.9671 75.0134Z" fill="white"/>
<path d="M76.8368 91.0578C75.8249 91.2668 75.0369 92.1578 74.028 92.4528C73.3038 92.6361 72.5397 92.5801 71.8501 92.2929C71.2152 92.0549 70.5692 91.9268 69.9183 91.7188C69.3771 91.4547 68.7816 91.3209 68.1794 91.3278C66.7182 91.8099 65.3234 92.4738 64.0278 93.3038C63.7518 93.4837 63.4245 93.5683 63.0958 93.5447C62.7749 93.4837 62.5069 93.0937 62.6899 92.8227C62.3169 93.1717 61.8229 93.8677 61.222 93.5977C61.1605 93.5715 61.105 93.5332 61.0585 93.4851C61.0121 93.4371 60.9758 93.38 60.9517 93.3177C60.9277 93.2553 60.9163 93.1888 60.9184 93.122C60.9205 93.0552 60.9361 92.9895 60.9641 92.9288C60.7743 93.1711 60.5318 93.367 60.2551 93.5017C60.1151 93.5649 59.9581 93.5802 59.8085 93.5453C59.6589 93.5104 59.5249 93.4273 59.4272 93.3088C59.3547 93.1829 59.3166 93.04 59.3171 92.8947C59.3114 92.3958 59.4253 91.9028 59.6491 91.4569C60.67 89.229 62.9789 87.5762 64.9427 86.2493C65.2776 85.9958 65.6482 85.7936 66.0426 85.6493C66.4063 85.5542 66.7819 85.5128 67.1575 85.5263C69.5988 85.516 72.0251 85.9079 74.339 86.6862C74.8521 86.7944 75.3842 86.771 75.8858 86.6183C76.2495 86.5207 76.6311 86.5098 76.9998 86.5863C77.3969 86.7323 77.7346 87.0054 77.9606 87.3632C78.4523 88.0061 78.7137 88.7956 78.7026 89.605C78.6616 90.2049 78.6166 90.8469 77.9136 90.9719C77.6286 91.0229 77.3357 90.9908 77.0477 91.0218C76.9768 91.0301 76.9065 91.0421 76.8368 91.0578Z" fill="#FFBA99"/>
<path d="M77.2676 55.0305C77.9916 54.8488 78.6597 54.4917 79.213 53.9907C79.7664 53.4897 80.1879 52.8602 80.4404 52.1578C80.8573 50.8229 80.2004 49.322 80.0834 47.9751C79.9708 46.6845 79.9568 45.3871 80.0415 44.0944C80.1754 42.888 80.1784 41.6707 80.0504 40.4637C79.9504 39.7828 79.5724 39.8997 78.8835 39.6287C78.1705 39.4016 77.4214 39.3097 76.6747 39.3578C75.1428 39.3578 71.1491 39.2508 70.2022 40.5947C69.8329 41.2406 69.6625 41.9812 69.7122 42.7235C69.6872 43.6105 69.5302 44.7594 69.3852 45.9973C69.3202 46.5482 69.3602 47.0971 69.2762 47.6441C69.1533 48.2545 68.9757 48.8525 68.7454 49.4309C68.5288 49.9342 68.4181 50.4767 68.4202 51.0246C68.4223 51.5724 68.5373 52.114 68.7578 52.6156C68.9783 53.1171 69.2997 53.5679 69.702 53.9399C70.1042 54.3118 70.5789 54.597 71.0961 54.7776C73.0674 55.5482 75.2399 55.6372 77.2676 55.0305Z" fill="#FFBA99"/>
<path d="M80.0443 40.4638C79.9443 39.7828 79.5663 39.8998 78.8773 39.6288C78.1643 39.4017 77.415 39.3098 76.6682 39.3578C75.1362 39.3578 71.1423 39.2508 70.1953 40.5948C69.8261 41.2408 69.6557 41.9814 69.7053 42.7238C69.6803 43.6108 69.5233 44.7598 69.3783 45.9978C69.3133 46.5488 69.3533 47.0977 69.2693 47.6447C69.1844 48.1113 69.0561 48.569 68.8862 49.0117C70.3932 49.5739 72.0332 49.6759 73.5983 49.3048C76.2549 48.6192 78.5488 46.9438 80.0103 44.6217C80.0183 44.4457 80.0233 44.2708 80.0343 44.0948C80.1689 42.8883 80.1722 41.6709 80.0443 40.4638Z" fill="#FCAA83"/>
<path d="M82.2673 31.7182C82.279 29.8209 82.0023 27.9328 81.4465 26.1187C79.1757 19.1662 70.5024 17.4483 65.2798 22.4389C59.4553 28.0045 61.68 41.3114 67.8195 45.9851C68.6468 46.6055 69.6034 47.0316 70.618 47.2315C71.6326 47.4315 72.6793 47.4002 73.6801 47.1399C79.7077 45.5261 82.3053 38.1087 82.2673 31.7182Z" fill="#FFBA99"/>
<path d="M81.4472 26.1206C79.1764 19.1681 70.5031 17.4503 65.2805 22.4409C64.6215 23.0793 64.059 23.8102 63.6106 24.6107C63.8976 24.8544 64.2039 25.0745 64.5265 25.2687C66.731 26.593 69.1156 27.5912 71.606 28.2324C72.6977 28.4143 73.7418 28.8131 74.6767 29.4054C75.1679 29.7969 75.5724 30.2862 75.8646 30.8422C76.2183 31.5251 76.5121 32.2374 76.7426 32.971C77.2364 34.5629 77.5713 36.1998 77.7425 37.8577C77.7462 38.0316 77.8089 38.1991 77.9205 38.3326C78.0513 38.4345 78.2167 38.4815 78.3815 38.4636C79.3434 38.4386 79.8073 37.5167 80.5563 37.0287C81.0072 36.7347 81.4562 36.4348 81.8851 36.1088C82.1489 34.6603 82.2778 33.1905 82.2701 31.7182C82.2808 29.8214 82.0033 27.934 81.4472 26.1206Z" fill="#F7C2A7"/>
<path d="M76.8447 30.5735C77.1071 31.2965 77.3061 32.0409 77.4396 32.7983C77.7226 34.4407 77.8422 36.107 77.7966 37.7729C77.7781 37.9455 77.8186 38.1193 77.9116 38.2659C78.0281 38.3839 78.1859 38.452 78.3517 38.4558C79.3086 38.5558 79.8874 37.7019 80.6934 37.3149C81.5441 36.9433 82.3521 36.4807 83.1032 35.9351C85.1821 34.3052 84.7031 31.6174 84.6411 29.2266C84.6635 27.912 84.5088 26.6003 84.1811 25.3269C83.7261 23.9615 82.9698 22.7159 81.9683 21.6822C80.5373 20.1858 78.796 19.0207 76.8669 18.2686C74.9378 17.5165 72.8675 17.1956 70.8012 17.3286C68.6477 17.4504 66.6038 18.3183 65.0207 19.7833C63.7708 21.0472 65.2936 22.7631 66.3205 23.5831C68.3347 25.1817 70.5697 26.4804 72.956 27.4387C74.0149 27.7605 74.9986 28.2912 75.8488 28.9996C76.2861 29.4497 76.6252 29.9856 76.8447 30.5735Z" fill="#0B2D4E"/>
<path d="M81.1276 31.8882C83.7956 30.4292 84.6176 34.1242 84.1586 35.9622C83.9836 36.7277 83.6568 37.4503 83.1976 38.0872C82.5626 38.9282 80.7476 40.3242 79.6976 39.4042C79.4935 39.1625 79.3406 38.8819 79.2481 38.5794C79.1556 38.2769 79.1255 37.9587 79.1596 37.6442C79.1236 35.9502 79.3196 32.8772 81.1276 31.8882Z" fill="#F8A17A"/>
<path d="M119.686 74.598C120.015 73.8605 120.04 73.0236 119.758 72.2672C119.496 71.5168 119.135 70.8044 118.685 70.1484C118.185 69.4107 117.79 68.6071 117.511 67.7606C117.259 66.8214 117.279 65.83 117.568 64.9018C118.215 63.3103 119.052 61.8034 120.062 60.4142C120.472 59.7519 120.759 59.0208 120.908 58.2563C121.074 57.4637 120.975 56.6388 120.627 55.9075C121.267 56.5388 121.631 57.3984 121.637 58.2973C121.657 59.2021 121.475 60.0999 121.103 60.9251C120.418 62.561 119.392 63.8899 118.992 65.3248C118.76 65.9965 118.718 66.7194 118.87 67.4136C119.073 68.1717 119.354 68.9068 119.707 69.6074C120.107 70.3985 120.366 71.2532 120.472 72.1332C120.537 72.5767 120.499 73.0292 120.363 73.4562C120.227 73.8832 119.996 74.2736 119.686 74.598Z" fill="white"/>
<path d="M114.978 75.589H125.095V85.0222C125.095 86.3638 124.562 87.6505 123.613 88.5992C122.664 89.5478 121.378 90.0808 120.036 90.0808C118.695 90.0808 117.408 89.5478 116.459 88.5992C115.51 87.6505 114.978 86.3638 114.978 85.0222V75.589Z" fill="#2F275C"/>
<path d="M125.805 78.8707C124.921 78.858 124.053 79.1086 123.311 79.5907C122.57 80.0727 121.988 80.7644 121.641 81.5778C121.294 82.3912 121.197 83.2896 121.361 84.1585C121.526 85.0275 121.945 85.8277 122.566 86.4576C123.187 87.0875 123.981 87.5185 124.848 87.6958C125.714 87.873 126.614 87.7885 127.432 87.4531C128.25 87.1176 128.951 86.5464 129.443 85.812C129.936 85.0775 130.199 84.2131 130.199 83.3287C130.203 82.7474 130.093 82.1709 129.875 81.6323C129.656 81.0936 129.334 80.6033 128.926 80.1893C128.518 79.7753 128.032 79.4458 127.497 79.2196C126.961 78.9933 126.386 78.8747 125.805 78.8707ZM125.805 86.1956C125.236 86.2038 124.678 86.0425 124.201 85.7324C123.724 85.4222 123.35 84.9772 123.126 84.4539C122.903 83.9306 122.84 83.3527 122.946 82.7937C123.052 82.2346 123.322 81.7199 123.722 81.3147C124.121 80.9094 124.632 80.6322 125.189 80.5181C125.747 80.4041 126.326 80.4585 126.852 80.6743C127.378 80.8901 127.829 81.2576 128.146 81.7301C128.463 82.2025 128.632 82.7587 128.632 83.3277C128.637 84.0822 128.341 84.8075 127.811 85.3444C127.281 85.8814 126.56 86.1861 125.805 86.1916V86.1956Z" fill="#504C99"/>
<path opacity="0.2" d="M116.491 84.5789C116.346 84.5784 116.207 84.5206 116.104 84.4181C116.002 84.3157 115.944 84.1768 115.944 84.0319V76.9789C115.944 76.834 116.002 76.6952 116.104 76.5927C116.207 76.4902 116.346 76.4325 116.491 76.4319C116.636 76.4325 116.774 76.4902 116.877 76.5927C116.979 76.6952 117.037 76.834 117.038 76.9789V84.0319C117.037 84.1768 116.979 84.3157 116.877 84.4181C116.774 84.5206 116.636 84.5784 116.491 84.5789Z" fill="white"/>
<path d="M122.758 75.5889V87.514C122.758 88.1934 122.488 88.845 122.007 89.3254C121.527 89.8058 120.875 90.0758 120.196 90.0758H122.533C123.212 90.0758 123.864 89.8059 124.344 89.3255C124.825 88.8451 125.095 88.1935 125.096 87.514V75.5839L122.758 75.5889Z" fill="#504C99"/>
<path d="M59.7489 24.4788C58.603 21.2691 56.3053 18.6793 57.6271 15.0795C58.0052 14.0497 58.6878 13.1595 59.5844 12.5273C60.4809 11.8952 61.5487 11.551 62.6457 11.5408C63.7099 11.523 64.7596 11.7906 65.6855 12.3158C66.7854 12.9447 67.4963 13.9727 68.7742 14.3156C71.774 15.1226 74.8737 12.8387 77.7334 12.3068C80.5682 11.7798 83.583 12.7068 84.9699 15.4166C85.3777 16.5432 85.8794 17.6336 86.4698 18.6762C87.6697 20.2761 90.0075 20.8281 90.9585 22.591C92.5103 25.4697 89.3216 29.6284 87.6987 31.8402" stroke="#0B2D4E" stroke-width="3.99968" stroke-miterlimit="10"/>
<path d="M72.4363 44.0589C71.7763 44.0586 71.1172 44.0098 70.4644 43.9129L70.5823 43.113C72.9294 43.4728 75.3306 43.1373 77.4893 42.1479C78.0141 41.9109 78.5148 41.6236 78.9843 41.29C79.7694 40.7193 80.4285 39.9928 80.9203 39.1559L81.6204 39.5649C81.072 40.4985 80.337 41.3091 79.4613 41.946C78.9499 42.3105 78.4043 42.6246 77.8323 42.884C76.1405 43.6636 74.299 44.0646 72.4363 44.0589Z" fill="#2F275C"/>
<path d="M68.1255 42.4755C69.1015 41.6385 71.2714 41.7094 71.9864 42.5754C72.1045 42.7212 72.1925 42.8889 72.2456 43.0688C72.2986 43.2487 72.3156 43.4373 72.2955 43.6238C72.2754 43.8103 72.2187 43.991 72.1286 44.1555C72.0385 44.32 71.9168 44.4651 71.7705 44.5825C71.439 44.8528 71.0432 45.0328 70.6217 45.1052C70.2001 45.1775 69.7671 45.1397 69.3645 44.9954C68.2855 44.7554 66.9515 43.4845 68.1255 42.4755Z" fill="#2F275C"/>
<path d="M67.2805 17.176C67.7491 17.1962 68.2184 17.1913 68.6864 17.161C69.1534 17.126 69.6173 17.0771 70.0802 17.0071C71.0061 16.8741 71.9271 16.6911 72.8641 16.5631C73.8062 16.4213 74.7605 16.3764 75.7118 16.4291C76.6872 16.4657 77.6415 16.7224 78.5036 17.18C78.7181 17.3054 78.9211 17.4493 79.1105 17.61C79.2983 17.7726 79.4719 17.9509 79.6295 18.143C79.7848 18.3384 79.9214 18.5479 80.0374 18.7689C80.1529 18.9909 80.2416 19.2259 80.3014 19.4688C80.362 19.7154 80.388 19.9691 80.3785 20.2227C80.3676 20.4702 80.331 20.7158 80.2695 20.9557C80.2155 21.1877 80.1574 21.4117 80.1214 21.6307C80.0846 21.8466 80.0772 22.0666 80.0994 22.2846C80.1575 22.733 80.2908 23.1684 80.4934 23.5725C80.6874 23.9915 80.9224 24.3954 81.1404 24.8174C81.3648 25.2383 81.5364 25.6853 81.6513 26.1483C81.7054 26.381 81.7316 26.6194 81.7293 26.8583C81.7248 27.0969 81.6819 27.3332 81.6024 27.5582C81.706 27.1022 81.6817 26.6265 81.5323 26.1833C81.3879 25.7425 81.1919 25.3202 80.9484 24.9254C80.7124 24.5254 80.4544 24.1255 80.2314 23.7055C79.9931 23.2779 79.8315 22.8119 79.7535 22.3286C79.72 22.0797 79.72 21.8275 79.7535 21.5787C79.7865 21.3337 79.8425 21.0997 79.8895 20.8787C79.9405 20.6623 79.9686 20.4411 79.9735 20.2188C79.977 20.0021 79.9501 19.786 79.8935 19.5768C79.6438 18.7203 79.0643 17.9979 78.2826 17.568C77.4799 17.1391 76.5919 16.8942 75.6828 16.8511C74.7577 16.7842 73.8284 16.8039 72.907 16.91C71.9791 17.01 71.0471 17.143 70.1072 17.226C69.6372 17.265 69.1644 17.288 68.6924 17.287C68.2198 17.2818 67.7481 17.2447 67.2805 17.176Z" fill="#73B8D4"/>
<path d="M82.2486 30.8376C78.4816 31.8036 77.0266 38.8996 81.2286 40.3116C85.7436 41.8296 88.9226 35.2896 85.9586 32.0856C85.5209 31.5487 84.9404 31.1467 84.2839 30.9258C83.6274 30.705 82.9218 30.6744 82.2486 30.8376Z" fill="#2F275C"/>
<path d="M83.4836 31.7496C80.8836 32.1676 79.2836 37.6916 81.9616 39.2116C84.8416 40.8456 87.5436 35.9256 85.8496 33.0926C85.6482 32.6471 85.3105 32.277 84.8853 32.0356C84.4601 31.7943 83.9694 31.6941 83.4836 31.7496Z" fill="#2F275C"/>
<path d="M84.008 31.3354L83.0081 31.2194C83.69 25.3309 83.3991 17.8065 78.1465 15.4037C75.4496 13.9676 72.3239 13.5563 69.3472 14.2458C68.9861 14.1958 68.634 14.0948 68.3013 13.9458C71.958 12.159 75.8837 13.2549 78.5685 14.4828C84.367 17.1396 84.728 25.1129 84.008 31.3354Z" fill="#2F275C"/>
<path d="M107.016 25.1738L123.297 25.1738C130.247 25.1738 135.882 19.5393 135.882 12.5888C135.882 5.6383 130.247 0.00380707 123.297 0.00380707L107.016 0.00380707C100.066 0.00380707 94.4312 5.6383 94.4312 12.5888C94.4312 19.5393 100.066 25.1738 107.016 25.1738Z" fill="#F47D31"/>
<path d="M99.8867 31.8002V20.2322L108.946 25.1742L99.8867 31.8002Z" fill="#F47D31"/>
<path d="M120.166 11.5259H101.843C101.236 11.5259 100.745 12.0174 100.745 12.6238C100.745 13.2302 101.236 13.7217 101.843 13.7217H120.166C120.772 13.7217 121.264 13.2302 121.264 12.6238C121.264 12.0174 120.772 11.5259 120.166 11.5259Z" fill="white"/>
<path d="M128.471 11.5259H123.941C123.334 11.5259 122.843 12.0175 122.843 12.6239C122.843 13.2303 123.334 13.7219 123.941 13.7219H128.471C129.077 13.7219 129.569 13.2303 129.569 12.6239C129.569 12.0175 129.077 11.5259 128.471 11.5259Z" fill="white"/>
<path d="M110.147 8.73511L128.47 8.73511C129.077 8.73511 129.568 8.24356 129.568 7.6372C129.568 7.03084 129.077 6.53928 128.47 6.53928L110.147 6.53928C109.541 6.53928 109.049 7.03084 109.049 7.6372C109.049 8.24356 109.541 8.73511 110.147 8.73511Z" fill="white"/>
<path d="M101.842 8.73511H106.372C106.979 8.73511 107.47 8.24352 107.47 7.63711C107.47 7.0307 106.979 6.53911 106.372 6.53911L101.842 6.53911C101.236 6.53911 100.744 7.0307 100.744 7.63711C100.744 8.24352 101.236 8.73511 101.842 8.73511Z" fill="white"/>
<path d="M114.059 16.0855H101.843C101.236 16.0855 100.745 16.5771 100.745 17.1834C100.745 17.7898 101.236 18.2813 101.843 18.2813H114.059C114.665 18.2813 115.156 17.7898 115.156 17.1834C115.156 16.5771 114.665 16.0855 114.059 16.0855Z" fill="white"/>
<path d="M134.18 32.3057C133.714 32.363 133.242 32.2975 132.809 32.1158C132.377 31.9341 131.999 31.6424 131.714 31.2698C130.466 29.4819 128.561 27.8771 126.424 29.6949C125.192 30.7428 126.118 32.8997 125.058 33.9376C124.121 34.8545 122.927 34.7035 122.448 36.2264C121.742 38.4662 123.967 40.4261 124.68 42.3659C125.28 43.9918 123.932 44.6107 123.326 45.8776C123.13 46.3564 123.054 46.8754 123.103 47.3902C123.152 47.9049 123.325 48.4001 123.608 48.8334C124.508 50.4792 126.494 51.8052 126.033 53.933C125.648 55.7118 125.29 57.2977 126.86 58.6456C127.936 59.5695 129.933 60.4124 129.781 62.1233C129.614 62.7054 129.418 63.2788 129.193 63.8412C129.159 64.3218 129.245 64.8034 129.444 65.2421C129.644 65.6808 129.95 66.0626 130.334 66.3529C131.951 67.734 133.379 69.3215 134.582 71.0746C135.1 71.8675 137.17 73.6584 136.343 74.7423C137.847 72.7714 139.442 70.8606 140.805 68.7888C141.93 67.0889 143.625 64.5891 142.471 62.4893C142.112 61.8364 141.445 61.3504 141.262 60.6275C140.932 59.3276 142.214 58.1146 142.689 57.0047C143.028 56.1438 143.102 55.2015 142.903 54.2981C142.704 53.3946 142.24 52.5709 141.571 51.9321C140.874 51.3866 140.384 50.6204 140.18 49.7593C140.253 48.8095 140.514 47.8838 140.949 47.0365C141.195 46.2155 141.362 45.3732 141.449 44.5207C141.534 43.9272 141.517 43.3235 141.398 42.7359C141.132 41.63 140.135 41.014 139.398 40.2291C137.643 38.3602 138.565 36.1624 137.798 33.9905C137.111 32.0527 135.611 32.3147 134.18 32.3057Z" fill="#3DC8E8"/>
<mask id="mask1_136_355" style="mask-type:luminance" maskUnits="userSpaceOnUse" x="122" y="28" width="22" height="47">
<path d="M134.18 32.3057C133.714 32.363 133.242 32.2975 132.809 32.1158C132.377 31.9341 131.999 31.6424 131.714 31.2698C130.466 29.4819 128.561 27.8771 126.424 29.6949C125.192 30.7428 126.118 32.8997 125.058 33.9376C124.121 34.8545 122.927 34.7035 122.448 36.2264C121.742 38.4662 123.967 40.4261 124.68 42.3659C125.28 43.9918 123.932 44.6107 123.326 45.8776C123.13 46.3564 123.054 46.8754 123.103 47.3902C123.152 47.9049 123.325 48.4001 123.608 48.8334C124.508 50.4792 126.494 51.8052 126.033 53.933C125.648 55.7118 125.29 57.2977 126.86 58.6456C127.936 59.5695 129.933 60.4124 129.781 62.1233C129.614 62.7054 129.418 63.2788 129.193 63.8412C129.159 64.3218 129.245 64.8034 129.444 65.2421C129.644 65.6808 129.95 66.0626 130.334 66.3529C131.951 67.734 133.379 69.3215 134.582 71.0746C135.1 71.8675 137.17 73.6584 136.343 74.7423C137.847 72.7714 139.442 70.8606 140.805 68.7888C141.93 67.0889 143.625 64.5891 142.471 62.4893C142.112 61.8364 141.445 61.3504 141.262 60.6275C140.932 59.3276 142.214 58.1146 142.689 57.0047C143.028 56.1438 143.102 55.2015 142.903 54.2981C142.704 53.3946 142.24 52.5709 141.571 51.9321C140.874 51.3866 140.384 50.6204 140.18 49.7593C140.253 48.8095 140.514 47.8838 140.949 47.0365C141.195 46.2155 141.362 45.3732 141.449 44.5207C141.534 43.9272 141.517 43.3235 141.398 42.7359C141.132 41.63 140.135 41.014 139.398 40.2291C137.643 38.3602 138.565 36.1624 137.798 33.9905C137.111 32.0527 135.611 32.3147 134.18 32.3057Z" fill="white"/>
</mask>
<g mask="url(#mask1_136_355)">
<path d="M136.529 76.9691C137.104 69.4893 136.657 61.966 135.2 54.6069C133.97 47.5377 132.073 40.6007 129.536 33.8885C128.675 31.6872 127.693 29.5354 126.593 27.4431" stroke="#26A8D1" stroke-width="4.9996" stroke-miterlimit="10"/>
<path d="M120.699 37.4622C124.382 38.7631 127.881 40.537 131.107 42.7393C131.818 43.1355 132.474 43.6218 133.06 44.1862" stroke="#26A8D1" stroke-width="4.9996" stroke-miterlimit="10"/>
<path d="M134.8 52.1904C131.256 49.9038 127.28 48.3691 123.119 47.6814" stroke="#26A8D1" stroke-width="4.9996" stroke-miterlimit="10"/>
<path d="M136.196 61.8288C132.89 58.9717 128.926 56.982 124.66 56.0388" stroke="#26A8D1" stroke-width="4.9996" stroke-miterlimit="10"/>
<path d="M132.873 43.9396C133.133 39.9755 134.111 36.0916 135.761 32.4777" stroke="#26A8D1" stroke-width="4.9996" stroke-miterlimit="10"/>
<path d="M134.754 51.8649C136.432 48.2832 138.827 45.0839 141.791 42.4648" stroke="#26A8D1" stroke-width="4.9996" stroke-miterlimit="10"/>
<path d="M136.414 62.1039C136.645 60.9984 137.049 59.9359 137.609 58.955C138.29 57.8333 139.083 56.7836 139.976 55.822C140.6 55.1133 141.233 54.4133 141.875 53.7219" stroke="#26A8D1" stroke-width="4.9996" stroke-miterlimit="10"/>
</g>
<path d="M145.58 45.9246C145.91 46.0305 146.261 46.0484 146.6 45.9765C146.939 45.9046 147.253 45.7454 147.512 45.5146C148.665 44.3907 150.268 43.4898 151.567 45.1046C152.316 46.0356 151.346 47.4715 151.967 48.3714C152.52 49.1713 153.407 49.2213 153.544 50.3922C153.744 52.1151 151.86 53.231 151.075 54.5369C150.417 55.6368 151.307 56.2688 151.575 57.2717C151.651 57.646 151.635 58.0331 151.528 58.3997C151.421 58.7663 151.226 59.1015 150.961 59.3765C150.084 60.4464 148.462 61.1323 148.497 62.7422C148.53 64.0861 148.57 65.2851 147.245 66.042C146.336 66.5639 144.771 66.8979 144.645 68.1598C144.686 68.6053 144.749 69.0485 144.834 69.4877C144.793 69.841 144.663 70.1784 144.458 70.469C144.253 70.7596 143.978 70.9943 143.659 71.1516C142.295 71.9296 141.04 72.8833 139.924 73.9883C139.439 74.4883 137.689 75.5042 138.139 76.4051C137.321 74.7672 136.432 73.1614 135.726 71.4686C135.146 70.0767 134.261 68.0348 135.389 66.6689C135.74 66.2449 136.289 65.985 136.524 65.486C136.944 64.5861 136.182 63.5312 135.99 62.6612C135.863 61.9899 135.94 61.2962 136.209 60.6685C136.479 60.0407 136.929 59.5074 137.503 59.1365C138.083 58.8376 138.545 58.3499 138.813 57.7537C138.892 57.0549 138.83 56.3474 138.631 55.6728C138.568 55.0433 138.564 54.4092 138.619 53.7789C138.64 53.3365 138.736 52.901 138.903 52.4911C139.249 51.7251 140.057 51.4171 140.703 50.9502C142.235 49.8373 141.87 48.1154 142.727 46.6505C143.492 45.3356 144.541 45.7326 145.58 45.9246Z" fill="#26A8D1"/>
<mask id="mask2_136_355" style="mask-type:luminance" maskUnits="userSpaceOnUse" x="134" y="44" width="20" height="33">
<path d="M145.58 45.9246C145.91 46.0305 146.261 46.0484 146.6 45.9765C146.939 45.9046 147.253 45.7454 147.512 45.5146C148.665 44.3907 150.268 43.4898 151.567 45.1046C152.316 46.0356 151.346 47.4715 151.967 48.3714C152.52 49.1713 153.407 49.2213 153.544 50.3922C153.744 52.1151 151.86 53.231 151.075 54.5369C150.417 55.6368 151.307 56.2688 151.575 57.2717C151.651 57.646 151.635 58.0331 151.528 58.3997C151.421 58.7663 151.226 59.1015 150.961 59.3765C150.084 60.4464 148.462 61.1323 148.497 62.7422C148.53 64.0861 148.57 65.2851 147.245 66.042C146.336 66.5639 144.771 66.8979 144.645 68.1598C144.686 68.6053 144.749 69.0485 144.834 69.4877C144.793 69.841 144.663 70.1784 144.458 70.469C144.253 70.7596 143.978 70.9943 143.659 71.1516C142.295 71.9296 141.04 72.8833 139.924 73.9883C139.439 74.4883 137.689 75.5042 138.139 76.4051C137.321 74.7672 136.432 73.1614 135.726 71.4686C135.146 70.0767 134.261 68.0348 135.389 66.6689C135.74 66.2449 136.289 65.985 136.524 65.486C136.944 64.5861 136.182 63.5312 135.99 62.6612C135.863 61.9899 135.94 61.2962 136.209 60.6685C136.479 60.0407 136.929 59.5074 137.503 59.1365C138.083 58.8376 138.545 58.3499 138.813 57.7537C138.892 57.0549 138.83 56.3474 138.631 55.6728C138.568 55.0433 138.564 54.4092 138.619 53.7789C138.64 53.3365 138.736 52.901 138.903 52.4911C139.249 51.7251 140.057 51.4171 140.703 50.9502C142.235 49.8373 141.87 48.1154 142.727 46.6505C143.492 45.3356 144.541 45.7326 145.58 45.9246Z" fill="white"/>
</mask>
<g mask="url(#mask2_136_355)">
<path d="M137.694 77.9959C138.311 72.4908 139.677 67.0956 141.752 61.9592C143.623 57.002 145.96 52.2328 148.729 47.7154C149.658 46.2374 150.668 44.8123 151.756 43.4467" stroke="#3DC8E8" stroke-width="4.9996" stroke-miterlimit="10"/>
<path d="M154.648 51.5311C151.796 51.9648 149.013 52.7672 146.368 53.9181C145.798 54.1071 145.254 54.3689 144.751 54.6971" stroke="#3DC8E8" stroke-width="4.9996" stroke-miterlimit="10"/>
<path d="M142.378 60.2625C145.266 59.094 148.363 58.531 151.478 58.6085" stroke="#3DC8E8" stroke-width="4.9996" stroke-miterlimit="10"/>
<path d="M140.031 67.06C142.825 65.4464 145.976 64.5529 149.2 64.4601" stroke="#3DC8E8" stroke-width="4.9996" stroke-miterlimit="10"/>
<path d="M144.918 54.5446C145.279 51.6331 145.107 48.6804 144.41 45.8306" stroke="#3DC8E8" stroke-width="4.9996" stroke-miterlimit="10"/>
<path d="M142.453 60.0321C141.733 57.2015 140.44 54.5489 138.653 52.2381" stroke="#3DC8E8" stroke-width="4.9996" stroke-miterlimit="10"/>
<path d="M139.835 67.2294C139.82 66.3953 139.675 65.5686 139.405 64.7794C139.066 63.8715 138.636 63.0004 138.121 62.1794C137.767 61.5794 137.403 60.9845 137.031 60.3945" stroke="#3DC8E8" stroke-width="4.9996" stroke-miterlimit="10"/>
</g>
<path d="M131.139 76.0882H144.915L142.498 89.8741H133.556L131.139 76.0882Z" fill="#EFB126"/>
<path d="M129.453 76.0882H146.602V72.2185H129.453V76.0882Z" fill="#FFC73C"/>
<path opacity="0.1" d="M144.591 77.917H131.456L131.135 76.0892H144.911L144.591 77.917Z" fill="#231F20"/>
<path d="M149.376 94.9824H3.41165C2.71428 94.9988 2.03891 94.7377 1.53399 94.2564C1.02907 93.7751 0.735785 93.1131 0.71875 92.4157C0.735785 91.7184 1.02907 91.0562 1.53399 90.5749C2.03891 90.0936 2.71428 89.8325 3.41165 89.8489H149.376C150.073 89.8325 150.749 90.0936 151.254 90.5749C151.758 91.0562 152.052 91.7184 152.069 92.4157C152.052 93.1131 151.758 93.7751 151.254 94.2564C150.749 94.7377 150.073 94.9988 149.376 94.9824Z" fill="#DBCDFE"/>
<path d="M35.468 3.41467H30.0154C28.8987 3.41809 27.8286 3.86325 27.039 4.65291C26.2493 5.44257 25.8042 6.51261 25.8008 7.62935C25.8021 8.31214 25.9691 8.98441 26.2874 9.58843C26.6058 10.1924 27.0661 10.7101 27.6286 11.0971V14.0638L30.6623 11.845H35.469C36.5857 11.8416 37.6557 11.3964 38.4454 10.6068C39.2351 9.81712 39.6802 8.74707 39.6836 7.63033C39.6804 6.51324 39.2353 5.44281 38.4454 4.65291C37.6555 3.863 36.5851 3.41783 35.468 3.41467Z" fill="#F47D31"/>
<path d="M29.6874 8.2664C30.0408 8.2664 30.3274 7.97987 30.3274 7.6264C30.3274 7.27294 30.0408 6.9864 29.6874 6.9864C29.3339 6.9864 29.0474 7.27294 29.0474 7.6264C29.0474 7.97987 29.3339 8.2664 29.6874 8.2664Z" fill="white"/>
<path d="M32.7413 8.2664C33.0948 8.2664 33.3813 7.97987 33.3813 7.6264C33.3813 7.27294 33.0948 6.9864 32.7413 6.9864C32.3879 6.9864 32.1013 7.27294 32.1013 7.6264C32.1013 7.97987 32.3879 8.2664 32.7413 8.2664Z" fill="white"/>
<path d="M35.796 8.2664C36.1495 8.2664 36.436 7.97987 36.436 7.6264C36.436 7.27294 36.1495 6.9864 35.796 6.9864C35.4425 6.9864 35.156 7.27294 35.156 7.6264C35.156 7.97987 35.4425 8.2664 35.796 8.2664Z" fill="white"/>
<path d="M104.902 42.1395C104.061 40.7005 101.939 39.9785 99.8874 42.3765C97.8364 39.9765 95.7132 40.7015 94.8732 42.1395C92.8012 45.6845 99.8874 49.8565 99.8874 49.8565C99.8874 49.8565 106.974 45.6845 104.902 42.1395Z" fill="#F47D31"/>
<path d="M44.6254 26.8347H40.1908C37.4064 26.8347 35.1492 29.0919 35.1492 31.8763C35.1492 34.6607 37.4064 36.9179 40.1908 36.9179H44.6254C47.4098 36.9179 49.667 34.6607 49.667 31.8763C49.667 29.0919 47.4098 26.8347 44.6254 26.8347Z" fill="#F47D31"/>
<path d="M42.4088 40.1038L44.9548 36.6709H39.8638L42.4088 40.1038Z" fill="#F47D31"/>
<path d="M46.2273 33.1734H45.5992V31.4534L45.6053 31.1704L45.6152 30.8614C45.5112 30.966 45.439 31.0344 45.3983 31.0664L45.0573 31.3404L44.7573 30.9624L45.7153 30.2004H46.2313L46.2273 33.1734Z" fill="white"/>
<path d="M41.572 30.1014H39.511C39.0891 30.1032 38.6849 30.2717 38.3866 30.57C38.0882 30.8684 37.9198 31.2725 37.918 31.6944C37.9185 31.9524 37.9817 32.2063 38.1021 32.4345C38.2224 32.6627 38.3964 32.8583 38.609 33.0044V34.1234L39.755 33.2854H41.5709C41.9928 33.2836 42.397 33.1151 42.6953 32.8168C42.9937 32.5184 43.1621 32.1143 43.1639 31.6924C43.1616 31.271 42.993 30.8675 42.6949 30.5696C42.3969 30.2718 41.9934 30.1035 41.572 30.1014Z" fill="white"/>
</g>
<defs>
<clipPath id="clip0_136_355">
<rect width="152.844" height="94.9924" fill="white" transform="translate(0.71875 0.00380707)"/>
</clipPath>
</defs>
</svg>
