<svg width="120" height="88" viewBox="0 0 120 88" fill="none" xmlns="http://www.w3.org/2000/svg">
<g clip-path="url(#clip0_136_171)">
<path d="M119.933 16.5017V87.5322H30.3662V16.5017H119.933ZM115.234 61.9776V58.0441C115.234 56.9861 114.814 55.9713 114.065 55.2231C113.317 54.475 112.302 54.0547 111.244 54.0547H105.899C104.841 54.0549 103.827 54.4753 103.078 55.2235C102.33 55.9716 101.91 56.9861 101.91 58.0441V61.9776C101.91 63.0357 102.33 64.0504 103.078 64.7986C103.826 65.5468 104.841 65.9671 105.899 65.9671H111.244C111.768 65.9673 112.287 65.8643 112.771 65.6639C113.256 65.4635 113.695 65.1697 114.066 64.7992C114.436 64.4287 114.73 63.9888 114.931 63.5046C115.131 63.0205 115.234 62.5016 115.234 61.9776ZM114.912 28.6501V24.7166C114.911 23.6587 114.491 22.6443 113.743 21.8962C112.995 21.1482 111.98 20.7277 110.922 20.7271H105.575C104.517 20.7277 103.503 21.1482 102.755 21.8962C102.007 22.6443 101.586 23.6587 101.586 24.7166V28.6501C101.586 29.7081 102.006 30.7229 102.754 31.4711C103.502 32.2192 104.517 32.6395 105.575 32.6395H110.92C111.444 32.6395 111.963 32.5363 112.447 32.3359C112.931 32.1354 113.371 31.8415 113.741 31.4711C114.112 31.1006 114.406 30.6608 114.606 30.1768C114.807 29.6928 114.91 29.174 114.91 28.6501H114.912ZM114.736 45.3138V41.3814C114.736 40.3233 114.316 39.3086 113.567 38.5604C112.819 37.8122 111.805 37.3919 110.746 37.3919H105.401C104.344 37.3924 103.329 37.813 102.582 38.5612C101.834 39.3093 101.414 40.3237 101.415 41.3814V45.3148C101.414 45.8386 101.517 46.3573 101.717 46.8413C101.917 47.3253 102.211 47.7651 102.581 48.1356C102.951 48.5061 103.391 48.8 103.875 49.0006C104.359 49.2011 104.877 49.3043 105.401 49.3043H110.746C111.27 49.3043 111.789 49.2011 112.273 49.0005C112.757 48.7999 113.197 48.5059 113.567 48.1353C113.937 47.7648 114.231 47.3248 114.431 46.8407C114.631 46.3566 114.734 45.8377 114.734 45.3138H114.736ZM99.006 61.9776V58.0441C99.0057 56.9861 98.5853 55.9716 97.8372 55.2235C97.0891 54.4753 96.0745 54.0549 95.0165 54.0547H89.6713C88.6134 54.0552 87.5989 54.4757 86.8509 55.2237C86.1028 55.9718 85.6823 56.9862 85.6818 58.0441V61.9776C85.6818 63.0357 86.1021 64.0504 86.8503 64.7986C87.5985 65.5468 88.6132 65.9671 89.6713 65.9671H95.0165C96.0743 65.9665 97.0885 65.546 97.8362 64.7979C98.584 64.0498 99.004 63.0353 99.004 61.9776H99.006ZM98.684 28.6501V24.7166C98.6835 23.6587 98.263 22.6443 97.515 21.8962C96.7669 21.1482 95.7525 20.7277 94.6946 20.7271H89.3493C88.2912 20.7271 87.2765 21.1475 86.5283 21.8956C85.7801 22.6438 85.3598 23.6585 85.3598 24.7166V28.6501C85.3596 29.174 85.4626 29.6929 85.663 30.1771C85.8634 30.6612 86.1572 31.1011 86.5277 31.4716C86.8982 31.8421 87.3382 32.136 87.8223 32.3364C88.3064 32.5368 88.8253 32.6398 89.3493 32.6395H94.6946C95.7525 32.6393 96.767 32.2188 97.5149 31.4707C98.2629 30.7226 98.684 29.708 98.684 28.6501ZM98.5081 45.3138V41.3814C98.5081 40.3233 98.0878 39.3086 97.3396 38.5604C96.5914 37.8122 95.5767 37.3919 94.5186 37.3919H89.1733C88.1153 37.3922 87.1008 37.8126 86.3527 38.5607C85.6045 39.3088 85.1841 40.3234 85.1839 41.3814V45.3148C85.1839 46.3729 85.6042 47.3876 86.3523 48.1358C87.1005 48.884 88.1152 49.3043 89.1733 49.3043H94.5186C95.0426 49.3044 95.5614 49.2013 96.0455 49.0008C96.5296 48.8003 96.9695 48.5063 97.3399 48.1357C97.7103 47.7651 98.004 47.3251 98.2043 46.8409C98.4046 46.3567 98.5085 45.8378 98.5081 45.3138ZM82.4182 61.9776V58.0441C82.4182 56.9861 81.9979 55.9713 81.2498 55.2231C80.5016 54.475 79.4868 54.0547 78.4288 54.0547H73.0835C72.0259 54.0552 71.0117 54.4758 70.2641 55.2239C69.5166 55.9721 69.0968 56.9865 69.097 58.0441V61.9776C69.0968 62.5013 69.1997 63.02 69.3999 63.5039C69.6001 63.9879 69.8937 64.4276 70.2639 64.7981C70.6341 65.1686 71.0736 65.4625 71.5574 65.6631C72.0412 65.8636 72.5598 65.9669 73.0835 65.9671H78.4288C78.9526 65.9671 79.4713 65.8639 79.9552 65.6634C80.4391 65.4628 80.8787 65.1689 81.249 64.7985C81.6193 64.428 81.913 63.9882 82.1133 63.5042C82.3136 63.0201 82.4165 62.5014 82.4162 61.9776H82.4182ZM82.2443 78.6414V74.7079C82.2437 73.65 81.8232 72.6356 81.0752 71.8875C80.3271 71.1395 79.3127 70.719 78.2548 70.7184H72.9095C71.8514 70.7184 70.8367 71.1387 70.0885 71.8869C69.3404 72.6351 68.9201 73.6498 68.9201 74.7079V78.6414C68.9198 79.1653 69.0228 79.6842 69.2232 80.1684C69.4236 80.6525 69.7175 81.0924 70.088 81.4629C70.4585 81.8334 70.8984 82.1273 71.3825 82.3277C71.8666 82.5281 72.3855 82.6311 72.9095 82.6308H78.2548C79.3118 82.6292 80.325 82.2082 81.0719 81.4602C81.8188 80.7122 82.2382 79.6984 82.2382 78.6414H82.2443ZM82.0963 28.6481V24.7146C82.0963 23.6565 81.676 22.6418 80.9278 21.8936C80.1796 21.1455 79.1649 20.7251 78.1068 20.7251H72.7595C71.7016 20.7257 70.6872 21.1462 69.9391 21.8942C69.1911 22.6423 68.7706 23.6567 68.7701 24.7146V28.6481C68.7701 29.7061 69.1904 30.7209 69.9386 31.4691C70.6867 32.2172 71.7015 32.6375 72.7595 32.6375H78.1048C78.6286 32.6378 79.1473 32.5349 79.6314 32.3346C80.1154 32.1343 80.5552 31.8407 80.9257 31.4704C81.2962 31.1001 81.59 30.6604 81.7906 30.1765C81.9911 29.6926 82.0943 29.1739 82.0943 28.6501L82.0963 28.6481ZM81.9203 45.3118V41.3814C81.9203 40.3233 81.5 39.3086 80.7518 38.5604C80.0036 37.8122 78.9889 37.3919 77.9308 37.3919H72.5855C71.5279 37.3924 70.5138 37.813 69.7662 38.5612C69.0186 39.3093 68.5988 40.3237 68.5991 41.3814V45.3148C68.5987 45.8386 68.7015 46.3573 68.9017 46.8413C69.1018 47.3253 69.3954 47.7651 69.7656 48.1356C70.1359 48.5061 70.5754 48.8 71.0593 49.0006C71.5432 49.2011 72.0618 49.3043 72.5855 49.3043H77.9308C78.4547 49.3043 78.9735 49.2011 79.4575 49.0005C79.9414 48.7999 80.3811 48.5059 80.7514 48.1353C81.1218 47.7648 81.4154 47.3248 81.6156 46.8407C81.8159 46.3566 81.9187 45.8377 81.9183 45.3138L81.9203 45.3118ZM65.1536 61.9756V58.0421C65.1536 56.9841 64.7332 55.9693 63.985 55.2212C63.2369 54.473 62.2222 54.0527 61.1641 54.0527H55.8188C54.7612 54.0532 53.747 54.4738 52.9995 55.2219C52.2519 55.9701 51.8321 56.9845 51.8324 58.0421V61.9756C51.8321 62.4993 51.935 63.018 52.1352 63.5019C52.3354 63.9859 52.629 64.4256 52.9992 64.7961C53.3694 65.1666 53.8089 65.4605 54.2927 65.6611C54.7765 65.8616 55.2951 65.9649 55.8188 65.9651H61.1641C62.2216 65.9651 63.2359 65.545 63.9836 64.7972C64.7314 64.0494 65.1515 63.0351 65.1515 61.9776L65.1536 61.9756ZM64.9796 78.6394V74.7059C64.979 73.648 64.5586 72.6336 63.8105 71.8855C63.0625 71.1375 62.048 70.717 60.9901 70.7164H55.6418C55.1179 70.7164 54.5992 70.8196 54.1151 71.0201C53.6311 71.2206 53.1913 71.5145 52.8208 71.8849C52.4504 72.2554 52.1565 72.6952 51.9561 73.1792C51.7556 73.6632 51.6524 74.182 51.6524 74.7059V78.6394C51.6521 79.1633 51.7551 79.6822 51.9555 80.1664C52.1559 80.6505 52.4497 81.0904 52.8203 81.4609C53.1908 81.8314 53.6307 82.1253 54.1148 82.3257C54.599 82.5261 55.1179 82.6291 55.6418 82.6288H60.9871C62.045 82.6291 63.0597 82.2092 63.808 81.4614C64.5564 80.7136 64.977 79.6993 64.9776 78.6414L64.9796 78.6394ZM64.8316 28.6461V24.7126C64.8316 23.6545 64.4113 22.6398 63.6631 21.8916C62.9149 21.1435 61.9002 20.7231 60.8421 20.7231H55.4968C54.4389 20.7237 53.4245 21.1442 52.6764 21.8922C51.9284 22.6403 51.5079 23.6547 51.5074 24.7126V28.6461C51.5074 29.7041 51.9277 30.7189 52.6759 31.4671C53.424 32.2152 54.4388 32.6355 55.4968 32.6355H60.8411C61.8985 32.6358 62.9127 32.2161 63.6606 31.4687C64.4086 30.7213 64.8291 29.7074 64.8296 28.6501L64.8316 28.6461ZM64.6556 45.3098V41.3814C64.6559 40.3237 64.2361 39.3093 63.4885 38.5612C62.7409 37.813 61.7268 37.3924 60.6691 37.3919H55.3239C54.2658 37.3919 53.2511 37.8122 52.5029 38.5604C51.7547 39.3086 51.3344 40.3233 51.3344 41.3814V45.3148C51.3341 45.8388 51.4372 46.3577 51.6376 46.8419C51.838 47.326 52.1318 47.7659 52.5023 48.1364C52.8728 48.5069 53.3127 48.8008 53.7969 49.0012C54.281 49.2016 54.7999 49.3046 55.3239 49.3043H60.6691C61.1928 49.304 61.7113 49.2006 62.195 48.9999C62.6787 48.7992 63.1181 48.5052 63.4881 48.1346C63.8582 47.764 64.1515 47.3242 64.3515 46.8402C64.5515 46.3562 64.6542 45.8375 64.6536 45.3138L64.6556 45.3098ZM48.5678 61.9736V58.0401C48.5675 56.9823 48.1473 55.9679 47.3994 55.2198C46.6515 54.4717 45.6371 54.0512 44.5793 54.0507H39.233C38.175 54.0507 37.1602 54.471 36.4121 55.2192C35.6639 55.9673 35.2436 56.9821 35.2436 58.0401V61.9736C35.2433 62.4976 35.3463 63.0165 35.5467 63.5006C35.7471 63.9848 36.041 64.4247 36.4115 64.7952C36.782 65.1657 37.2219 65.4595 37.706 65.6599C38.1902 65.8603 38.7091 65.9633 39.233 65.9631H44.5793C45.6362 65.9623 46.6495 65.5422 47.3969 64.7949C48.1444 64.0477 48.5647 63.0345 48.5658 61.9776L48.5678 61.9736ZM48.3918 78.6374V74.7039C48.3918 74.18 48.2886 73.6612 48.0881 73.1772C47.8876 72.6932 47.5938 72.2534 47.2233 71.8829C46.8529 71.5125 46.4131 71.2186 45.929 71.0181C45.445 70.8176 44.9263 70.7144 44.4024 70.7144H39.0571C37.9992 70.715 36.9847 71.1355 36.2367 71.8835C35.4886 72.6316 35.0681 73.646 35.0676 74.7039V78.6374C35.0676 79.6954 35.4879 80.7102 36.2361 81.4584C36.9843 82.2065 37.999 82.6268 39.0571 82.6268H44.4024C45.4595 82.6268 46.4734 82.207 47.2212 81.4596C47.9689 80.7123 48.3893 79.6986 48.3898 78.6414L48.3918 78.6374ZM48.2438 28.6441V24.7106C48.2441 23.653 47.8243 22.6385 47.0767 21.8904C46.3291 21.1423 45.315 20.7217 44.2574 20.7211H38.9121C37.854 20.7211 36.8393 21.1415 36.0911 21.8896C35.3429 22.6378 34.9226 23.6525 34.9226 24.7106V28.6441C34.9223 29.1681 35.0254 29.687 35.2258 30.1711C35.4262 30.6552 35.72 31.0951 36.0905 31.4656C36.461 31.8362 36.9009 32.13 37.3851 32.3304C37.8692 32.5308 38.3881 32.6338 38.9121 32.6335H44.2574C45.3139 32.6333 46.3272 32.2136 47.0745 31.4666C47.8218 30.7197 48.242 29.7067 48.2428 28.6501L48.2438 28.6441ZM48.0708 45.3078V41.3814C48.0703 40.3235 47.6498 39.309 46.9018 38.561C46.1537 37.8129 45.1393 37.3924 44.0814 37.3919H38.7361C38.2122 37.3919 37.6934 37.4951 37.2094 37.6956C36.7254 37.8961 36.2856 38.1899 35.9151 38.5604C35.5447 38.9308 35.2508 39.3706 35.0503 39.8547C34.8498 40.3387 34.7466 40.8575 34.7466 41.3814V45.3148C34.7464 45.8388 34.8494 46.3577 35.0498 46.8419C35.2502 47.326 35.544 47.7659 35.9145 48.1364C36.285 48.5069 36.7249 48.8008 37.2091 49.0012C37.6932 49.2016 38.2121 49.3046 38.7361 49.3043H44.0814C45.1391 49.3035 46.1532 48.8827 46.9008 48.1344C47.6483 47.3861 48.0681 46.3716 48.0678 45.3138L48.0708 45.3078Z" fill="#F6F6F6"/>
<path d="M119.933 5.05725V16.5007H30.3662V5.05725H34.8136C35.0486 7.23596 36.4944 8.86474 38.3041 8.86474C38.3862 8.87766 38.4701 8.87265 38.55 8.85005C38.6299 8.82745 38.704 8.7878 38.7672 8.73383C38.8303 8.67985 38.881 8.61284 38.9158 8.5374C38.9505 8.46196 38.9685 8.37988 38.9685 8.29681C38.9685 8.21375 38.9505 8.13168 38.9158 8.05624C38.881 7.9808 38.8303 7.91378 38.7672 7.85981C38.704 7.80583 38.6299 7.76618 38.55 7.74358C38.4701 7.72098 38.3862 7.71598 38.3041 7.7289C37.2553 7.7289 36.3494 6.55705 36.1474 5.05725H46.0891C46.3241 7.23596 47.7699 8.86474 49.5796 8.86474C49.6617 8.87766 49.7456 8.87265 49.8255 8.85005C49.9054 8.82745 49.9795 8.7878 50.0426 8.73383C50.1058 8.67985 50.1565 8.61284 50.1912 8.5374C50.226 8.46196 50.244 8.37988 50.244 8.29681C50.244 8.21375 50.226 8.13168 50.1912 8.05624C50.1565 7.9808 50.1058 7.91378 50.0426 7.85981C49.9795 7.80583 49.9054 7.76618 49.8255 7.74358C49.7456 7.72098 49.6617 7.71598 49.5796 7.7289C48.5308 7.7289 47.6239 6.55705 47.4229 5.05725H57.7115C57.9465 7.23596 59.3953 8.86474 61.2051 8.86474C61.2871 8.87766 61.371 8.87265 61.4509 8.85005C61.5309 8.82745 61.605 8.7878 61.6681 8.73383C61.7312 8.67985 61.7819 8.61284 61.8167 8.5374C61.8514 8.46196 61.8694 8.37988 61.8694 8.29681C61.8694 8.21375 61.8514 8.13168 61.8167 8.05624C61.7819 7.9808 61.7312 7.91378 61.6681 7.85981C61.605 7.80583 61.5309 7.76618 61.4509 7.74358C61.371 7.72098 61.2871 7.71598 61.2051 7.7289C60.1562 7.7289 59.2503 6.55705 59.0484 5.05725H68.987C69.222 7.23596 70.6708 8.86474 72.4806 8.86474C72.5626 8.87766 72.6465 8.87265 72.7264 8.85005C72.8064 8.82745 72.8804 8.7878 72.9436 8.73383C73.0067 8.67985 73.0574 8.61284 73.0922 8.5374C73.1269 8.46196 73.1449 8.37988 73.1449 8.29681C73.1449 8.21375 73.1269 8.13168 73.0922 8.05624C73.0574 7.9808 73.0067 7.91378 72.9436 7.85981C72.8804 7.80583 72.8064 7.76618 72.7264 7.74358C72.6465 7.72098 72.5626 7.71598 72.4806 7.7289C71.4317 7.7289 70.5248 6.55705 70.3239 5.05725H81.7623C81.9973 7.23596 83.4461 8.86474 85.2529 8.86474C85.3349 8.87766 85.4188 8.87265 85.4987 8.85005C85.5786 8.82745 85.6527 8.7878 85.7159 8.73383C85.779 8.67985 85.8297 8.61284 85.8645 8.5374C85.8992 8.46196 85.9172 8.37988 85.9172 8.29681C85.9172 8.21375 85.8992 8.13168 85.8645 8.05624C85.8297 7.9808 85.779 7.91378 85.7159 7.85981C85.6527 7.80583 85.5786 7.76618 85.4987 7.74358C85.4188 7.72098 85.3349 7.71598 85.2529 7.7289C84.207 7.7289 83.3001 6.55705 83.0992 5.05725H93.0378C93.2728 7.23596 94.7216 8.86474 96.5283 8.86474C96.6104 8.87766 96.6943 8.87265 96.7742 8.85005C96.8541 8.82745 96.9282 8.7878 96.9914 8.73383C97.0545 8.67985 97.1052 8.61284 97.1399 8.5374C97.1747 8.46196 97.1927 8.37988 97.1927 8.29681C97.1927 8.21375 97.1747 8.13168 97.1399 8.05624C97.1052 7.9808 97.0545 7.91378 96.9914 7.85981C96.9282 7.80583 96.8541 7.76618 96.7742 7.74358C96.6943 7.72098 96.6104 7.71598 96.5283 7.7289C95.4795 7.7289 94.5726 6.55705 94.3746 5.05725H104.663C104.898 7.23596 106.344 8.86474 108.154 8.86474C108.236 8.87766 108.32 8.87265 108.4 8.85005C108.48 8.82745 108.554 8.7878 108.617 8.73383C108.68 8.67985 108.731 8.61284 108.765 8.5374C108.8 8.46196 108.818 8.37988 108.818 8.29681C108.818 8.21375 108.8 8.13168 108.765 8.05624C108.731 7.9808 108.68 7.91378 108.617 7.85981C108.554 7.80583 108.48 7.76618 108.4 7.74358C108.32 7.72098 108.236 7.71598 108.154 7.7289C107.105 7.7289 106.199 6.55705 105.997 5.05725H119.933Z" fill="#F47D31"/>
<path d="M109.276 54.0557H107.863C104.574 54.0557 101.908 56.7219 101.908 60.0109V60.0119C101.908 63.3008 104.574 65.9671 107.863 65.9671H109.276C112.565 65.9671 115.231 63.3008 115.231 60.0119V60.0109C115.231 56.7219 112.565 54.0557 109.276 54.0557Z" fill="#F47D31"/>
<path d="M108.954 20.7281H107.542C104.253 20.7281 101.586 23.3944 101.586 26.6833V26.6843C101.586 29.9733 104.253 32.6396 107.542 32.6396H108.954C112.243 32.6396 114.91 29.9733 114.91 26.6843V26.6833C114.91 23.3944 112.243 20.7281 108.954 20.7281Z" fill="#F47D31"/>
<path d="M114.734 41.3814V45.3149C114.734 45.8389 114.631 46.3578 114.431 46.8419C114.23 47.3261 113.936 47.766 113.566 48.1365C113.195 48.507 112.756 48.8008 112.271 49.0012C111.787 49.2016 111.268 49.3046 110.744 49.3044H105.399C104.875 49.3044 104.357 49.2011 103.873 49.0006C103.389 48.8001 102.949 48.5062 102.579 48.1357C102.209 47.7652 101.915 47.3254 101.715 46.8414C101.515 46.3574 101.412 45.8387 101.413 45.3149V41.3814C101.412 40.3238 101.832 39.3094 102.58 38.5612C103.327 37.8131 104.341 37.3925 105.399 37.392H110.744C111.802 37.392 112.817 37.8123 113.565 38.5605C114.313 39.3086 114.734 40.3234 114.734 41.3814Z" fill="#F47D31"/>
<path d="M93.0487 54.0557H91.6359C88.3469 54.0557 85.6807 56.7219 85.6807 60.0109V60.0119C85.6807 63.3008 88.3469 65.9671 91.6359 65.9671H93.0487C96.3376 65.9671 99.0039 63.3008 99.0039 60.0119V60.0109C99.0039 56.7219 96.3376 54.0557 93.0487 54.0557Z" fill="#F47D31"/>
<path d="M92.7269 20.7281H91.3141C88.0251 20.7281 85.3589 23.3944 85.3589 26.6833V26.6843C85.3589 29.9733 88.0251 32.6396 91.3141 32.6396H92.7269C96.0159 32.6396 98.6821 29.9733 98.6821 26.6843V26.6833C98.6821 23.3944 96.0159 20.7281 92.7269 20.7281Z" fill="#F47D31"/>
<path d="M92.5511 37.3919H91.1383C87.8493 37.3919 85.1831 40.0581 85.1831 43.3471V43.3481C85.1831 46.6371 87.8493 49.3033 91.1383 49.3033H92.5511C95.8401 49.3033 98.5063 46.6371 98.5063 43.3481V43.3471C98.5063 40.0581 95.8401 37.3919 92.5511 37.3919Z" fill="#F47D31"/>
<path d="M82.4164 58.0451V61.9786C82.4167 62.5026 82.3137 63.0215 82.1133 63.5056C81.9129 63.9898 81.619 64.4297 81.2485 64.8002C80.878 65.1707 80.4381 65.4645 79.954 65.6649C79.4698 65.8653 78.9509 65.9683 78.4269 65.9681H73.0817C72.558 65.9679 72.0394 65.8646 71.5556 65.6641C71.0718 65.4635 70.6322 65.1696 70.2621 64.7991C69.8919 64.4287 69.5983 63.9889 69.3981 63.5049C69.1979 63.021 69.095 62.5023 69.0952 61.9786V58.0451C69.095 56.9875 69.5148 55.9731 70.2624 55.2249C71.0099 54.4768 72.024 54.0562 73.0817 54.0557H78.43C79.4875 54.0565 80.5015 54.4771 81.249 55.2252C81.9965 55.9733 82.4164 56.9876 82.4164 58.0451Z" fill="#F47D31"/>
<path d="M76.287 70.7195H74.8741C71.5852 70.7195 68.9189 73.3857 68.9189 76.6747V76.6757C68.9189 79.9646 71.5852 82.6309 74.8741 82.6309H76.287C79.5759 82.6309 82.2422 79.9646 82.2422 76.6757V76.6747C82.2422 73.3857 79.5759 70.7195 76.287 70.7195Z" fill="#F47D31"/>
<path d="M76.139 20.7281H74.7262C71.4372 20.7281 68.771 23.3944 68.771 26.6833V26.6843C68.771 29.9733 71.4372 32.6396 74.7262 32.6396H76.139C79.428 32.6396 82.0942 29.9733 82.0942 26.6843V26.6833C82.0942 23.3944 79.428 20.7281 76.139 20.7281Z" fill="#F47D31"/>
<path d="M81.9184 41.3814V45.3149C81.9186 45.8389 81.8156 46.3578 81.6152 46.8419C81.4148 47.3261 81.121 47.766 80.7505 48.1365C80.38 48.507 79.9401 48.8008 79.4559 49.0012C78.9718 49.2016 78.4529 49.3046 77.9289 49.3044H72.5836C72.0599 49.3044 71.5412 49.2011 71.0574 49.0006C70.5735 48.8001 70.1339 48.5062 69.7637 48.1357C69.3935 47.7652 69.0999 47.3254 68.8997 46.8414C68.6996 46.3574 68.5968 45.8387 68.5972 45.3149V41.3814C68.5969 40.3238 69.0167 39.3094 69.7643 38.5612C70.5119 37.8131 71.526 37.3925 72.5836 37.392H77.9289C78.987 37.392 80.0017 37.8123 80.7499 38.5605C81.4981 39.3086 81.9184 40.3234 81.9184 41.3814Z" fill="#F47D31"/>
<path d="M65.1518 58.0451V61.9786C65.152 62.5026 65.0491 63.0215 64.8487 63.5056C64.6483 63.9898 64.3544 64.4297 63.9839 64.8002C63.6134 65.1707 63.1735 65.4645 62.6893 65.6649C62.2052 65.8653 61.6863 65.9683 61.1623 65.9681H55.817C55.2933 65.9679 54.7748 65.8646 54.291 65.6641C53.8072 65.4635 53.3676 65.1696 52.9974 64.7991C52.6272 64.4287 52.3337 63.9889 52.1334 63.5049C51.9332 63.021 51.8303 62.5023 51.8306 61.9786V58.0451C51.8303 56.9875 52.2501 55.9731 52.9977 55.2249C53.7453 54.4768 54.7594 54.0562 55.817 54.0557H61.1623C62.2204 54.0557 63.2351 54.476 63.9833 55.2241C64.7315 55.9723 65.1518 56.9871 65.1518 58.0451Z" fill="#F47D31"/>
<path d="M59.0223 70.7195H57.6095C54.3205 70.7195 51.6543 73.3857 51.6543 76.6747V76.6757C51.6543 79.9646 54.3205 82.6309 57.6095 82.6309H59.0223C62.3113 82.6309 64.9775 79.9646 64.9775 76.6757V76.6747C64.9775 73.3857 62.3113 70.7195 59.0223 70.7195Z" fill="#F47D31"/>
<path d="M58.8734 20.7281H57.4606C54.1716 20.7281 51.5054 23.3944 51.5054 26.6833V26.6843C51.5054 29.9733 54.1716 32.6396 57.4606 32.6396H58.8734C62.1623 32.6396 64.8286 29.9733 64.8286 26.6843V26.6833C64.8286 23.3944 62.1623 20.7281 58.8734 20.7281Z" fill="#F47D31"/>
<path d="M64.6488 41.3814V45.3149C64.6492 45.8387 64.5464 46.3574 64.3463 46.8414C64.1461 47.3254 63.8525 47.7652 63.4823 48.1357C63.1121 48.5062 62.6725 48.8001 62.1886 49.0006C61.7048 49.2011 61.1861 49.3044 60.6624 49.3044H55.3171C54.7931 49.3046 54.2742 49.2016 53.7901 49.0012C53.306 48.8008 52.866 48.507 52.4955 48.1365C52.125 47.766 51.8312 47.3261 51.6308 46.8419C51.4304 46.3578 51.3274 45.8389 51.3276 45.3149V41.3814C51.3276 40.3234 51.748 39.3086 52.4961 38.5605C53.2443 37.8123 54.2591 37.392 55.3171 37.392H60.6624C61.72 37.3925 62.7342 37.8131 63.4817 38.5612C64.2293 39.3094 64.6491 40.3238 64.6488 41.3814Z" fill="#F47D31"/>
<path d="M42.6097 54.0557H41.1969C37.9079 54.0557 35.2417 56.7219 35.2417 60.0109V60.0119C35.2417 63.3008 37.9079 65.9671 41.1969 65.9671H42.6097C45.8987 65.9671 48.5649 63.3008 48.5649 60.0119V60.0109C48.5649 56.7219 45.8987 54.0557 42.6097 54.0557Z" fill="#F47D31"/>
<path d="M42.4334 70.7195H41.0206C37.7317 70.7195 35.0654 73.3857 35.0654 76.6747V76.6757C35.0654 79.9646 37.7317 82.6309 41.0206 82.6309H42.4334C45.7224 82.6309 48.3886 79.9646 48.3886 76.6757V76.6747C48.3886 73.3857 45.7224 70.7195 42.4334 70.7195Z" fill="#F47D31"/>
<path d="M48.2417 24.7176V28.6511C48.242 29.1748 48.1392 29.6935 47.939 30.1775C47.7389 30.6616 47.4453 31.1014 47.0751 31.4719C46.7049 31.8424 46.2653 32.1363 45.7814 32.3368C45.2976 32.5373 44.7789 32.6406 44.2552 32.6406H38.9099C38.3859 32.6408 37.867 32.5378 37.3829 32.3374C36.8987 32.137 36.4588 31.8432 36.0883 31.4726C35.7178 31.1021 35.424 30.6622 35.2236 30.1781C35.0232 29.694 34.9201 29.1751 34.9204 28.6511V24.7176C34.9204 23.6595 35.3408 22.6448 36.0889 21.8966C36.8371 21.1485 37.8518 20.7281 38.9099 20.7281H44.2552C45.3128 20.7287 46.3269 21.1493 47.0745 21.8974C47.8221 22.6455 48.2419 23.66 48.2417 24.7176Z" fill="#F47D31"/>
<path d="M42.1117 37.3919H40.6989C37.4099 37.3919 34.7437 40.0581 34.7437 43.3471V43.3481C34.7437 46.6371 37.4099 49.3033 40.6989 49.3033H42.1117C45.4006 49.3033 48.0669 46.6371 48.0669 43.3481V43.3471C48.0669 40.0581 45.4006 37.3919 42.1117 37.3919Z" fill="#F47D31"/>
<path d="M41.6228 2.91756C41.6397 2.99486 41.6402 3.07483 41.6244 3.15235C41.6085 3.22986 41.5766 3.30321 41.5308 3.3677C41.485 3.43218 41.4261 3.48637 41.3581 3.5268C41.2901 3.56723 41.2144 3.593 41.1359 3.60247C40.9746 3.6432 40.804 3.62323 40.6565 3.54635C40.509 3.46947 40.3949 3.34105 40.336 3.18552C39.989 1.96069 39.1721 1.1358 38.3082 1.1358C37.1164 1.1358 36.1086 2.6466 36.1086 4.43536C36.1084 4.64404 36.1224 4.8525 36.1505 5.05927C36.3505 6.55907 37.2584 7.73091 38.3072 7.73091C38.3893 7.71799 38.4732 7.723 38.5531 7.7456C38.633 7.7682 38.7071 7.80786 38.7702 7.86183C38.8334 7.9158 38.8841 7.98281 38.9188 8.05825C38.9536 8.13369 38.9716 8.21577 38.9716 8.29884C38.9716 8.3819 38.9536 8.46398 38.9188 8.53942C38.8841 8.61486 38.8334 8.68188 38.7702 8.73585C38.7071 8.78982 38.633 8.82947 38.5531 8.85207C38.4732 8.87467 38.3893 8.87968 38.3072 8.86676C36.4975 8.86676 35.0517 7.23898 34.8167 5.05927C34.794 4.85208 34.7826 4.64379 34.7827 4.43536C34.7827 1.94869 36.3295 0.00195312 38.3072 0.00195312C39.1042 0.0537716 39.8616 0.367875 40.4614 0.895281C41.0611 1.42269 41.4695 2.13375 41.6228 2.91756Z" fill="#6354B2"/>
<path d="M64.5248 2.91756C64.5417 2.99509 64.5421 3.07528 64.5261 3.15298C64.5101 3.23068 64.4779 3.30417 64.4318 3.3687C64.3856 3.43322 64.3265 3.48736 64.2581 3.52763C64.1897 3.56789 64.1137 3.59339 64.0349 3.60247C63.8736 3.64365 63.7028 3.62389 63.5552 3.54695C63.4076 3.47001 63.2936 3.34132 63.235 3.18552C62.885 1.96069 62.0711 1.1358 61.2063 1.1358C60.0144 1.1358 59.0065 2.6466 59.0065 4.43536C59.0063 4.64404 59.0204 4.8525 59.0486 5.05927C59.2485 6.55907 60.1564 7.73091 61.2052 7.73091C61.2873 7.71799 61.3712 7.723 61.4511 7.7456C61.5311 7.7682 61.6051 7.80786 61.6683 7.86183C61.7314 7.9158 61.7821 7.98281 61.8169 8.05825C61.8516 8.13369 61.8696 8.21577 61.8696 8.29884C61.8696 8.3819 61.8516 8.46398 61.8169 8.53942C61.7821 8.61486 61.7314 8.68188 61.6683 8.73585C61.6051 8.78982 61.5311 8.82947 61.4511 8.85207C61.3712 8.87467 61.2873 8.87968 61.2052 8.86676C59.3955 8.86676 57.9467 7.23898 57.7117 5.05927C57.6888 4.85209 57.6775 4.6438 57.6777 4.43536C57.6777 1.94869 59.2275 0.00195312 61.2052 0.00195312C62.0029 0.0529187 62.7613 0.366637 63.3619 0.894114C63.9624 1.42159 64.3713 2.13312 64.5248 2.91756Z" fill="#6354B2"/>
<path d="M75.8002 2.91756C75.8171 2.99509 75.8175 3.07528 75.8014 3.15298C75.7854 3.23068 75.7533 3.30417 75.7072 3.3687C75.661 3.43322 75.6018 3.48736 75.5335 3.52763C75.4651 3.56789 75.3891 3.59339 75.3102 3.60247C75.149 3.64365 74.9782 3.62389 74.8306 3.54695C74.683 3.47001 74.569 3.34132 74.5104 3.18552C74.1614 1.96069 73.3465 1.1358 72.4827 1.1358C71.2908 1.1358 70.2829 2.6466 70.2829 4.43536C70.2827 4.64404 70.2968 4.8525 70.3249 5.05927C70.5249 6.55907 71.4328 7.73091 72.4816 7.73091C72.5637 7.71799 72.6476 7.723 72.7275 7.7456C72.8074 7.7682 72.8815 7.80786 72.9447 7.86183C73.0078 7.9158 73.0585 7.98281 73.0932 8.05825C73.128 8.13369 73.146 8.21577 73.146 8.29884C73.146 8.3819 73.128 8.46398 73.0932 8.53942C73.0585 8.61486 73.0078 8.68188 72.9447 8.73585C72.8815 8.78982 72.8074 8.82947 72.7275 8.85207C72.6476 8.87467 72.5637 8.87968 72.4816 8.86676C70.6719 8.86676 69.2231 7.23898 68.9881 5.05927C68.9654 4.85208 68.954 4.64379 68.9541 4.43536C68.9541 1.94869 70.5039 0.00195312 72.4816 0.00195312C73.279 0.0536329 74.0368 0.367625 74.6371 0.894999C75.2373 1.42237 75.6463 2.1335 75.8002 2.91756Z" fill="#6354B2"/>
<path d="M88.5765 2.91756C88.5931 2.99499 88.5933 3.075 88.5772 3.15252C88.5611 3.23004 88.529 3.30336 88.483 3.3678C88.437 3.43223 88.3781 3.48638 88.31 3.52679C88.2419 3.56719 88.1662 3.59297 88.0876 3.60247C87.9263 3.64297 87.7558 3.62289 87.6084 3.54604C87.461 3.46919 87.3469 3.34091 87.2877 3.18552C86.9408 1.96069 86.1268 1.1358 85.26 1.1358C84.0711 1.1358 83.0603 2.6466 83.0603 4.43536C83.0601 4.64404 83.0741 4.8525 83.1023 5.05927C83.3022 6.55907 84.2101 7.73091 85.256 7.73091C85.338 7.71799 85.4219 7.723 85.5018 7.7456C85.5818 7.7682 85.6558 7.80786 85.719 7.86183C85.7821 7.9158 85.8328 7.98281 85.8676 8.05825C85.9023 8.13369 85.9203 8.21577 85.9203 8.29884C85.9203 8.3819 85.9023 8.46398 85.8676 8.53942C85.8328 8.61486 85.7821 8.68188 85.719 8.73585C85.6558 8.78982 85.5818 8.82947 85.5018 8.85207C85.4219 8.87467 85.338 8.87968 85.256 8.86676C83.4492 8.86676 82.0004 7.23898 81.7654 5.05927C81.7427 4.85208 81.7313 4.64379 81.7314 4.43536C81.7314 1.94869 83.2812 0.00195312 85.256 0.00195312C86.0537 0.0532068 86.812 0.367003 87.4127 0.894411C88.0133 1.42182 88.4225 2.13319 88.5765 2.91756Z" fill="#6354B2"/>
<path d="M99.8489 2.91756C99.8658 2.99486 99.8663 3.07483 99.8505 3.15235C99.8347 3.22986 99.8028 3.30321 99.7569 3.3677C99.7111 3.43218 99.6523 3.48637 99.5843 3.5268C99.5163 3.56723 99.4406 3.593 99.362 3.60247C99.2007 3.64343 99.03 3.62355 98.8825 3.54664C98.7349 3.46974 98.6209 3.34118 98.5621 3.18552C98.2152 1.96069 97.4013 1.1358 96.5344 1.1358C95.3425 1.1358 94.3347 2.6466 94.3347 4.43536C94.3345 4.64404 94.3485 4.8525 94.3767 5.05927C94.5767 6.55907 95.4815 7.73091 96.5304 7.73091C96.6124 7.71799 96.6963 7.723 96.7762 7.7456C96.8562 7.7682 96.9303 7.80786 96.9934 7.86183C97.0565 7.9158 97.1072 7.98281 97.142 8.05825C97.1768 8.13369 97.1948 8.21577 97.1948 8.29884C97.1948 8.3819 97.1768 8.46398 97.142 8.53942C97.1072 8.61486 97.0565 8.68188 96.9934 8.73585C96.9303 8.78982 96.8562 8.82947 96.7762 8.85207C96.6963 8.87467 96.6124 8.87968 96.5304 8.86676C94.7236 8.86676 93.2748 7.23898 93.0399 5.05927C93.017 4.85209 93.0056 4.6438 93.0059 4.43536C93.0059 1.94869 94.5556 0.00195312 96.5304 0.00195312C97.328 0.0527974 98.0863 0.366499 98.6867 0.894015C99.2871 1.42153 99.6958 2.13313 99.8489 2.91756Z" fill="#6354B2"/>
<path d="M52.8983 2.91756C52.9151 2.99501 52.9156 3.07513 52.8996 3.15277C52.8837 3.23041 52.8516 3.30385 52.8056 3.36836C52.7595 3.43287 52.7005 3.48703 52.6322 3.52735C52.564 3.56767 52.488 3.59326 52.4093 3.60247C52.248 3.64365 52.0772 3.62389 51.9296 3.54695C51.782 3.47001 51.668 3.34132 51.6094 3.18552C51.2625 1.96069 50.4456 1.1358 49.5817 1.1358C48.3898 1.1358 47.382 2.6466 47.382 4.43536C47.3818 4.64404 47.3958 4.8525 47.424 5.05927C47.624 6.55907 48.5318 7.73091 49.5807 7.73091C49.6628 7.71799 49.7466 7.723 49.8266 7.7456C49.9065 7.7682 49.9806 7.80786 50.0437 7.86183C50.1069 7.9158 50.1575 7.98281 50.1923 8.05825C50.227 8.13369 50.245 8.21577 50.245 8.29884C50.245 8.3819 50.227 8.46398 50.1923 8.53942C50.1575 8.61486 50.1069 8.68188 50.0437 8.73585C49.9806 8.78982 49.9065 8.82947 49.8266 8.85207C49.7466 8.87467 49.6628 8.87968 49.5807 8.86676C47.771 8.86676 46.3251 7.23898 46.0901 5.05927C46.0673 4.85209 46.0559 4.6438 46.0562 4.43536C46.0562 1.94869 47.603 0.00195312 49.5807 0.00195312C50.378 0.0533453 51.1359 0.36726 51.7361 0.894701C52.3362 1.42214 52.7449 2.13343 52.8983 2.91756Z" fill="#6354B2"/>
<path d="M110.988 3.60344C110.827 3.64418 110.657 3.6242 110.509 3.54732C110.362 3.47044 110.247 3.34202 110.189 3.1865C109.842 1.96166 109.028 1.13677 108.16 1.13677C106.968 1.13677 105.96 2.64757 105.96 4.43633C105.96 4.64502 105.974 4.85347 106.002 5.06025C106.202 6.56005 107.11 7.73189 108.159 7.73189C108.241 7.71897 108.325 7.72398 108.405 7.74658C108.485 7.76918 108.559 7.80883 108.622 7.86281C108.685 7.91678 108.736 7.98379 108.77 8.05923C108.805 8.13467 108.823 8.21675 108.823 8.29981C108.823 8.38288 108.805 8.46495 108.77 8.5404C108.736 8.61584 108.685 8.68285 108.622 8.73683C108.559 8.7908 108.485 8.83044 108.405 8.85304C108.325 8.87564 108.241 8.88066 108.159 8.86774C106.349 8.86774 104.903 7.23996 104.668 5.06025C104.645 4.85306 104.634 4.64477 104.634 4.43633C104.634 1.94967 106.181 0.00292969 108.159 0.00292969C108.957 0.0539253 109.715 0.367949 110.315 0.895869C110.916 1.42379 111.324 2.13582 111.476 2.92054C111.493 2.99777 111.493 3.07761 111.477 3.15495C111.461 3.23229 111.429 3.30543 111.383 3.3697C111.337 3.43396 111.278 3.48795 111.21 3.5282C111.142 3.56845 111.067 3.59407 110.988 3.60344Z" fill="#6354B2"/>
<path d="M92.6458 69.4517C93.949 69.4517 95.2229 69.8381 96.3065 70.5621C97.39 71.2861 98.2346 72.3152 98.7333 73.5192C99.232 74.7232 99.3625 76.0481 99.1083 77.3262C98.854 78.6044 98.2265 79.7785 97.305 80.7C96.3835 81.6215 95.2094 82.249 93.9312 82.5033C92.6531 82.7575 91.3282 82.627 90.1242 82.1283C88.9202 81.6296 87.8911 80.7851 87.1671 79.7015C86.4431 78.6179 86.0566 77.344 86.0566 76.0408C86.0566 74.2932 86.7508 72.6173 87.9865 71.3816C89.2222 70.1459 90.8982 69.4517 92.6458 69.4517Z" stroke="#F47D31" stroke-width="4.99933"/>
<g style="mix-blend-mode:soft-light">
<path d="M5.05078 57.2434C5.05098 63.2339 6.82757 69.0899 10.1559 74.0707C13.4842 79.0516 18.2147 82.9336 23.7493 85.226C29.2839 87.5183 35.374 88.118 41.2494 86.9492C47.1248 85.7804 52.5217 82.8955 56.7576 78.6595C60.9935 74.4235 63.8781 69.0265 65.0467 63.1511C66.2153 57.2756 65.6155 51.1856 63.323 45.6511C61.0304 40.1165 57.1482 35.3861 52.1672 32.058C47.1863 28.7298 41.3303 26.9534 35.3397 26.9534C27.3065 26.9537 19.6024 30.1451 13.9221 35.8255C8.2419 41.5059 5.05078 49.2101 5.05078 57.2434Z" fill="black"/>
</g>
<path d="M0.347168 57.2434C0.347366 63.2336 2.12378 69.0893 5.45178 74.07C8.77979 79.0507 13.5099 82.9328 19.0441 85.2253C24.5783 87.5179 30.668 88.1179 36.5432 86.9497C42.4184 85.7814 47.8153 82.8973 52.0515 78.662C56.2877 74.4267 59.1729 69.0303 60.3423 63.1554C61.5117 57.2804 60.9128 51.1905 58.6213 45.6559C56.3299 40.1213 52.4488 35.3904 47.4687 32.0614C42.4887 28.7324 36.6333 26.9548 30.6431 26.9534C26.6649 26.9526 22.7254 27.7355 19.0498 29.2574C15.3742 30.7793 12.0343 33.0103 9.22101 35.823C6.40769 38.6358 4.17602 41.9752 2.65344 45.6505C1.13085 49.3259 0.347168 53.2651 0.347168 57.2434Z" fill="#6354B2"/>
<path d="M3.86084 57.2433C3.86104 62.5396 5.43177 67.7169 8.37438 72.1204C11.317 76.524 15.4993 79.9561 20.3925 81.9827C25.2857 84.0093 30.67 84.5394 35.8644 83.506C41.0589 82.4726 45.8303 79.922 49.5751 76.1768C53.32 72.4316 55.8703 67.6601 56.9033 62.4656C57.9364 57.271 57.4059 51.8868 55.3789 46.9938C53.3519 42.1007 49.9195 37.9186 45.5157 34.9763C41.1119 32.0341 35.9345 30.4637 30.6383 30.4639C27.1217 30.4641 23.6395 31.1568 20.3907 32.5027C17.1418 33.8485 14.1899 35.8211 11.7034 38.3078C9.21684 40.7945 7.24447 43.7466 5.89885 46.9956C4.55323 50.2446 3.86071 53.7267 3.86084 57.2433Z" fill="url(#paint0_linear_136_171)"/>
<path d="M31.1471 33.2236H29.7051V39.1576H31.1471V33.2236Z" fill="#1F1C38"/>
<path d="M31.1471 76.2538H29.7051V82.1888H31.1471V76.2538Z" fill="#6354B2"/>
<path d="M12.0903 56.5894H6.15625V57.8944H12.0903V56.5894Z" fill="#1F1C38"/>
<path d="M55.1225 56.5894H49.1875V57.8944H55.1225V56.5894Z" fill="#6354B2"/>
<path d="M30.341 22.662L34.2235 34.0125H26.6245L30.341 22.662Z" fill="#6354B2"/>
<path d="M29.0762 58.1223H31.7759L31.7759 31.6278H29.0762L29.0762 58.1223Z" fill="#6354B2"/>
<path d="M3.89258 57.3273L15.243 53.4448V61.0438L3.89258 57.3273Z" fill="#6354B2"/>
<path d="M31.7759 58.5922V55.8925H12.8584V58.5922H31.7759Z" fill="#6354B2"/>
<path d="M30.8472 57.0265L30.4189 57.4733L43.811 70.3089L44.2393 69.862L30.8472 57.0265Z" fill="#6354B2"/>
<path d="M26.8164 57.8626C26.8162 58.4446 26.9886 59.0135 27.3117 59.4974C27.6349 59.9813 28.0943 60.3586 28.6318 60.5814C29.1694 60.8042 29.761 60.8626 30.3317 60.7492C30.9025 60.6358 31.4268 60.3557 31.8383 59.9443C32.2499 59.5329 32.5302 59.0087 32.6438 58.438C32.7574 57.8672 32.6992 57.2756 32.4765 56.738C32.2539 56.2004 31.8768 55.7409 31.393 55.4175C30.9091 55.0942 30.3403 54.9216 29.7584 54.9216C28.9783 54.9216 28.2301 55.2315 27.6784 55.783C27.1267 56.3345 26.8167 57.0825 26.8164 57.8626Z" fill="#6354B2"/>
</g>
<defs>
<linearGradient id="paint0_linear_136_171" x1="3.86084" y1="57.2423" x2="57.4177" y2="57.2423" gradientUnits="userSpaceOnUse">
<stop stop-color="#F9E6D9"/>
<stop offset="0.121" stop-color="#FBF1EA"/>
<stop offset="0.27" stop-color="#FDF9F6"/>
<stop offset="0.475" stop-color="#FEFDFD"/>
<stop offset="1" stop-color="white"/>
</linearGradient>
<clipPath id="clip0_136_171">
<rect width="119.581" height="87.5312" fill="white" transform="translate(0.350098)"/>
</clipPath>
</defs>
</svg>
